<?xml version="1.0" standalone="no"?>
<!DOCTYPE svg PUBLIC "-//W3C//DTD SVG 20010904//EN"
 "http://www.w3.org/TR/2001/REC-SVG-20010904/DTD/svg10.dtd">
<svg version="1.0" xmlns="http://www.w3.org/2000/svg"
 width="2000.000000pt" height="1967.000000pt" viewBox="0 0 2000.000000 1967.000000"
 preserveAspectRatio="xMidYMid meet">

<g transform="translate(0.000000,1967.000000) scale(0.100000,-0.100000)"
fill="#000000" stroke="none">
<path d="M9230 19544 c-428 -17 -642 -37 -960 -90 -1673 -276 -3248 -982
-4563 -2047 -350 -283 -848 -756 -1123 -1067 -575 -649 -1008 -1278 -1407
-2040 -551 -1054 -937 -2357 -1022 -3445 -66 -865 -58 -1678 26 -2290 340
-2508 1607 -4760 3554 -6320 769 -616 1614 -1104 2560 -1478 1369 -542 2813
-746 4390 -621 1052 83 1961 306 2932 721 112 48 201 88 199 90 -2 2 -487 121
-1077 264 l-1074 260 -175 -35 c-1476 -293 -2841 -219 -4260 231 -1683 532
-3175 1592 -4234 3008 -1411 1885 -1989 4229 -1611 6531 238 1451 852 2821
1779 3969 258 319 729 811 1026 1070 754 658 1601 1176 2505 1530 327 129 847
295 1182 379 579 145 1012 186 1963 186 978 0 1292 -34 2025 -216 1228 -307
2344 -861 3320 -1649 439 -355 945 -861 1300 -1300 642 -795 1153 -1736 1464
-2700 148 -456 321 -1182 350 -1465 44 -439 53 -1148 87 -6970 8 -1510 16
-2746 17 -2747 4 -3 1092 -254 1112 -256 18 -2 21 6 27 78 35 380 16 8084 -22
9175 -29 826 -64 1099 -230 1777 -192 784 -395 1355 -714 2008 -400 818 -883
1536 -1510 2245 -169 191 -631 649 -828 822 -647 565 -1315 1016 -2045 1382
-767 383 -1529 653 -2343 830 -485 105 -711 135 -1280 166 -182 11 -1174 21
-1340 14z"/>
<path d="M8855 17004 c-16 -3 -75 -14 -130 -25 -55 -10 -158 -30 -230 -44 -71
-13 -161 -31 -200 -40 -38 -8 -119 -26 -180 -39 -60 -13 -137 -31 -170 -40
-33 -9 -114 -30 -179 -47 -66 -17 -126 -35 -135 -39 -9 -5 -58 -21 -110 -35
-52 -14 -108 -32 -125 -40 -17 -7 -74 -28 -126 -46 -52 -17 -99 -35 -105 -40
-5 -4 -40 -18 -76 -32 -36 -14 -92 -37 -125 -52 -138 -64 -270 -126 -284 -135
-8 -5 -28 -16 -45 -24 -99 -46 -130 -62 -225 -112 -106 -56 -143 -77 -350
-200 -237 -141 -596 -395 -805 -569 -44 -37 -102 -86 -130 -108 -147 -123
-496 -466 -663 -652 -154 -172 -411 -493 -493 -617 -13 -19 -72 -107 -130
-194 -58 -88 -114 -174 -125 -191 -10 -18 -47 -80 -81 -137 -35 -57 -63 -108
-63 -113 0 -5 -8 -19 -17 -33 -38 -51 -203 -371 -218 -422 -4 -12 -13 -30 -20
-38 -7 -8 -25 -46 -40 -85 -15 -38 -31 -75 -36 -81 -5 -6 -20 -42 -35 -80 -14
-38 -36 -91 -48 -119 -13 -27 -31 -75 -41 -105 -10 -30 -21 -59 -25 -65 -7
-10 -111 -328 -165 -505 -14 -47 -36 -133 -49 -192 -14 -59 -26 -111 -29 -115
-3 -4 -17 -69 -31 -143 -15 -74 -31 -151 -36 -170 -5 -19 -18 -100 -30 -180
-85 -588 -92 -1526 -15 -2125 34 -266 130 -727 190 -909 7 -22 27 -92 45 -155
17 -63 36 -121 40 -130 5 -9 23 -61 41 -116 17 -55 35 -104 39 -110 4 -5 17
-41 30 -80 12 -38 28 -79 35 -90 6 -11 18 -38 25 -60 7 -22 30 -77 51 -123 22
-45 39 -85 39 -88 0 -28 321 -650 363 -704 7 -8 21 -31 31 -50 54 -101 181
-292 338 -510 314 -436 670 -825 1078 -1181 206 -180 455 -375 600 -472 397
-265 419 -279 700 -430 214 -116 381 -198 480 -239 41 -16 80 -34 85 -38 6 -5
49 -23 95 -40 47 -16 96 -36 110 -44 14 -7 63 -26 110 -41 47 -16 90 -32 95
-35 6 -4 48 -20 95 -34 47 -15 94 -31 105 -36 11 -5 61 -21 110 -36 50 -14
133 -39 185 -55 90 -27 148 -42 350 -90 185 -44 482 -91 695 -108 390 -33
1125 -38 1577 -11 234 14 642 82 838 140 19 5 94 24 165 41 72 17 134 36 139
40 6 5 20 9 33 9 l23 0 0 655 0 655 -27 -10 c-16 -6 -37 -15 -48 -20 -24 -11
-241 -75 -345 -102 -550 -141 -996 -194 -1565 -185 -373 5 -604 27 -935 87
-216 39 -508 103 -545 120 -11 5 -72 23 -135 40 -63 18 -128 38 -145 45 -16 7
-55 21 -85 30 -63 21 -270 99 -315 120 -16 7 -55 23 -85 35 -96 37 -532 251
-560 275 -8 7 -40 25 -70 40 -29 15 -65 35 -80 45 -14 10 -59 39 -100 65 -250
158 -325 210 -507 351 -277 214 -702 643 -898 907 -27 37 -75 100 -106 140
-173 225 -415 625 -567 937 -12 25 -26 52 -31 60 -28 47 -97 195 -118 255 -14
39 -29 75 -34 80 -4 6 -20 44 -35 85 -14 41 -30 80 -34 85 -4 6 -22 55 -40
110 -18 55 -36 105 -40 110 -5 6 -16 38 -25 73 -9 35 -27 93 -40 130 -28 81
-59 195 -75 277 -6 33 -16 74 -21 90 -17 58 -49 252 -65 405 -14 128 -17 263
-17 775 1 782 12 972 74 1240 75 319 208 715 349 1035 78 177 95 214 159 339
140 276 147 288 323 556 411 629 892 1138 1474 1562 188 137 366 250 619 392
87 49 126 69 305 152 47 22 93 44 103 50 9 5 52 23 95 40 42 17 82 34 87 39 6
4 42 18 80 30 39 13 88 31 110 41 22 10 85 32 140 49 55 17 107 34 115 37 68
28 503 140 660 169 534 99 1549 101 2105 4 103 -18 143 -27 365 -79 144 -33
519 -146 585 -176 17 -7 66 -25 110 -41 44 -15 85 -31 90 -35 6 -4 35 -17 65
-29 130 -51 492 -230 615 -304 136 -82 172 -105 293 -185 493 -327 994 -787
1393 -1276 137 -167 408 -553 467 -665 13 -25 32 -56 41 -70 25 -37 73 -130
152 -290 103 -210 119 -245 119 -252 0 -4 13 -35 29 -70 17 -35 41 -99 55
-142 15 -44 30 -84 35 -90 4 -6 20 -51 35 -101 15 -49 34 -103 41 -120 29 -64
144 -482 185 -670 52 -238 70 -499 90 -1280 11 -461 29 -3125 38 -5850 l7
-2010 590 -137 c325 -75 596 -137 604 -138 11 0 12 377 7 2477 -5 1837 -22
5095 -28 5423 -20 1130 -41 1502 -102 1785 -40 184 -95 409 -106 430 -5 11
-19 58 -30 103 -12 46 -27 100 -35 120 -8 21 -26 77 -40 127 -15 49 -33 103
-40 120 -8 16 -26 66 -41 110 -14 44 -32 91 -40 105 -7 14 -25 59 -39 100 -14
41 -30 79 -34 85 -5 5 -18 36 -30 68 -12 32 -32 79 -46 105 -14 26 -25 51 -25
56 0 9 -198 410 -220 446 -5 8 -37 65 -71 125 -93 166 -141 244 -264 430 -448
681 -1010 1272 -1690 1776 -112 83 -118 87 -304 212 -141 94 -163 108 -368
225 -70 40 -135 77 -143 82 -50 32 -484 243 -553 269 -15 6 -46 19 -70 30 -62
28 -219 88 -322 123 -49 16 -104 36 -120 43 -56 25 -411 130 -635 187 -398
102 -554 126 -965 148 -202 11 -1514 22 -1570 14z"/>
<path d="M9495 14233 c-302 -14 -497 -41 -746 -104 -906 -227 -1776 -792
-2377 -1543 -387 -484 -698 -1107 -837 -1680 -88 -359 -110 -575 -110 -1086 1
-437 10 -564 61 -835 111 -582 373 -1191 730 -1691 184 -259 220 -299 704
-777 172 -170 571 -443 890 -610 221 -115 587 -265 726 -297 27 -7 58 -16 69
-21 71 -32 436 -108 650 -136 176 -23 845 -26 1045 -5 484 50 771 125 1225
318 l135 58 0 664 0 664 -27 -18 c-416 -275 -842 -433 -1348 -501 -186 -24
-726 -25 -909 0 -583 79 -1161 339 -1636 738 -609 510 -998 1231 -1116 2070
-25 176 -26 653 -1 826 86 607 306 1129 667 1583 165 207 439 468 660 626 426
307 912 506 1435 586 169 26 516 35 691 19 1027 -96 1901 -608 2449 -1436 218
-330 327 -573 485 -1081 l71 -229 9 -1735 c5 -954 12 -2710 16 -3903 l7 -2167
36 -10 c127 -33 1084 -250 1088 -246 2 2 8 386 13 853 23 2146 -2 6601 -40
7149 -23 341 -130 790 -277 1163 -335 851 -926 1582 -1688 2086 -485 321
-1071 562 -1565 644 -323 54 -835 81 -1185 64z"/>
</g>
</svg>
