<?xml version="1.0" ?><svg viewBox="0 0 32 32" xmlns="http://www.w3.org/2000/svg"><title/><g data-name="Layer 28" id="Layer_28"><path d="M13.09,15.65A5.49,5.49,0,0,0,9.5,6H3A1,1,0,0,0,2,7V25a1,1,0,0,0,1,1h7.5a5.5,5.5,0,0,0,2.59-10.35ZM4,8H9.5a3.5,3.5,0,0,1,0,7H4Zm6.5,16H4V17h6.5a3.5,3.5,0,0,1,0,7Z"/><path d="M23.5,13a6.5,6.5,0,0,0,0,13c4.05,0,5.33-2.26,5.38-2.35a1,1,0,0,0-.4-1.36,1,1,0,0,0-1.36.4S26.28,24,23.5,24a4.5,4.5,0,0,1-4.38-3.5H29a1,1,0,0,0,1-1A6.51,6.51,0,0,0,23.5,13Zm0,2a4.5,4.5,0,0,1,4.38,3.5H19.12A4.5,4.5,0,0,1,23.5,15Z"/><path d="M21,11h6a1,1,0,0,0,0-2H21a1,1,0,0,0,0,2Z"/></g></svg>