<?xml version="1.0" ?><svg viewBox="0 0 32 32" xmlns="http://www.w3.org/2000/svg"><title/><g data-name="Layer 35" id="Layer_35"><path d="M25,15.8c-.07-.34-.13-.7-.19-1.07l3.66-1.84a1,1,0,1,0-.9-1.78l-3.09,1.54C23.7,7.93,22.45,2,16,2S8.3,7.93,7.54,12.65L4.45,11.11a1,1,0,0,0-.9,1.78l3.66,1.84c-.06.37-.12.73-.19,1.07-.9,4.49-3.47,6.3-3.57,6.37a1,1,0,0,0-.26,1.41,8.27,8.27,0,0,0,2.36,2.31A3.91,3.91,0,0,0,8.82,26a1.93,1.93,0,0,1,1.73-.06,4.13,4.13,0,0,1,1.38,1.5C12.7,28.56,13.67,30,16,30s3.3-1.44,4.07-2.61a4.13,4.13,0,0,1,1.38-1.5,1.93,1.93,0,0,1,1.73.06,3.91,3.91,0,0,0,3.27-.06,8.27,8.27,0,0,0,2.36-2.31,1,1,0,0,0,.17-.76,1,1,0,0,0-.42-.65C28.45,22.1,25.88,20.29,25,15.8Zm.57,8.31a1.93,1.93,0,0,1-1.73-.06,3.91,3.91,0,0,0-3.27.06,5.72,5.72,0,0,0-2.14,2.18C17.66,27.41,17.21,28,16,28s-1.66-.59-2.41-1.71a5.72,5.72,0,0,0-2.14-2.18,3.91,3.91,0,0,0-3.27-.06,1.93,1.93,0,0,1-1.73.06,4.71,4.71,0,0,1-1.07-1A13,13,0,0,0,9,16.2c.15-.77.28-1.61.42-2.48C10.29,8,11.28,4,16,4s5.71,4,6.6,9.72c.14.87.27,1.71.42,2.48a13,13,0,0,0,3.6,6.94A4.71,4.71,0,0,1,25.55,24.11Z"/></g></svg>