<?xml version="1.0" ?><svg viewBox="0 0 32 32" xmlns="http://www.w3.org/2000/svg"><title/><g data-name="Layer 41" id="Layer_41"><path d="M11,8a1,1,0,0,0-1,1V23a1,1,0,0,0,2,0V9A1,1,0,0,0,11,8Z"/><path d="M7,12a1,1,0,0,0-1,1V23a1,1,0,0,0,2,0V13A1,1,0,0,0,7,12Z"/><path d="M3,16a1,1,0,0,0-1,1v6a1,1,0,0,0,2,0V17A1,1,0,0,0,3,16Z"/><path d="M25,14h-.26A8.05,8.05,0,0,0,17,8H15a1,1,0,0,0-1,1V23a1,1,0,0,0,1,1H25a5,5,0,0,0,0-10Zm0,8H16V10h1a6,6,0,0,1,5.93,5.14,1,1,0,0,0,1,.86H25a3,3,0,0,1,0,6Z"/></g></svg>