<?xml version="1.0" ?><svg viewBox="0 0 32 32" xmlns="http://www.w3.org/2000/svg"><title/><g data-name="Layer 37" id="Layer_37"><path d="M16,2A14,14,0,1,0,30,16,14,14,0,0,0,16,2Zm0,26A12,12,0,1,1,28,16,12,12,0,0,1,16,28Z"/><path d="M20.24,20.15a11,11,0,0,0-4.63-1.59,10.48,10.48,0,0,0-4.81.6A1,1,0,0,0,11.49,21a8.53,8.53,0,0,1,3.91-.49,9,9,0,0,1,3.79,1.3,1,1,0,0,0,1.38-.33A1,1,0,0,0,20.24,20.15Z"/><path d="M21.88,16.39a13.89,13.89,0,0,0-6-2.06,13.47,13.47,0,0,0-6.2.78,1,1,0,0,0,.7,1.88,11.62,11.62,0,0,1,5.29-.68,12.07,12.07,0,0,1,5.12,1.78,1,1,0,0,0,.53.15,1,1,0,0,0,.52-1.85Z"/><path d="M23.53,12.61a17.31,17.31,0,0,0-7.31-2.52,16.59,16.59,0,0,0-7.57,1,1,1,0,1,0,.7,1.88A14.73,14.73,0,0,1,16,12.08a15.26,15.26,0,0,1,6.45,2.23,1,1,0,0,0,.53.15,1,1,0,0,0,.85-.47A1,1,0,0,0,23.53,12.61Z"/></g></svg>