<?xml version="1.0" ?><svg viewBox="0 0 32 32" xmlns="http://www.w3.org/2000/svg"><title/><g data-name="Layer 3" id="Layer_3"><path d="M13.35,28A13.66,13.66,0,0,1,2.18,22.16a1,1,0,0,1,.69-1.56l2.84-.39A12,12,0,0,1,5.44,4.35a1,1,0,0,1,1.7.31,9.87,9.87,0,0,0,5.33,5.68,7.39,7.39,0,0,1,7.24-6.15,7.29,7.29,0,0,1,5.88,3H29a1,1,0,0,1,.9.56,1,1,0,0,1-.11,1.06L27,12.27c0,.14,0,.28-.05.41a12.46,12.46,0,0,1,.09,1.43A13.82,13.82,0,0,1,13.35,28ZM4.9,22.34A11.63,11.63,0,0,0,13.35,26,11.82,11.82,0,0,0,25.07,14.11,11.42,11.42,0,0,0,25,12.77a1.11,1.11,0,0,1,0-.26c0-.22.05-.43.06-.65a1,1,0,0,1,.22-.58l1.67-2.11H25.06a1,1,0,0,1-.85-.47,5.3,5.3,0,0,0-4.5-2.51,5.41,5.41,0,0,0-5.36,5.45,1.07,1.07,0,0,1-.4.83,1,1,0,0,1-.87.2A11.83,11.83,0,0,1,6,7,10,10,0,0,0,8.57,20.12a1,1,0,0,1,.37,1.05,1,1,0,0,1-.83.74Z"/></g></svg>