<?xml version="1.0" ?><svg viewBox="0 0 32 32" xmlns="http://www.w3.org/2000/svg"><title/><g data-name="Layer 11" id="Layer_11"><path d="M29.73,9.9A5,5,0,0,0,25.1,5.36a115.19,115.19,0,0,0-18.2,0A5,5,0,0,0,2.27,9.9a69,69,0,0,0,0,12.2A5,5,0,0,0,6.9,26.64c3,.24,6.06.36,9.1.36s6.08-.12,9.1-.36a5,5,0,0,0,4.63-4.54A69,69,0,0,0,29.73,9.9Zm-2,12A3,3,0,0,1,25,24.65a113.8,113.8,0,0,1-17.9,0,3,3,0,0,1-2.78-2.72,65.26,65.26,0,0,1,0-11.86A3,3,0,0,1,7.05,7.35C10,7.12,13,7,16,7s6,.12,9,.35a3,3,0,0,1,2.78,2.72A65.26,65.26,0,0,1,27.73,21.93Z"/><path d="M21.45,15.11l-8-4A1,1,0,0,0,12,12v8a1,1,0,0,0,.47.85A1,1,0,0,0,13,21a1,1,0,0,0,.45-.11l8-4a1,1,0,0,0,0-1.78ZM14,18.38V13.62L18.76,16Z"/></g></svg>