<?xml version="1.0" encoding="UTF-8"?>
<svg xmlns="http://www.w3.org/2000/svg" id="Layer_1" data-name="Layer 1" viewBox="0 0 24 24" width="512" height="512"><path d="m23,21h-8.633l8.174-8.205c1.939-1.946,1.939-5.113,0-7.06l-3.254-3.265c-.945-.948-2.203-1.47-3.541-1.47s-2.597.522-3.54,1.468L1.459,13.175c-1.939,1.946-1.939,5.113,0,7.059l1.583,1.589c.745.748,1.777,1.177,2.834,1.177h17.124c.553,0,1-.448,1-1s-.447-1-1-1ZM13.62,3.882c.567-.569,1.322-.882,2.126-.882s1.558.313,2.125.882l3.254,3.265c1.163,1.167,1.163,3.068,0,4.236l-4.97,4.989-7.509-7.534,4.974-4.955Zm-7.744,17.118c-.536,0-1.039-.209-1.417-.588l-1.584-1.589c-1.163-1.167-1.163-3.067-.002-4.232l4.357-4.341,7.514,7.54-3.199,3.211h-5.669Z"/></svg>
