<?xml version="1.0" encoding="UTF-8"?>
<svg xmlns="http://www.w3.org/2000/svg" id="Layer_1" data-name="Layer 1" viewBox="0 0 24 24">
  <path d="m22.926,6.264c1.43-1.432,1.43-3.759,0-5.188-1.43-1.432-3.76-1.432-5.189,0L6.8,12.011c-1.509-.083-3.045.451-4.196,1.601C1.103,15.114.255,19.353.017,21.383c-.084.713.158,1.412.664,1.918.439.44,1.025.681,1.64.681.093,0,.186-.006.278-.017.241-.028,5.938-.718,7.789-2.569,1.15-1.15,1.683-2.686,1.6-4.195l10.938-10.937ZM6.806,12.011h0s.001-.001,0,0Zm2.167,7.97c-.854.854-4.095,1.701-6.609,1.997-.135.021-.228-.05-.27-.092-.041-.041-.108-.131-.092-.271.294-2.502,1.174-5.747,2.016-6.59.684-.683,1.58-1.024,2.478-1.024s1.794.342,2.478,1.024c1.366,1.366,1.366,3.589,0,4.955Zm1.414-6.369c-.411-.411-.872-.744-1.363-.997L19.15,2.489c.65-.65,1.711-.65,2.361,0s.65,1.709,0,2.36l-10.127,10.126c-.254-.491-.586-.952-.997-1.363Z"/>
  <path d="m4.722,9.91c.195.195.451.293.707.293s.512-.098.707-.293c.391-.391.391-1.023,0-1.414l-3.646-3.646c-.651-.651-.651-1.71,0-2.361.651-.65,1.711-.65,2.36,0l3.646,3.647c.391.391,1.023.391,1.414,0s.391-1.023,0-1.414l-3.646-3.647C4.832-.355,2.505-.355,1.075,1.074s-1.431,3.759,0,5.189l3.646,3.646Z"/>
  <path d="m22.242,17.054l-2.955-2.956c-.391-.391-1.023-.391-1.414,0s-.391,1.023,0,1.414l2.955,2.956c.745.744,1.172,1.774,1.172,2.828v.704h-.703c-1.069,0-2.074-.416-2.829-1.172l-2.956-2.955c-.391-.391-1.023-.391-1.414,0s-.391,1.023,0,1.414l2.956,2.955c1.132,1.134,2.64,1.758,4.243,1.758h1.703c.553,0,1-.447,1-1v-1.704c0-1.58-.641-3.127-1.758-4.242Z"/>
</svg>
