<svg xmlns="http://www.w3.org/2000/svg" version="1.0" width="24px" height="24px" viewBox="0 0 4267.000000 4267.000000" preserveAspectRatio="xMidYMid meet">

<g transform="translate(0.000000,4267.000000) scale(0.100000,-0.100000)" fill="#000000" stroke="none">
<path d="M13090 23445 c-417 -61 -779 -222 -1091 -484 -382 -320 -638 -765 -731 -1271 -29 -159 -32 -523 -5 -684 158 -939 884 -1647 1824 -1782 145 -20 424 -20 573 1 446 63 854 260 1175 566 367 351 593 802 655 1309 13 109 13 361 0 470 -58 475 -262 905 -589 1244 -338 349 -793 575 -1281 636 -112 13 -424 11 -530 -5z"/>
<path d="M21046 23444 c-891 -121 -1616 -800 -1800 -1684 -56 -269 -56 -572 0 -850 145 -718 669 -1326 1361 -1576 786 -284 1653 -88 2244 508 519 524 732 1292 554 1999 -172 682 -661 1234 -1315 1484 -129 50 -335 101 -475 120 -142 18 -431 18 -569 -1z"/>
<path d="M29036 23449 c-485 -63 -942 -295 -1282 -651 -163 -171 -274 -333 -380 -553 -141 -295 -204 -574 -204 -910 0 -336 63 -614 204 -910 110 -230 219 -387 396 -569 410 -423 946 -649 1535 -648 338 1 630 69 930 217 520 256 904 696 1086 1245 143 434 146 875 8 1307 -107 334 -274 608 -524 858 -343 345 -761 549 -1258 615 -93 12 -413 11 -511 -1z"/>
</g>
</svg>