<?xml version="1.0" standalone="no"?>
<!DOCTYPE svg PUBLIC "-//W3C//DTD SVG 20010904//EN"
 "http://www.w3.org/TR/2001/REC-SVG-20010904/DTD/svg10.dtd">
<svg version="1.0" xmlns="http://www.w3.org/2000/svg"
 width="2000.000000pt" height="2000.000000pt" viewBox="0 0 2000.000000 2000.000000"
 preserveAspectRatio="xMidYMid meet">

<g transform="translate(0.000000,2000.000000) scale(0.100000,-0.100000)"
fill="#000000" stroke="none">
<path d="M15814 18445 c-82 -22 -196 -81 -236 -122 -90 -93 -150 -202 -172
-313 -25 -124 -31 -205 -46 -630 -6 -157 -16 -303 -21 -324 -6 -22 -25 -54
-43 -72 -56 -56 -59 -56 -576 -74 -419 -15 -464 -21 -573 -77 -103 -53 -221
-162 -260 -240 -42 -82 -67 -199 -67 -312 0 -137 33 -237 115 -346 91 -121
167 -168 336 -209 133 -32 244 -43 614 -61 165 -8 318 -19 340 -26 51 -14 100
-65 114 -115 6 -21 15 -165 21 -319 17 -453 33 -623 71 -722 34 -92 164 -235
254 -281 138 -71 162 -77 305 -76 134 0 135 0 219 37 189 85 308 225 345 405
21 102 35 229 47 422 34 588 29 548 78 600 20 21 53 43 76 49 22 7 173 19 335
26 372 18 479 29 610 61 117 29 198 67 266 127 53 47 128 156 155 226 43 115
42 308 -3 428 -68 183 -246 339 -422 372 -68 13 -324 28 -661 40 -132 5 -258
15 -280 21 -52 16 -100 66 -115 118 -6 23 -15 115 -20 205 -41 714 -45 752
-111 887 -56 113 -131 184 -256 245 -50 25 -115 50 -144 55 -73 14 -235 11
-295 -5z"/>
<path d="M8655 16904 c-239 -8 -487 -26 -580 -43 -116 -22 -343 -81 -400 -106
-22 -9 -70 -28 -107 -41 -97 -35 -342 -156 -420 -206 -173 -112 -352 -273
-547 -494 -170 -193 -234 -277 -307 -404 -20 -36 -47 -81 -60 -100 -12 -19
-32 -57 -45 -85 -12 -27 -39 -86 -60 -130 -20 -44 -45 -109 -55 -145 -9 -36
-21 -73 -26 -82 -19 -39 -42 -208 -58 -427 -26 -361 -33 -989 -39 -3301 -6
-2433 -6 -2435 -27 -2470 -26 -45 -75 -77 -127 -85 -43 -6 -164 26 -346 90
-78 28 -254 78 -356 101 -116 26 -330 45 -515 45 -185 0 -399 -19 -515 -45
-121 -28 -287 -76 -348 -101 -34 -15 -86 -35 -114 -45 -110 -39 -420 -208
-478 -260 -11 -9 -29 -22 -41 -28 -45 -24 -194 -149 -298 -250 -192 -188 -377
-430 -452 -591 -15 -31 -32 -63 -40 -71 -14 -17 -92 -189 -124 -275 -116 -314
-157 -578 -147 -959 7 -267 38 -489 91 -646 8 -25 24 -76 36 -114 31 -99 101
-262 174 -401 192 -366 467 -666 826 -901 131 -87 161 -104 270 -160 203 -104
309 -145 531 -204 178 -49 617 -74 879 -51 156 14 355 46 408 66 20 7 78 25
129 39 144 40 411 159 538 241 28 17 64 40 80 50 46 28 202 146 284 217 90 76
258 260 351 383 243 324 453 786 480 1055 29 304 43 1312 61 4315 16 2958 27
3825 50 4205 17 283 35 354 123 500 85 141 108 171 219 283 166 167 347 291
467 317 30 7 73 18 95 25 63 21 358 34 1000 45 700 12 1190 27 1335 41 138 13
291 44 337 68 110 56 243 249 273 396 16 74 16 234 2 295 -33 136 -176 296
-337 375 -87 44 -94 45 -230 56 -130 10 -1610 20 -1840 13z m-3911 -9100 c189
-33 310 -71 443 -139 161 -83 201 -113 339 -251 249 -251 377 -541 391 -889
11 -253 -31 -464 -128 -654 -73 -142 -98 -179 -212 -306 -113 -127 -226 -222
-347 -291 -111 -62 -198 -94 -348 -126 -142 -31 -456 -33 -596 -5 -253 51
-412 139 -635 352 -274 262 -413 583 -415 960 -1 174 29 353 85 505 27 72 104
220 137 264 15 19 47 62 71 95 256 346 791 560 1215 485z"/>
<path d="M15839 11370 c-170 -22 -374 -224 -433 -430 -30 -104 -39 -606 -45
-2525 -6 -1853 -6 -1860 -27 -1895 -27 -46 -75 -77 -132 -86 -51 -8 -65 -4
-457 127 -312 105 -853 123 -1290 43 -44 -8 -96 -21 -115 -28 -19 -8 -75 -26
-125 -41 -194 -58 -507 -216 -665 -336 -14 -10 -45 -33 -70 -51 -117 -83 -384
-341 -473 -458 -68 -88 -200 -285 -241 -361 -60 -108 -145 -301 -176 -396 -17
-54 -38 -114 -45 -133 -51 -129 -103 -573 -91 -780 12 -228 57 -527 91 -610 8
-19 24 -69 36 -110 11 -41 36 -109 54 -150 18 -41 48 -109 66 -150 18 -41 43
-90 56 -109 13 -18 23 -38 23 -44 0 -5 24 -46 53 -91 30 -44 62 -94 72 -111
42 -68 208 -267 302 -361 85 -84 195 -178 334 -283 56 -43 200 -128 317 -188
230 -118 440 -189 687 -233 318 -58 858 -48 1089 20 119 35 267 86 346 119 83
35 294 142 345 175 18 11 59 38 92 59 373 239 695 602 895 1007 155 312 234
590 257 905 20 265 31 1546 31 3770 0 2205 -9 3198 -30 3291 -15 65 -76 184
-125 245 -62 74 -147 141 -212 166 -94 36 -262 50 -394 33z m-1712 -5920 c26
-5 95 -19 153 -31 219 -44 387 -118 534 -235 88 -70 264 -249 318 -324 89
-124 155 -257 183 -370 54 -223 56 -536 5 -750 -22 -94 -33 -123 -97 -255 -63
-130 -165 -258 -304 -383 -122 -109 -174 -144 -318 -216 -304 -152 -647 -179
-986 -77 -84 25 -279 122 -354 177 -92 67 -219 183 -276 252 -91 112 -99 124
-158 228 -64 114 -96 204 -138 389 -24 108 -29 152 -29 262 0 117 4 150 34
275 52 215 73 266 170 423 187 303 546 540 921 610 50 9 106 20 125 25 50 11
160 12 217 0z"/>
</g>
</svg>
