<svg xmlns="http://www.w3.org/2000/svg" viewBox="0 0 260 37.056" width="133" height="22" stroke-width="0" style="color: rgb(64, 64, 64); direction: ltr;"><g fill="currentColor"><path d="M17.737 11.678a9.29 9.29 0 0 1 7.41 3.682l5.658-5.12C27.75 6.424 23.08 4.314 17.3 4.314 7.32 4.314 0 11.094 0 20.66s7.32 16.345 17.3 16.345c5.792 0 10.462-2.1 13.516-5.927l-5.658-5.12a9.29 9.29 0 0 1-7.41 3.682c-5.163 0-8.756-3.592-8.756-8.98s3.592-8.98 8.756-8.98zm32.107 12.08c0 4.086-2.065 5.748-4.58 5.748-2.56 0-4.04-1.482-4.04-5.254V12.038H32.7v13.606c0 7.724 4.356 11.136 10.328 11.136a9.59 9.59 0 0 0 7.229-3.009v2.6h2.864a5.264 5.264 0 0 0 5.264-5.264v-19.07h-8.532zm31.748 12.618h3.268a5.264 5.264 0 0 0 5.263-5.264V12.038H81.6zm58.958-12.618c0 4.086-2.065 5.748-4.58 5.748-2.56 0-4.04-1.482-4.04-5.254V12.038h-8.532v13.606c0 7.724 4.356 11.136 10.328 11.136a9.59 9.59 0 0 0 7.229-3.009v2.6h2.864a5.264 5.264 0 0 0 5.264-5.264v-19.07h-8.532zm28.73-1.502c-4.1-1.326-9.2-.847-9.2-2.854 0-.9 1.033-1.706 3.907-1.706a14.43 14.43 0 0 1 4.975.872v-.04a21.66 21.66 0 0 1 .886-6.2 25.55 25.55 0 0 0-5.9-.693c-7.634 0-11.855 3.5-11.855 8.083 0 9.744 14.37 6.017 14.37 9.295.005.208-.042.414-.135.6-.158.307-.7 1.088-3.682 1.065a19.35 19.35 0 0 1-6.335-1.2 30.85 30.85 0 0 1-4.737-2.105l.013 3.425a5.26 5.26 0 0 0 3.844 5.051 26.54 26.54 0 0 0 6.946.933c5.994 0 9.813-2.017 11.3-4.95a19.75 19.75 0 0 1-4.407-9.578z"></path><rect width="9.071" height="9.071" rx="4.535" x="81.323" y="0.273"></rect><path d="M106.828 11.634c-7.948 0-13.74 5.2-13.74 12.528 0 7.365 5.792 12.618 13.74 12.618 8.038 0 13.74-5.254 13.74-12.618 0-7.32-5.703-12.528-13.74-12.528zm0 18.365c-2.874 0-5.12-2.1-5.12-5.838 0-3.682 2.245-5.747 5.12-5.747 2.918 0 5.12 2.065 5.12 5.747.001 3.728-2.2 5.838-5.12 5.838zM79.122 11.63v2.93a5.284 5.284 0 0 1-3.7 4.97 5.985 5.985 0 0 0-3.327 2.574 5.71 5.71 0 0 0-.74 3.088v5.917a5.27 5.27 0 0 1-1.54 3.723 5.25 5.25 0 0 1-3.723 1.54h-3.268V12.03h8.127v2.92c1.75-2.2 4.58-3.32 8.17-3.32z"></path></g><path d="M171.07 18.528C171.07 7.686 179.37 0 190.67 0c6.566 0 11.86 2.392 15.32 6.72l-6.414 5.8a10.53 10.53 0 0 0-8.4-4.174c-5.854 0-9.926 4.072-9.926 10.18s4.073 10.18 9.926 10.18a10.53 10.53 0 0 0 8.4-4.174l6.414 5.8c-3.46 4.327-8.755 6.72-15.32 6.72-11.303.005-19.6-7.68-19.6-18.523zm88.903 12.968a5.21 5.21 0 0 1-4.482 5.166 18.01 18.01 0 0 1-2.264.14c-7.076 0-11.147-3.46-11.147-10.536V2.596h9.67v7.177H258v1.26A5.97 5.97 0 0 1 252.044 17h-.295v9.16a3.017 3.017 0 0 0 .76 2.317 3.01 3.01 0 0 0 2.226.995 7.88 7.88 0 0 0 5.264-1.579l-.028 3.603zM237.14 8.755v21.623c0 1.583-.63 3.1-1.748 4.22a5.96 5.96 0 0 1-4.22 1.748h-3.246v-2.75c-1.832 2.2-4.53 3.207-8.145 3.207-7.483 0-13.54-5.5-13.54-14.3 0-8.755 6.057-14.2 13.54-14.2 2.847-.16 5.633.873 7.687 2.85V8.76zM227.62 22.5c0-4.173-2.545-6.515-5.8-6.515s-5.8 2.342-5.8 6.515c0 4.225 2.545 6.617 5.8 6.617s5.8-2.393 5.8-6.618z" fill="#de7c00"></path></svg>