<?xml version="1.0" standalone="no"?>
<!DOCTYPE svg PUBLIC "-//W3C//DTD SVG 20010904//EN"
 "http://www.w3.org/TR/2001/REC-SVG-20010904/DTD/svg10.dtd">
<svg version="1.0" xmlns="http://www.w3.org/2000/svg"
 width="512.000000pt" height="512.000000pt" viewBox="0 0 512.000000 512.000000"
 preserveAspectRatio="xMidYMid meet">

<g transform="translate(0.000000,512.000000) scale(0.100000,-0.100000)"
fill="#000000" stroke="none">
<path d="M1620 4034 c-173 -75 -161 -342 18 -394 26 -8 474 -10 1478 -8 l1441
3 39 27 c21 15 50 44 64 65 21 31 25 48 25 113 0 65 -4 82 -25 113 -14 21 -43
50 -64 65 l-39 27 -1451 2 c-1280 2 -1455 1 -1486 -13z"/>
<path d="M539 2747 c-24 -13 -57 -43 -74 -66 -27 -39 -30 -50 -30 -120 0 -68
3 -82 27 -117 15 -21 44 -50 65 -64 l37 -25 1996 0 1996 0 37 25 c21 14 50 43
65 64 24 35 27 49 27 116 0 67 -3 81 -27 116 -15 21 -44 50 -65 64 l-37 25
-1986 3 -1987 2 -44 -23z"/>
<path d="M2459 1467 c-24 -13 -57 -43 -74 -66 -27 -39 -30 -50 -30 -120 0 -68
3 -82 27 -117 15 -21 44 -50 65 -64 l37 -25 1036 0 1036 0 37 25 c21 14 50 43
65 64 24 35 27 49 27 116 0 67 -3 81 -27 116 -15 21 -44 50 -65 64 l-37 25
-1026 3 -1026 2 -45 -23z"/>
</g>
</svg>
