<?xml version="1.0" standalone="no"?>
<!DOCTYPE svg PUBLIC "-//W3C//DTD SVG 20010904//EN"
 "http://www.w3.org/TR/2001/REC-SVG-20010904/DTD/svg10.dtd">
<svg version="1.0" xmlns="http://www.w3.org/2000/svg"
 width="512.000000pt" height="512.000000pt" viewBox="0 0 512.000000 512.000000"
 preserveAspectRatio="xMidYMid meet">

<g transform="translate(0.000000,512.000000) scale(0.100000,-0.100000)"
fill="#000000" stroke="none">
<path d="M2495 4786 c-41 -18 -83 -69 -91 -110 -3 -19 -4 -84 -2 -144 2 -93 6
-115 24 -138 39 -53 71 -69 134 -69 63 0 95 16 134 69 19 25 21 42 21 166 0
151 -5 167 -67 213 -33 25 -113 32 -153 13z"/>
<path d="M1025 4176 c-41 -18 -83 -69 -91 -111 -13 -74 1 -104 99 -202 99 -98
128 -113 204 -98 49 9 109 69 118 118 14 73 -1 105 -88 195 -107 111 -162 133
-242 98z"/>
<path d="M3970 4179 c-31 -12 -176 -154 -196 -191 -21 -39 -18 -117 6 -156 28
-46 76 -72 133 -72 65 0 89 14 184 112 87 89 102 122 89 193 -17 91 -127 149
-216 114z"/>
<path d="M2085 3967 c-208 -78 -372 -183 -530 -342 -210 -210 -344 -456 -407
-748 -32 -148 -32 -428 0 -574 129 -595 561 -1027 1156 -1155 146 -31 427 -31
573 0 512 111 922 465 1093 947 23 66 30 101 27 132 -6 58 -45 107 -103 129
-45 17 -49 17 -136 -4 -311 -76 -597 -39 -866 113 -215 121 -405 338 -495 565
-94 238 -109 468 -46 727 22 88 22 92 5 137 -40 105 -124 127 -271 73z m-93
-466 c-5 -78 11 -237 33 -347 111 -533 539 -980 1070 -1114 125 -32 309 -54
408 -48 37 1 67 1 67 -1 0 -16 -109 -151 -175 -216 -438 -436 -1147 -445
-1593 -21 -472 448 -482 1189 -22 1646 47 47 114 104 149 128 35 23 65 42 65
42 1 0 0 -31 -2 -69z"/>
<path d="M415 2706 c-97 -43 -124 -171 -54 -251 42 -47 84 -57 221 -53 126 3
147 11 192 72 29 39 29 133 0 172 -46 62 -65 69 -202 72 -91 1 -136 -2 -157
-12z"/>
<path d="M4415 2706 c-97 -43 -124 -171 -54 -251 42 -47 84 -57 221 -53 99 2
121 6 144 24 53 39 69 71 69 134 0 63 -16 95 -69 134 -24 18 -44 21 -154 24
-91 1 -136 -2 -157 -12z"/>
<path d="M1125 1341 c-16 -10 -65 -54 -107 -98 -82 -85 -97 -118 -83 -190 9
-49 69 -109 118 -118 73 -14 105 1 195 88 96 94 112 119 112 178 0 118 -138
200 -235 140z"/>
<path d="M3855 1346 c-41 -18 -83 -69 -91 -111 -13 -74 1 -104 99 -202 99 -98
128 -113 204 -98 49 9 109 69 118 118 14 73 -1 105 -88 195 -107 111 -162 133
-242 98z"/>
<path d="M2495 786 c-41 -18 -83 -69 -91 -110 -3 -19 -4 -84 -2 -144 3 -120
12 -142 72 -186 39 -29 133 -29 172 0 64 47 69 63 69 214 0 151 -5 167 -67
213 -33 25 -113 32 -153 13z"/>
</g>
</svg>
