<?xml version="1.0" standalone="no"?>
<!DOCTYPE svg PUBLIC "-//W3C//DTD SVG 20010904//EN"
 "http://www.w3.org/TR/2001/REC-SVG-20010904/DTD/svg10.dtd">
<svg version="1.0" xmlns="http://www.w3.org/2000/svg"
 width="1280.000000pt" height="1280.000000pt" viewBox="0 0 1280.000000 1280.000000"
 preserveAspectRatio="xMidYMid meet">

<g transform="translate(0.000000,1280.000000) scale(0.100000,-0.100000)"
fill="#000000" stroke="none">
<path d="M6100 8510 c-118 -19 -159 -29 -220 -51 -93 -33 -189 -122 -234 -213
-125 -259 22 -560 306 -626 60 -14 89 -12 293 15 99 13 138 14 225 4 413 -44
747 -313 870 -698 114 -359 14 -744 -263 -1014 -96 -93 -177 -145 -342 -217
-132 -58 -417 -80 -572 -44 -400 91 -694 383 -784 779 -14 59 -17 209 -9 425
3 100 2 109 -29 181 -89 212 -326 321 -544 250 -83 -26 -127 -54 -187 -114
-105 -105 -145 -256 -145 -542 1 -717 405 -1360 1055 -1683 122 -61 143 -69
260 -108 80 -26 108 -33 265 -65 147 -30 494 -30 650 -1 118 23 257 57 290 72
11 5 47 18 80 30 342 122 691 403 911 734 56 83 174 313 174 338 0 8 4 18 9
24 18 20 75 232 102 379 18 93 18 467 0 560 -27 147 -84 359 -102 380 -5 5 -9
15 -9 22 0 13 -73 167 -113 238 -117 210 -297 415 -498 571 -394 304 -956 450
-1439 374z"/>
<path d="M5268 523 c7 -3 16 -2 19 1 4 3 -2 6 -13 5 -11 0 -14 -3 -6 -6z"/>
<path d="M5218 513 c6 -2 18 -2 25 0 6 3 1 5 -13 5 -14 0 -19 -2 -12 -5z"/>
<path d="M5178 503 c7 -3 16 -2 19 1 4 3 -2 6 -13 5 -11 0 -14 -3 -6 -6z"/>
<path d="M5138 493 c7 -3 16 -2 19 1 4 3 -2 6 -13 5 -11 0 -14 -3 -6 -6z"/>
</g>
</svg>
