<svg xmlns="http://www.w3.org/2000/svg" xmlns:xlink="http://www.w3.org/1999/xlink" width="24px" height="24px" viewBox="0 0 24 24" version="1.1">
    <title>Iconly/Broken/More Circle</title>
    <g id="Iconly/Broken/More-Circle" stroke="none" stroke-width="1" fill="none" fill-rule="evenodd">
        <g id="More-Circle" transform="translate(2.000200, 1.999800)" fill="#000000" fill-rule="nonzero">
            <path d="M5.5202,8.804 C6.1812,8.804 6.7182,9.341 6.7182,10 C6.7182,10.66 6.1812,11.197 5.5202,11.197 C4.8602,11.197 4.3222,10.66 4.3222,10 C4.3222,9.341 4.8602,8.804 5.5202,8.804 Z M9.9997,8.804 C10.6597,8.804 11.1977,9.341 11.1977,10 C11.1977,10.66 10.6597,11.197 9.9997,11.197 C9.3387,11.197 8.8017,10.66 8.8017,10 C8.8017,9.341 9.3387,8.804 9.9997,8.804 Z M14.4787,8.804 C15.1397,8.804 15.6767,9.341 15.6767,10 C15.6767,10.66 15.1397,11.197 14.4787,11.197 C13.8187,11.197 13.2807,10.66 13.2807,10 C13.2807,9.341 13.8187,8.804 14.4787,8.804 Z"/>

        </g>
    </g>
</svg>