<?xml version="1.0" encoding="UTF-8"?>
<svg xmlns="http://www.w3.org/2000/svg" id="Layer_1" data-name="Layer 1" viewBox="0 0 24 24" width="512" height="512"><path d="m22.575,10.152c-.866-.358-1.854-.163-2.517.5l-.438.438c-.433-1.044-1.21-1.91-2.189-2.458.965-.912,1.568-2.203,1.568-3.633,0-2.757-2.243-5-5-5-1.634,0-3.087.788-4,2.003-.913-1.216-2.366-2.003-4-2.003C3.243,0,1,2.243,1,5c0,1.429.603,2.721,1.568,3.633-1.531.856-2.568,2.493-2.568,4.367v6c0,2.757,2.243,5,5,5h10c2.081,0,3.869-1.278,4.621-3.09l.438.438c.443.443,1.031.678,1.63.678.298,0,.599-.058.886-.177.866-.358,1.425-1.196,1.425-2.133v-7.429c0-.938-.56-1.775-1.425-2.133ZM14,2c1.654,0,3,1.346,3,3s-1.346,3-3,3-3-1.346-3-3,1.346-3,3-3Zm-8,0c1.654,0,3,1.346,3,3s-1.346,3-3,3-3-1.346-3-3,1.346-3,3-3Zm12,17c0,1.654-1.346,3-3,3H5c-1.654,0-3-1.346-3-3v-6c0-1.654,1.346-3,3-3h10c1.654,0,3,1.346,3,3v6Zm4,.714c0,.171-.104.25-.191.286-.086.036-.215.054-.337-.067l-1.472-1.472v-4.922l1.472-1.472c.122-.121.251-.103.337-.067.087.036.191.115.191.286v7.429Z"/></svg>
