<?xml version="1.0" standalone="no"?>
<!DOCTYPE svg PUBLIC "-//W3C//DTD SVG 20010904//EN"
 "http://www.w3.org/TR/2001/REC-SVG-20010904/DTD/svg10.dtd">
<svg version="1.0" xmlns="http://www.w3.org/2000/svg"
 width="2000.000000pt" height="2000.000000pt" viewBox="0 0 2000.000000 2000.000000"
 preserveAspectRatio="xMidYMid meet">

<g transform="translate(0.000000,2000.000000) scale(0.100000,-0.100000)"
fill="#000000" stroke="none">
<path d="M9775 18334 c-2160 -70 -4149 -928 -5665 -2444 -1922 -1921 -2781
-4622 -2325 -7307 184 -1081 582 -2114 1175 -3048 164 -257 349 -512 418 -577
143 -132 352 -187 541 -143 343 81 547 442 438 775 -19 58 -46 112 -87 170
-189 272 -308 452 -387 585 -553 926 -871 1900 -979 3000 -21 217 -30 847 -15
1085 51 828 234 1604 557 2365 87 204 285 596 398 790 879 1497 2272 2630
3906 3175 472 158 960 265 1455 319 286 32 465 41 795 41 330 0 509 -9 795
-41 2089 -230 3981 -1391 5150 -3159 688 -1040 1079 -2204 1165 -3458 13 -194
13 -732 0 -922 -47 -681 -183 -1337 -406 -1952 -809 -2235 -2691 -3934 -4989
-4504 -329 -81 -693 -143 -1055 -180 -218 -22 -867 -30 -1108 -15 -773 50
-1514 217 -2192 493 -311 127 -323 130 -435 136 -178 8 -325 -48 -450 -172
-122 -122 -180 -260 -178 -431 1 -207 98 -388 269 -502 101 -67 581 -256 934
-366 1209 -380 2499 -478 3758 -287 2302 350 4364 1664 5669 3611 827 1235
1288 2597 1394 4119 25 355 13 934 -27 1340 -217 2215 -1336 4270 -3089 5676
-1341 1076 -2974 1707 -4690 1813 -182 12 -591 20 -740 15z"/>
<path d="M7975 13295 c-208 -46 -379 -202 -446 -407 l-24 -73 2 -2797 c3
-3107 -3 -2860 70 -3002 52 -101 164 -211 263 -260 310 -151 670 -28 817 279
70 148 66 -84 58 2985 -7 2649 -8 2768 -26 2838 -27 108 -73 186 -159 273
-148 148 -352 209 -555 164z"/>
<path d="M11795 13304 c-112 -24 -199 -62 -283 -125 -104 -79 -188 -216 -218
-359 -14 -68 -15 -336 -9 -2840 7 -2650 8 -2768 26 -2838 27 -108 73 -186 159
-273 187 -188 456 -231 699 -112 105 52 212 159 264 264 75 153 70 -95 63
2994 -5 2427 -8 2778 -21 2834 -51 214 -243 400 -460 446 -66 14 -175 18 -220
9z"/>
</g>
</svg>
