<?xml version="1.0" standalone="no"?>
<!DOCTYPE svg PUBLIC "-//W3C//DTD SVG 20010904//EN"
 "http://www.w3.org/TR/2001/REC-SVG-20010904/DTD/svg10.dtd">
<svg version="1.0" xmlns="http://www.w3.org/2000/svg"
 width="512.000000pt" height="512.000000pt" viewBox="0 0 512.000000 512.000000"
 preserveAspectRatio="xMidYMid meet">

<g transform="translate(0.000000,512.000000) scale(0.100000,-0.100000)"
fill="#000000" stroke="none">
<path d="M1129 4930 c-240 -41 -510 -188 -661 -361 -119 -137 -206 -300 -255
-475 l-28 -99 0 -1435 0 -1435 28 -100 c38 -141 130 -319 219 -429 144 -177
368 -322 593 -384 l100 -27 1042 -3 c1154 -3 1082 -7 1123 61 39 63 17 165
-42 199 -18 10 -227 14 -1043 18 -1018 6 -1020 6 -1100 28 -305 85 -530 311
-617 617 l-23 80 0 1375 0 1375 23 80 c87 306 311 530 617 617 l80 23 1375 0
1375 0 80 -22 c305 -86 531 -313 617 -618 22 -80 22 -82 28 -1100 4 -816 8
-1025 18 -1043 34 -59 136 -81 199 -42 68 41 64 -31 61 1123 l-3 1042 -28 100
c-33 122 -117 296 -188 390 -177 236 -446 400 -729 445 -77 12 -2789 12 -2861
0z"/>
<path d="M2720 3774 c-62 -53 -60 -27 -60 -664 0 -319 -2 -580 -5 -580 -3 0
-29 13 -58 29 -96 54 -188 76 -317 75 -102 0 -125 -4 -201 -30 -216 -76 -379
-253 -434 -469 -19 -76 -19 -232 1 -315 42 -180 171 -342 345 -432 90 -47 183
-68 297 -68 180 0 332 62 462 190 62 61 86 93 124 170 76 155 76 154 76 921 0
368 2 669 5 669 3 0 24 -12 47 -26 97 -61 257 -114 348 -114 84 0 140 57 140
142 0 51 -28 101 -67 121 -15 8 -61 22 -101 31 -150 33 -276 124 -367 265 -55
85 -92 111 -157 111 -36 0 -54 -6 -78 -26z m-277 -1461 c83 -39 141 -97 180
-181 29 -60 32 -77 32 -157 0 -82 -3 -97 -33 -157 -74 -151 -231 -233 -393
-207 -292 47 -415 400 -215 617 111 120 281 154 429 85z"/>
<path d="M4005 1726 c-41 -18 -73 -56 -85 -97 -6 -19 -10 -121 -10 -226 l0
-193 -192 0 c-106 0 -210 -5 -230 -10 -45 -13 -95 -68 -104 -115 -9 -50 29
-124 76 -147 30 -15 65 -18 242 -18 l207 0 3 -212 c3 -193 5 -216 23 -248 54
-93 188 -91 245 2 18 30 20 51 20 246 l0 212 213 0 c194 0 215 2 245 20 100
61 94 203 -11 250 -37 17 -66 20 -244 20 l-203 0 0 205 c0 227 -6 256 -57 293
-39 28 -100 36 -138 18z"/>
</g>
</svg>
