<?xml version="1.0" standalone="no"?>
<!DOCTYPE svg PUBLIC "-//W3C//DTD SVG 20010904//EN"
 "http://www.w3.org/TR/2001/REC-SVG-20010904/DTD/svg10.dtd">
<svg version="1.0" xmlns="http://www.w3.org/2000/svg"
 width="512.000000pt" height="512.000000pt" viewBox="0 0 512.000000 512.000000"
 preserveAspectRatio="xMidYMid meet">

<g transform="translate(0.000000,512.000000) scale(0.100000,-0.100000)"
fill="#000000" stroke="none">
<path d="M2488 5099 c-23 -12 -46 -35 -58 -59 -19 -36 -20 -58 -20 -312 0
-247 2 -277 19 -308 29 -55 64 -75 131 -75 67 0 102 20 131 75 17 31 19 61 19
308 0 254 -1 276 -20 312 -37 73 -127 99 -202 59z"/>
<path d="M795 4400 c-11 -4 -33 -22 -49 -39 -40 -42 -48 -124 -18 -173 12 -18
103 -115 204 -215 149 -148 190 -183 223 -192 113 -30 214 72 184 184 -9 32
-45 75 -182 214 -211 213 -235 231 -296 230 -25 0 -55 -4 -66 -9z"/>
<path d="M4174 4381 c-21 -16 -116 -107 -211 -202 -139 -141 -173 -182 -182
-214 -30 -113 72 -214 184 -184 32 9 76 46 223 192 101 100 192 197 204 215
25 41 22 125 -8 165 -46 63 -145 76 -210 28z"/>
<path d="M2335 3815 c-456 -85 -837 -415 -985 -855 -79 -235 -80 -553 -3 -789
146 -449 536 -787 997 -866 116 -20 318 -19 436 1 462 79 847 416 994 869 76
234 76 536 0 770 -118 365 -387 653 -744 799 -143 59 -241 77 -435 82 -131 2
-202 -1 -260 -11z m485 -315 c336 -99 591 -358 682 -692 20 -71 23 -107 23
-248 0 -141 -3 -177 -23 -248 -92 -336 -355 -601 -688 -693 -57 -15 -118 -23
-217 -26 -150 -6 -212 2 -341 43 -303 97 -542 347 -637 669 -21 71 -24 100
-24 255 0 153 3 185 23 254 90 311 323 561 619 665 122 43 179 51 348 47 129
-3 175 -8 235 -26z"/>
<path d="M78 2689 c-43 -22 -78 -81 -78 -129 0 -50 35 -107 80 -130 36 -19 58
-20 312 -20 300 0 317 3 363 64 28 38 28 134 0 172 -46 61 -62 64 -365 64
-254 -1 -278 -2 -312 -21z"/>
<path d="M4420 2691 c-55 -29 -75 -64 -75 -131 0 -67 20 -102 75 -131 31 -17
61 -19 308 -19 254 0 276 1 312 20 45 23 80 80 80 130 0 50 -35 107 -80 130
-36 19 -58 20 -312 20 -247 0 -277 -2 -308 -19z"/>
<path d="M1146 1335 c-29 -10 -89 -63 -218 -192 -99 -98 -188 -193 -200 -211
-16 -26 -19 -44 -16 -88 4 -47 10 -61 41 -91 30 -31 44 -37 91 -41 43 -3 62 0
88 16 18 12 115 103 215 204 148 150 183 190 192 224 31 117 -79 220 -193 179z"/>
<path d="M3877 1336 c-51 -19 -73 -40 -92 -91 -14 -35 -15 -49 -5 -86 10 -37
38 -70 183 -218 95 -95 190 -186 211 -202 65 -48 164 -35 210 28 21 29 32 98
22 140 -8 30 -362 395 -406 418 -42 21 -83 25 -123 11z"/>
<path d="M2494 766 c-17 -7 -42 -29 -55 -47 -24 -34 -24 -37 -27 -316 -3 -268
-2 -284 18 -322 23 -46 80 -81 130 -81 50 0 107 35 130 80 19 36 20 58 20 312
0 247 -2 277 -19 308 -10 19 -30 43 -44 54 -33 24 -112 31 -153 12z"/>
</g>
</svg>
