<?xml version="1.0" standalone="no"?>
<!DOCTYPE svg PUBLIC "-//W3C//DTD SVG 20010904//EN"
 "http://www.w3.org/TR/2001/REC-SVG-20010904/DTD/svg10.dtd">
<svg version="1.0" xmlns="http://www.w3.org/2000/svg"
 width="1280.000000pt" height="1280.000000pt" viewBox="0 0 1280.000000 1280.000000"
 preserveAspectRatio="xMidYMid meet">

<g transform="translate(0.000000,1280.000000) scale(0.100000,-0.100000)"
fill="#000000" stroke="none">
<path d="M4785 11879 c-195 -33 -319 -96 -453 -229 -143 -143 -255 -352 -360
-676 -39 -121 -77 -249 -92 -309 -36 -147 -109 -329 -186 -462 -40 -70 -185
-86 -789 -87 -344 -1 -483 -5 -520 -14 -27 -7 -81 -20 -120 -29 -158 -37 -312
-120 -417 -224 -180 -180 -250 -402 -222 -700 6 -68 21 -164 34 -214 22 -90
94 -332 110 -370 4 -11 15 -42 25 -70 9 -27 20 -59 25 -70 4 -11 18 -44 29
-73 56 -136 111 -377 111 -481 l0 -57 -97 -95 c-125 -121 -154 -145 -345 -272
-521 -350 -721 -556 -813 -842 -27 -82 -29 -103 -30 -230 0 -138 4 -163 43
-275 91 -257 319 -483 834 -824 154 -102 204 -142 331 -265 l77 -76 0 -60 c0
-90 -45 -306 -89 -427 -10 -29 -38 -105 -61 -168 -73 -201 -128 -389 -161
-550 -26 -128 -28 -369 -4 -461 72 -272 237 -454 504 -556 80 -31 105 -37 251
-65 107 -20 148 -22 580 -23 458 -1 577 -8 664 -37 37 -12 43 -21 102 -135 57
-113 109 -257 164 -458 123 -444 261 -734 432 -904 172 -172 416 -257 618
-217 129 26 152 32 264 71 134 46 282 119 399 197 73 48 174 124 197 148 62
64 265 221 352 270 87 51 237 120 259 120 22 0 164 -66 254 -119 77 -45 142
-92 285 -206 287 -229 539 -385 710 -440 30 -10 66 -22 78 -26 13 -5 68 -15
123 -21 250 -29 471 53 655 243 94 98 208 285 264 434 7 18 30 78 50 130 8 20
30 89 77 240 14 44 35 121 48 170 36 141 77 245 156 400 46 89 47 90 95 103
140 35 243 41 689 40 463 -2 481 -1 684 48 72 18 87 23 188 70 314 145 485
470 443 847 -11 99 -44 266 -71 352 -35 116 -104 318 -139 410 -24 61 -46 124
-50 140 -5 17 -17 62 -28 100 -24 90 -39 172 -47 260 l-7 70 99 99 c81 81 288
246 309 246 10 0 367 258 424 306 30 25 78 66 107 90 98 84 235 264 285 374
48 105 61 164 65 305 3 88 0 157 -7 185 -6 25 -14 56 -17 70 -3 14 -27 70 -53
125 -121 249 -338 443 -951 849 -20 14 -87 73 -149 133 l-112 108 6 80 c8 94
22 174 48 270 11 39 23 84 28 101 4 18 10 37 14 43 36 57 190 542 217 681 38
195 35 407 -6 536 -31 96 -38 111 -90 194 -114 180 -306 305 -550 358 -27 6
-75 17 -105 24 -40 9 -186 13 -530 14 -381 1 -495 5 -575 18 -146 23 -167 31
-189 68 -68 121 -143 293 -166 383 -35 136 -119 418 -140 470 -5 11 -21 54
-36 95 -70 194 -189 395 -293 497 -182 180 -406 261 -638 232 -240 -29 -458
-138 -808 -402 -66 -50 -145 -111 -175 -137 -106 -89 -232 -170 -355 -227 -27
-13 -58 -28 -67 -33 -39 -22 -86 -10 -213 55 -70 35 -157 86 -193 112 -62 43
-160 120 -172 134 -3 3 -67 51 -142 107 -343 255 -536 353 -763 388 -100 15
-137 16 -210 3z m3371 -4596 c127 -42 219 -141 258 -275 21 -74 20 -129 -4
-207 -36 -120 -75 -162 -319 -343 -46 -35 -123 -92 -171 -128 -48 -36 -135
-101 -195 -145 -59 -44 -113 -85 -119 -90 -22 -20 -1442 -1082 -1486 -1111
-87 -58 -125 -69 -235 -68 -171 1 -134 -28 -778 613 -308 306 -576 579 -596
606 -55 73 -75 148 -69 254 4 69 11 99 34 146 37 75 103 142 180 180 52 26 71
30 165 33 101 4 108 2 175 -29 64 -30 100 -63 491 -453 233 -231 429 -424 437
-428 9 -5 72 36 196 130 279 209 367 275 470 352 145 108 272 204 441 331 254
190 269 201 359 269 48 36 135 101 195 145 59 44 113 85 119 90 34 30 126 93
156 106 19 9 46 21 60 27 39 17 179 14 236 -5z"/>
</g>
</svg>
