<?xml version="1.0" standalone="no"?>
<!DOCTYPE svg PUBLIC "-//W3C//DTD SVG 20010904//EN"
 "http://www.w3.org/TR/2001/REC-SVG-20010904/DTD/svg10.dtd">
<svg version="1.0" xmlns="http://www.w3.org/2000/svg"
 width="1280.000000pt" height="1280.000000pt" viewBox="0 0 1280.000000 1280.000000"
 preserveAspectRatio="xMidYMid meet">

<g transform="translate(0.000000,1280.000000) scale(0.100000,-0.100000)"
fill="#000000" stroke="none">
<path d="M6915 10146 c-82 -26 -161 -82 -294 -208 -170 -161 -217 -200 -313
-254 -56 -32 -70 -35 -134 -35 -62 0 -78 5 -133 36 -35 19 -69 35 -76 35 -7 0
-15 3 -17 8 -5 11 -147 112 -158 112 -5 0 -15 9 -22 20 -7 11 -16 20 -21 20
-4 0 -45 24 -90 53 -100 66 -122 77 -214 106 l-73 23 -65 -32 c-98 -49 -155
-119 -215 -265 -4 -11 -15 -38 -25 -60 -27 -66 -31 -76 -70 -175 -43 -111 -74
-179 -92 -200 -7 -8 -27 -33 -45 -54 -68 -81 -182 -104 -378 -75 -69 10 -174
26 -233 34 -163 24 -340 12 -396 -28 -78 -54 -105 -162 -97 -377 3 -85 10
-173 16 -195 13 -53 13 -282 0 -290 -5 -3 -10 -15 -10 -26 0 -11 -7 -34 -16
-51 -19 -36 -108 -128 -124 -128 -6 0 -33 -11 -60 -25 -27 -14 -56 -25 -65
-25 -8 0 -23 -4 -33 -9 -21 -11 -120 -41 -136 -41 -17 0 -137 -38 -158 -50
-10 -6 -24 -10 -32 -10 -27 0 -189 -90 -222 -124 -25 -25 -37 -50 -44 -86 -5
-29 -12 -55 -15 -59 -8 -15 16 -125 40 -176 12 -27 30 -67 39 -87 9 -20 21
-40 26 -43 6 -3 10 -13 10 -22 0 -9 10 -30 23 -47 13 -17 34 -50 47 -73 13
-24 27 -43 32 -43 4 0 8 -11 8 -24 0 -14 4 -27 9 -30 5 -3 20 -29 34 -58 78
-166 76 -261 -8 -373 -26 -34 -163 -175 -171 -175 -5 0 -101 -89 -187 -174
-109 -108 -137 -163 -145 -278 -4 -65 -2 -79 12 -84 9 -3 16 -15 16 -26 0 -10
25 -45 55 -76 30 -31 55 -60 55 -64 0 -5 6 -8 14 -8 8 0 16 -3 18 -7 5 -13
115 -92 145 -105 15 -7 34 -21 41 -30 7 -10 18 -18 24 -18 10 0 100 -62 126
-87 7 -7 16 -13 20 -13 22 -1 108 -99 140 -159 19 -37 15 -187 -7 -246 -10
-28 -27 -72 -36 -100 -10 -27 -24 -61 -31 -75 -7 -14 -19 -44 -27 -65 -8 -22
-27 -71 -41 -110 -15 -38 -34 -90 -42 -115 -15 -50 -19 -216 -5 -225 5 -3 12
-18 16 -34 4 -20 22 -40 58 -65 29 -20 57 -36 63 -36 6 0 26 -8 45 -17 19 -9
52 -20 74 -25 22 -4 76 -14 120 -23 44 -8 116 -20 160 -25 44 -6 100 -13 125
-16 25 -3 63 -14 86 -25 22 -10 49 -19 60 -19 11 0 43 -16 73 -36 88 -59 122
-157 141 -405 23 -302 34 -384 65 -453 56 -130 151 -169 335 -136 30 5 72 12
93 16 20 3 40 10 43 15 3 5 12 9 21 9 8 0 29 6 46 14 18 7 57 19 87 26 30 7
89 24 130 37 57 19 99 25 175 25 97 2 101 1 147 -30 25 -18 64 -54 86 -80 37
-45 112 -157 112 -168 0 -3 16 -30 35 -60 19 -30 35 -59 35 -64 0 -5 16 -35
36 -66 19 -30 33 -62 30 -69 -3 -8 0 -12 7 -10 7 2 32 -24 56 -59 43 -61 86
-98 145 -123 41 -19 145 -16 182 5 18 9 48 25 67 35 19 10 53 34 75 53 22 19
43 34 46 34 3 0 27 21 53 48 56 55 203 188 253 229 19 15 37 30 40 33 16 18
126 60 158 60 89 0 248 -71 332 -147 14 -13 30 -23 37 -23 6 0 13 -3 15 -8 5
-11 157 -114 202 -137 22 -11 48 -26 57 -34 46 -37 184 -61 243 -41 60 19 206
178 206 223 0 7 11 37 25 65 14 29 25 58 25 66 0 8 9 31 20 53 11 21 37 83 59
139 54 136 84 186 141 237 76 68 172 81 370 51 52 -8 176 -24 275 -36 175 -21
182 -21 240 -4 87 26 115 37 115 47 0 4 9 16 19 26 11 10 29 47 41 82 19 59
21 78 16 225 -17 488 -17 539 -7 549 6 6 11 17 11 24 0 37 149 173 189 173 12
0 39 9 60 19 21 11 68 27 106 36 37 8 100 26 139 39 39 13 85 27 101 31 43 9
163 68 210 102 47 35 95 124 95 177 0 35 -15 111 -30 151 -22 59 -124 251
-157 297 -21 29 -44 67 -52 83 -8 17 -24 50 -36 75 -13 25 -30 76 -40 115 -25
101 -16 150 46 238 54 79 108 141 126 148 11 4 150 128 223 199 54 52 121 140
141 185 13 27 19 64 19 113 0 66 -3 78 -34 126 -36 56 -133 156 -152 156 -6 0
-19 9 -29 20 -10 11 -22 20 -27 20 -4 0 -39 21 -76 48 -37 26 -74 52 -83 57
-98 61 -200 146 -212 178 -3 9 -11 17 -17 17 -20 0 -52 93 -52 150 0 58 22
148 52 215 9 22 26 65 36 95 10 30 30 82 45 115 36 79 59 146 59 170 0 11 7
38 14 60 25 72 22 129 -11 205 -22 50 -48 76 -113 109 -81 42 -196 68 -465
102 -49 7 -123 22 -164 35 -40 13 -77 24 -83 24 -5 0 -25 16 -45 35 -20 19
-40 35 -44 35 -14 0 -57 93 -69 151 -12 57 -21 138 -39 379 -15 194 -18 212
-74 327 -58 122 -229 139 -505 52 -94 -30 -159 -51 -177 -58 -64 -27 -239 -46
-312 -35 -38 6 -56 16 -103 63 -53 53 -140 170 -140 190 0 5 -7 14 -15 21 -7
6 -25 33 -38 58 -61 121 -99 188 -113 198 -8 6 -14 18 -14 26 0 23 -125 145
-172 168 -47 23 -104 25 -163 6z m1087 -2191 c7 -9 33 -35 57 -58 33 -32 360
-361 380 -382 2 -2 -53 -61 -123 -130 -69 -69 -126 -130 -126 -135 0 -6 -4
-10 -9 -10 -13 0 -391 -378 -391 -390 0 -6 -4 -10 -10 -10 -5 0 -254 -245
-552 -545 -299 -299 -547 -549 -553 -554 -149 -149 -769 -763 -789 -781 l-27
-24 -32 31 c-18 18 -74 75 -126 128 -52 52 -101 95 -108 95 -7 0 -13 5 -13 11
0 13 -347 359 -360 359 -6 0 -10 5 -10 11 0 15 -164 179 -179 179 -6 0 -11 5
-11 10 0 15 -344 360 -358 360 -7 0 -12 6 -12 13 0 8 -18 28 -40 46 -22 17
-40 40 -40 49 0 9 53 68 119 132 65 63 168 164 229 223 l110 108 341 -343
c187 -189 346 -347 352 -353 6 -5 34 -34 63 -62 33 -34 60 -53 75 -53 17 0 58
35 144 120 67 66 127 120 135 120 7 0 11 4 8 9 -6 9 36 53 145 157 24 23 118
117 208 208 90 91 167 163 172 160 5 -3 9 1 9 9 0 15 1287 1307 1301 1307 5 0
14 -7 21 -15z"/>
</g>
</svg>
