<?xml version="1.0" standalone="no"?>
<!DOCTYPE svg PUBLIC "-//W3C//DTD SVG 20010904//EN"
 "http://www.w3.org/TR/2001/REC-SVG-20010904/DTD/svg10.dtd">
<svg version="1.0" xmlns="http://www.w3.org/2000/svg"
 width="1280.000000pt" height="1280.000000pt" viewBox="0 0 1280.000000 1280.000000"
 preserveAspectRatio="xMidYMid meet">

<g transform="translate(0.000000,1280.000000) scale(0.100000,-0.100000)"
fill="#000000" stroke="none">
<path d="M6290 11503 c-153 -10 -335 -78 -487 -180 -89 -60 -199 -169 -899
-890 l-109 -113 -685 0 c-729 0 -754 -1 -902 -50 -314 -104 -574 -364 -678
-678 -49 -148 -50 -173 -50 -902 l0 -685 -108 -105 c-59 -58 -251 -244 -427
-415 -175 -170 -341 -333 -368 -362 -129 -136 -213 -296 -263 -498 -24 -98
-24 -352 0 -450 46 -183 107 -312 210 -440 22 -27 246 -257 498 -510 l458
-461 0 -674 c0 -718 0 -725 51 -882 31 -96 61 -160 115 -244 50 -78 59 -89
149 -179 126 -127 282 -220 445 -266 147 -42 140 -42 867 -46 l702 -4 67 -72
c98 -106 675 -700 764 -787 152 -149 305 -236 526 -297 77 -21 375 -24 449 -4
102 27 151 43 203 67 29 13 55 24 57 24 3 0 47 26 98 57 82 51 142 106 572
534 l480 478 685 4 c709 4 706 4 860 47 69 19 197 79 275 129 90 58 248 216
306 306 50 78 110 206 129 275 43 154 43 151 47 860 l4 685 478 480 c428 430
483 490 534 572 31 51 57 95 57 98 0 2 11 28 24 57 24 52 40 102 67 203 18 68
18 362 0 430 -19 72 -49 162 -74 220 -47 113 -169 279 -278 379 -30 28 -198
190 -374 361 -176 172 -346 335 -377 364 l-57 52 -4 702 c-4 727 -4 720 -46
867 -97 342 -388 631 -731 723 -131 36 -160 37 -838 37 l-676 0 -461 458
c-253 252 -482 476 -510 498 -127 101 -258 165 -430 207 -63 16 -253 27 -345
20z m1419 -3769 c225 -53 371 -199 425 -425 9 -36 16 -84 16 -108 0 -49 -28
-181 -41 -195 -5 -6 -9 -16 -9 -24 0 -51 -123 -181 -927 -982 -759 -756 -844
-838 -903 -867 -100 -49 -136 -57 -260 -57 -114 0 -142 6 -241 48 -66 28 -136
90 -495 441 -198 193 -385 375 -418 405 -94 88 -153 178 -190 294 -21 65 -21
207 0 272 59 185 173 302 363 375 50 19 244 17 301 -3 137 -49 156 -64 438
-349 l213 -214 649 652 c594 597 654 654 716 685 129 63 246 80 363 52z"/>
</g>
</svg>
