<?xml version="1.0" standalone="no"?>
<!DOCTYPE svg PUBLIC "-//W3C//DTD SVG 20010904//EN"
 "http://www.w3.org/TR/2001/REC-SVG-20010904/DTD/svg10.dtd">
<svg version="1.0" xmlns="http://www.w3.org/2000/svg"
 width="3000.000000pt" height="3000.000000pt" viewBox="0 0 3000.000000 3000.000000"
 preserveAspectRatio="xMidYMid meet">

<g transform="translate(0.000000,3000.000000) scale(0.100000,-0.100000)"
fill="#000000" stroke="none">
<path d="M24230 29075 c-59 -16 -145 -53 -195 -83 -44 -27 -932 -913 -1625
-1622 -244 -250 -523 -535 -619 -632 -96 -98 -178 -182 -181 -188 -3 -6 -85
-90 -181 -188 -96 -97 -305 -312 -464 -477 -160 -165 -364 -376 -455 -470 -91
-93 -289 -298 -440 -455 -151 -157 -341 -352 -421 -435 -80 -82 -206 -213
-279 -290 -191 -201 -877 -912 -1054 -1095 -83 -85 -205 -211 -271 -280 -494
-515 -1182 -1222 -1745 -1793 -273 -277 -686 -673 -829 -795 -51 -43 -129
-101 -172 -127 -135 -81 -218 -74 -381 36 -205 138 -621 511 -1508 1354 -156
148 -336 319 -400 379 -63 60 -167 159 -230 220 -63 62 -167 161 -230 221 -63
61 -232 223 -375 360 -484 466 -759 731 -900 865 -77 74 -212 204 -300 289
-89 86 -217 210 -285 276 -69 65 -181 173 -250 240 -69 66 -229 219 -355 340
-126 121 -347 332 -490 470 -143 137 -265 254 -271 260 -7 5 -52 48 -100 95
-49 48 -192 184 -319 305 -126 120 -282 269 -345 330 -63 61 -248 237 -410
390 -162 154 -383 363 -490 465 -358 340 -1169 1101 -1434 1345 -302 277 -357
313 -539 346 -75 14 -153 4 -225 -29 -102 -45 -264 -197 -311 -290 -49 -97
-46 -209 18 -694 27 -202 94 -494 201 -873 65 -234 194 -590 330 -915 194
-465 391 -863 645 -1305 173 -302 323 -536 563 -880 100 -142 245 -327 355
-451 239 -269 1404 -1446 2253 -2274 555 -542 995 -971 1134 -1105 85 -82 218
-210 295 -284 77 -74 210 -203 295 -286 86 -82 209 -202 275 -264 66 -63 183
-176 260 -250 77 -75 183 -177 235 -226 353 -336 505 -481 735 -699 143 -135
260 -250 260 -256 0 -5 -621 -631 -1380 -1392 -2918 -2926 -3574 -3599 -4031
-4138 -252 -297 -392 -494 -621 -870 -464 -762 -693 -1290 -629 -1444 69 -165
270 -371 3450 -3551 2562 -2562 2994 -2991 3756 -3736 406 -397 408 -399 510
-471 36 -26 128 -101 205 -168 290 -253 317 -275 485 -398 147 -107 220 -154
319 -203 103 -51 156 -63 251 -56 66 4 94 12 172 49 222 106 594 390 958 732
121 114 480 474 580 581 46 50 108 112 139 139 126 109 1156 1131 3067 3041
2517 2516 3058 3065 3490 3540 288 316 394 469 394 567 0 238 -378 1005 -845
1714 -269 408 -380 546 -860 1064 -374 404 -1087 1145 -1735 1805 -721 733
-1013 1027 -2100 2118 -646 648 -1175 1182 -1175 1187 0 8 243 263 600 630
439 451 702 724 1145 1190 117 124 273 286 344 360 72 74 221 230 330 345 110
116 243 255 296 310 103 107 670 703 779 820 37 38 98 103 137 145 38 41 185
197 325 345 139 149 306 326 369 395 63 69 178 193 255 275 77 83 201 217 275
300 74 82 160 177 191 210 113 122 412 467 543 625 189 229 417 581 681 1050
114 203 365 714 448 910 36 85 79 189 97 230 44 103 191 495 228 605 27 83 73
227 117 365 9 30 25 87 35 125 10 39 30 113 44 165 43 158 78 307 106 450 81
406 103 550 120 764 15 192 -13 354 -79 457 -58 92 -209 205 -319 239 -72 23
-171 25 -242 5z m-8961 -13426 c105 -91 821 -799 2166 -2140 2036 -2032 2425
-2427 2700 -2744 95 -109 206 -270 224 -324 14 -44 14 -148 0 -192 -41 -119
-255 -378 -649 -784 -379 -391 -3007 -3020 -3410 -3411 -802 -779 -953 -890
-1143 -841 -156 41 -365 218 -1087 922 -358 348 -2782 2776 -3131 3135 -495
508 -665 697 -769 851 -150 225 -122 329 183 677 278 315 687 733 2257 2302
1747 1747 2590 2580 2613 2580 5 0 26 -14 46 -31z"/>
</g>
</svg>
