<?xml version="1.0" standalone="no"?>
<!DOCTYPE svg PUBLIC "-//W3C//DTD SVG 20010904//EN"
 "http://www.w3.org/TR/2001/REC-SVG-20010904/DTD/svg10.dtd">
<svg version="1.0" xmlns="http://www.w3.org/2000/svg" viewBox="0 0 4167.000000 4167.000000"
 preserveAspectRatio="xMidYMid meet">

<g transform="translate(0.000000,4167.000000) scale(0.100000,-0.100000)"
fill="#000000" stroke="none">
<path d="M13880 32383 c-48 -8 -125 -36 -161 -59 -59 -37 -155 -131 -191 -187
-32 -50 -33 -56 -37 -168 -12 -405 126 -1070 351 -1694 265 -734 655 -1493
1090 -2122 157 -227 225 -312 416 -521 46 -50 78 -93 72 -97 -13 -8 217 -245
1627 -1670 468 -473 1098 -1103 1400 -1400 l550 -540 -1496 -1505 c-3085
-3103 -3281 -3311 -3643 -3860 -340 -516 -630 -1068 -699 -1329 -32 -123 -27
-157 30 -243 54 -78 235 -283 439 -493 70 -71 822 -830 1673 -1685 2727 -2743
5225 -5204 5400 -5322 35 -23 53 -28 103 -28 61 0 182 27 224 49 23 12 167
136 267 231 802 755 2313 2245 4485 4425 1379 1385 1802 1812 2119 2145 486
510 631 694 631 800 -1 248 -520 1229 -961 1815 -115 153 -448 527 -724 815
-66 69 -205 215 -310 325 -547 576 -1176 1215 -2661 2706 l-1171 1177 1176
1178 c1725 1729 2365 2381 2367 2413 1 11 51 73 112 140 218 238 347 403 514
656 539 822 972 1808 1187 2707 91 378 134 641 135 828 1 192 -30 278 -140
379 -75 69 -158 114 -241 131 -113 24 -272 -36 -393 -146 -356 -326 -906 -866
-3177 -3119 -3055 -3032 -3229 -3195 -3408 -3195 -179 0 -353 163 -3408 3195
-2058 2042 -2390 2370 -2877 2835 -314 301 -367 348 -421 376 -45 22 -191 65
-213 63 -6 -1 -22 -4 -36 -6z m7885 -11151 c818 -809 2489 -2480 2846 -2847
167 -171 379 -400 470 -505 254 -296 263 -395 62 -645 -194 -241 -449 -503
-1998 -2052 -1809 -1808 -2007 -1995 -2208 -2089 -157 -73 -279 0 -767 459
-265 249 -2787 2768 -3135 3132 -597 623 -677 733 -644 885 26 121 223 355
798 945 336 345 3046 3050 3364 3358 l277 268 28 -19 c15 -11 423 -411 907
-890z"/>
</g>
</svg>
