<?xml version="1.0" standalone="no"?>
<!DOCTYPE svg PUBLIC "-//W3C//DTD SVG 20010904//EN"
 "http://www.w3.org/TR/2001/REC-SVG-20010904/DTD/svg10.dtd">
<svg version="1.0" xmlns="http://www.w3.org/2000/svg"
 width="1024.000000pt" height="1024.000000pt" viewBox="0 0 1024.000000 1024.000000"
 preserveAspectRatio="xMidYMid meet">

<g transform="translate(0.000000,1024.000000) scale(0.100000,-0.100000)"
fill="#000000" stroke="none">
<path d="M2395 10222 c-71 -24 -110 -55 -134 -105 -52 -107 -5 -187 150 -256
93 -42 243 -129 285 -164 l26 -23 -118 -53 c-132 -60 -569 -276 -703 -348
-466 -251 -1035 -583 -1174 -686 -414 -306 -524 -683 -267 -921 145 -133 350
-204 659 -226 127 -9 143 -8 241 14 248 57 386 113 845 345 439 222 621 292
865 335 47 9 150 29 230 45 355 72 677 95 1580 111 744 13 791 16 912 51 333
98 522 278 584 554 24 107 24 291 0 405 -66 313 -265 559 -581 717 -206 104
-468 175 -778 213 -101 12 -288 1 -531 -31 -370 -49 -826 -165 -1221 -309
l-136 -50 -31 38 c-17 20 -76 81 -131 134 -113 111 -222 175 -353 208 -94 24
-153 25 -219 2z"/>
<path d="M5984 8020 c-90 -45 -223 -89 -306 -100 -35 -5 -297 -14 -583 -20
-1207 -23 -1403 -38 -1920 -141 -403 -80 -467 -104 -985 -363 -354 -177 -556
-265 -690 -302 -80 -22 -101 -34 -134 -83 -171 -246 -61 -751 224 -1033 72
-71 84 -90 185 -285 591 -1140 1133 -1687 1815 -1830 127 -27 390 -24 527 5
654 140 1215 711 1781 1811 110 213 119 228 189 294 124 118 227 299 279 492
23 85 27 121 27 235 1 146 -15 216 -68 299 -74 118 -212 151 -332 81 -18 -11
-33 -18 -33 -16 0 2 12 35 26 72 58 152 88 297 99 479 6 106 -8 386 -22 420
-8 19 -11 19 -79 -15z"/>
<path d="M9825 6307 c-1011 -503 -1769 -1003 -2299 -1518 -342 -332 -625 -672
-879 -1057 -313 -474 -564 -956 -793 -1522 l-82 -205 -156 -12 c-338 -26 -559
-98 -727 -237 -141 -116 -224 -265 -344 -616 -43 -124 -97 -266 -122 -315
-108 -221 -248 -345 -481 -426 l-93 -32 38 -39 c21 -22 75 -64 119 -94 222
-148 499 -226 804 -226 292 -1 541 72 770 225 94 63 281 250 342 342 153 232
254 514 293 820 9 72 18 144 21 161 4 30 16 38 187 129 711 380 1208 703 1642
1067 342 286 686 649 950 1003 458 613 848 1356 1148 2185 59 163 71 206 71
260 1 52 -4 73 -23 103 -31 51 -87 86 -147 93 -47 6 -58 1 -239 -89z m-2630
-2644 c106 -231 303 -458 523 -605 l53 -35 -88 -70 c-230 -183 -544 -397 -869
-591 -199 -119 -585 -334 -591 -328 -5 5 106 283 166 416 134 294 346 683 518
952 116 181 232 348 241 348 4 -1 25 -40 47 -87z"/>
<path d="M1940 4061 c-468 -157 -1187 -428 -1338 -505 -28 -14 -81 -37 -119
-51 -146 -55 -282 -148 -352 -239 -175 -229 -172 -514 9 -881 82 -167 155
-281 275 -430 382 -474 888 -939 1376 -1263 635 -422 1237 -641 1888 -688 l95
-6 -60 49 c-148 124 -199 214 -192 338 10 162 101 259 288 309 145 40 248 123
314 253 19 39 65 155 101 259 118 339 177 467 285 614 59 80 163 181 251 243
172 121 458 219 687 234 45 3 89 11 97 17 8 6 66 133 129 283 164 389 373 793
589 1135 37 58 67 110 67 115 0 12 -648 241 -836 296 l-51 15 -37 -111 c-145
-441 -439 -786 -841 -985 -616 -305 -1386 -196 -1867 266 -231 222 -345 425
-456 810 -7 22 -11 21 -302 -77z"/>
</g>
</svg>
