<?xml version="1.0" standalone="no"?>
<!DOCTYPE svg PUBLIC "-//W3C//DTD SVG 20010904//EN"
 "http://www.w3.org/TR/2001/REC-SVG-20010904/DTD/svg10.dtd">
<svg version="1.0" xmlns="http://www.w3.org/2000/svg"
 width="1024.000000pt" height="1024.000000pt" viewBox="0 0 1024.000000 1024.000000"
 preserveAspectRatio="xMidYMid meet">

<g transform="translate(0.000000,1024.000000) scale(0.100000,-0.100000)"
fill="#000000" stroke="none">
<path d="M4780 10099 c-524 -58 -1011 -263 -1440 -608 -123 -99 -330 -300
-439 -426 -531 -616 -881 -1435 -995 -2324 -9 -69 -17 -125 -19 -126 -30 -16
-154 -125 -214 -189 -218 -230 -323 -462 -323 -716 0 -91 2 -100 22 -114 12
-9 26 -16 31 -16 4 0 63 53 131 118 116 111 290 242 322 242 11 0 14 -16 14
-72 0 -153 41 -519 81 -724 l20 -106 -57 -70 c-290 -359 -444 -793 -405 -1143
16 -144 47 -252 78 -272 44 -29 69 -9 147 114 99 157 187 274 281 372 72 76
186 171 204 171 4 0 22 -35 41 -77 53 -125 163 -338 240 -468 40 -66 73 -122
76 -124 2 -2 18 7 36 21 18 14 109 62 202 106 l168 82 -18 27 c-85 128 -261
459 -294 553 -12 34 -11 36 26 76 28 29 60 88 112 206 66 151 72 172 72 232 0
75 -27 141 -77 188 -15 14 -88 56 -162 92 -113 56 -142 66 -186 66 l-52 0 -22
128 c-31 186 -50 365 -58 550 l-6 163 25 27 c41 45 151 195 170 232 45 88 12
181 -93 261 l-70 54 6 65 c10 111 55 358 97 525 112 451 297 879 531 1230 414
621 962 1031 1572 1175 183 43 283 54 485 54 490 -1 925 -155 1360 -482 138
-103 394 -356 510 -502 440 -556 725 -1280 814 -2064 l15 -130 -54 -58 c-101
-109 -100 -192 5 -314 l60 -69 0 -86 c0 -170 -44 -575 -81 -748 l-10 -49 -130
-45 c-143 -51 -188 -79 -226 -144 -46 -80 -44 -142 15 -335 47 -154 64 -198
93 -238 19 -26 -144 -358 -284 -580 -45 -70 -165 -245 -191 -277 -1 -1 -30 13
-66 30 l-64 32 -191 0 c-188 0 -191 0 -247 -28 -62 -30 -106 -75 -139 -139
-25 -48 -37 -169 -41 -389 -4 -201 -1 -207 211 -409 175 -168 204 -205 257
-332 84 -199 125 -399 160 -781 7 -81 26 -107 78 -107 29 0 43 10 98 68 169
179 286 428 340 721 30 159 31 507 4 686 -22 143 -50 260 -71 292 -15 22 -13
27 59 122 92 121 204 291 287 436 66 115 209 406 209 424 0 27 31 5 110 -77
123 -126 244 -316 341 -535 51 -113 63 -127 106 -127 42 0 59 26 102 156 120
360 54 787 -187 1218 -63 113 -109 169 -163 196 l-37 19 15 68 c41 196 78 487
89 705 4 71 10 131 14 133 12 7 165 -50 232 -88 75 -42 205 -136 289 -209 61
-53 91 -60 114 -25 12 19 13 37 5 104 -5 44 -16 109 -25 144 -21 84 -102 249
-160 324 -106 140 -316 325 -430 380 l-51 24 -17 147 c-159 1325 -855 2483
-1832 3045 -277 159 -607 274 -935 324 -125 20 -497 28 -620 14z"/>
<path d="M3195 3579 c-27 -11 -120 -55 -205 -97 -139 -69 -159 -82 -192 -127
-90 -119 -204 -363 -259 -550 -84 -291 -80 -600 12 -833 36 -91 53 -112 89
-112 41 0 56 18 100 120 93 214 230 429 351 552 62 62 94 86 154 113 42 19 80
35 86 35 5 0 44 -26 87 -59 121 -92 265 -183 413 -260 75 -39 138 -71 141 -71
3 0 11 21 17 46 7 26 41 119 76 207 36 89 65 165 65 169 0 3 -33 23 -72 43
-141 72 -365 215 -374 240 -3 7 11 68 31 136 47 162 40 227 -35 313 -41 47
-65 59 -220 113 -141 48 -189 52 -265 22z"/>
<path d="M4673 2941 c-71 -26 -138 -74 -177 -128 -18 -24 -75 -151 -127 -280
l-94 -236 0 -97 c0 -110 -16 -69 188 -465 106 -206 118 -258 118 -520 0 -240
-30 -451 -107 -757 -41 -165 -42 -191 -9 -223 36 -37 82 -33 173 15 465 244
806 758 956 1440 30 137 56 320 56 393 l0 53 94 26 c131 37 272 91 410 156
l119 56 -116 111 c-88 83 -122 123 -141 165 -14 30 -26 63 -26 73 0 16 -2 16
-37 1 -135 -60 -244 -100 -352 -130 -69 -19 -129 -34 -135 -33 -6 0 -26 32
-45 72 -37 76 -105 153 -162 183 -19 9 -117 46 -219 81 -207 71 -270 78 -367
44z"/>
</g>
</svg>
