<?xml version="1.0" standalone="no"?>
<!DOCTYPE svg PUBLIC "-//W3C//DTD SVG 20010904//EN"
 "http://www.w3.org/TR/2001/REC-SVG-20010904/DTD/svg10.dtd">
<svg version="1.0" xmlns="http://www.w3.org/2000/svg"
 width="2048.000000pt" height="2048.000000pt" viewBox="0 0 2048.000000 2048.000000"
 preserveAspectRatio="xMidYMid meet">

<g transform="translate(0.000000,2048.000000) scale(0.100000,-0.100000)"
fill="#000000" stroke="none">
<path d="M9932 16687 c-71 -40 -76 -146 -9 -190 33 -21 95 -22 125 -1 26 18
52 65 52 94 0 79 -98 135 -168 97z"/>
<path d="M10547 16656 l-117 -32 -36 -53 c-52 -76 -105 -126 -214 -202 -74
-51 -102 -77 -127 -118 -116 -193 32 -427 289 -457 42 -5 79 1 178 27 l125 33
-64 13 c-134 27 -232 96 -280 198 -18 38 -24 67 -24 121 0 98 34 161 122 223
35 26 86 63 114 84 29 20 54 37 58 37 3 0 9 -35 13 -77 12 -152 57 -510 82
-658 47 -283 81 -376 164 -455 l47 -46 -71 4 c-222 11 -431 110 -585 279 -82
88 -147 187 -356 533 -98 162 -195 320 -215 350 -73 108 -173 179 -253 180
-21 0 -95 -14 -165 -32 l-127 -32 48 -7 c62 -10 124 -47 178 -107 43 -48 81
-108 359 -564 235 -386 338 -499 545 -594 118 -55 228 -76 364 -72 101 3 137
9 272 48 l156 44 -43 28 c-127 85 -174 268 -259 1023 -19 170 -35 310 -35 312
0 6 -30 0 -143 -31z"/>
<path d="M11289 16576 c-59 -16 -190 -90 -235 -134 -57 -55 -77 -106 -82 -204
-6 -111 -1 -139 124 -662 146 -613 151 -635 159 -718 7 -80 -6 -182 -29 -229
-8 -16 -13 -29 -11 -29 2 0 51 28 109 61 80 46 124 81 180 139 149 156 191
315 231 880 22 308 46 437 105 567 48 107 64 123 117 123 188 0 204 -196 31
-377 l-63 -66 63 39 c123 75 224 210 237 314 16 121 -107 195 -231 141 -78
-35 -265 -142 -300 -173 -17 -15 -47 -58 -67 -96 -71 -135 -107 -308 -127
-617 -14 -208 -36 -416 -56 -510 -16 -77 -52 -195 -64 -208 -4 -5 -10 40 -13
100 -4 93 -23 181 -136 653 -150 624 -162 695 -138 793 22 89 59 145 103 153
45 8 121 -11 161 -42 81 -62 79 -197 -5 -286 -32 -35 -27 -35 31 -3 53 30 113
93 133 141 18 44 18 128 -1 164 -18 36 -71 76 -107 84 -63 13 -75 14 -119 2z"/>
<path d="M8711 16504 c-78 -65 -29 -194 74 -194 62 0 104 46 105 113 0 42 -4
53 -31 78 -42 39 -104 40 -148 3z"/>
<path d="M8445 16455 c-60 -18 -123 -38 -140 -44 -16 -6 -57 -18 -89 -27 -52
-14 -70 -27 -150 -104 -58 -55 -140 -119 -223 -173 -212 -138 -276 -209 -276
-311 0 -126 103 -205 231 -176 72 15 99 29 59 30 -101 1 -180 112 -156 218 20
91 90 160 284 281 55 35 117 79 139 99 21 21 37 33 34 27 -2 -5 -20 -44 -40
-85 -20 -41 -82 -230 -139 -420 -56 -190 -103 -346 -103 -347 -4 -7 -251 -75
-336 -93 -184 -38 -327 -36 -455 5 -11 3 5 -8 35 -24 96 -53 173 -72 290 -73
220 -1 456 61 923 243 127 49 232 88 234 86 4 -4 -111 -159 -169 -230 -22 -26
-60 -59 -85 -74 l-44 -26 133 -75 c206 -116 286 -136 429 -108 157 30 266 100
494 316 83 78 178 162 213 188 34 25 62 49 62 52 0 6 -197 119 -279 160 -54
27 -159 50 -229 50 -52 0 -56 -2 -110 -56 -46 -45 -52 -55 -32 -50 88 22 182
36 248 36 83 0 152 -9 152 -19 -1 -3 -24 -23 -53 -43 -29 -21 -118 -100 -200
-177 -81 -77 -176 -161 -210 -186 -129 -98 -257 -145 -396 -145 l-74 0 49 43
c26 23 113 130 193 237 152 205 256 322 356 404 137 112 356 180 473 147 17
-5 32 -8 32 -6 0 7 -87 53 -122 64 -48 16 -161 16 -224 0 -135 -32 -275 -120
-397 -248 l-77 -81 -273 -109 c-149 -60 -273 -108 -275 -106 -4 3 86 311 154
533 72 232 131 335 230 400 58 39 48 39 -91 -3z"/>
<path d="M12430 16243 c0 -4 26 -44 58 -87 102 -142 187 -182 452 -216 192
-24 274 -43 356 -81 55 -26 144 -99 144 -119 0 -4 -28 -1 -62 7 -89 21 -319
12 -523 -22 -526 -86 -712 -99 -945 -64 -36 5 -73 12 -83 15 -14 5 -12 -3 11
-43 16 -26 48 -84 72 -128 64 -117 62 -115 96 -115 100 0 200 -60 379 -228
221 -208 343 -272 520 -272 141 1 240 49 308 153 90 135 99 298 25 419 l-23
37 0 -102 c0 -94 -3 -107 -32 -169 -97 -206 -299 -276 -538 -187 -85 32 -188
105 -316 227 -64 61 -136 124 -159 141 l-43 31 139 0 c161 0 326 17 617 65
365 61 563 66 673 20 21 -8 38 -14 40 -13 6 7 -187 327 -219 364 -77 88 -244
147 -522 183 -82 11 -173 27 -201 35 -62 19 -160 81 -197 125 -15 18 -27 29
-27 24z"/>
<path d="M8721 16204 c-79 -66 -28 -194 78 -194 24 0 42 9 67 34 29 29 34 41
34 81 0 38 -5 52 -29 76 -40 39 -105 41 -150 3z"/>
<path d="M12318 15984 c-34 -18 -58 -62 -58 -105 0 -22 10 -41 34 -65 29 -29
41 -34 79 -34 37 0 51 5 76 31 26 25 31 39 31 76 0 38 -5 50 -34 79 -38 38
-81 44 -128 18z"/>
<path d="M7099 15891 c-210 -67 -353 -259 -375 -505 -23 -253 118 -460 353
-521 143 -37 314 -10 681 107 117 37 220 136 289 275 14 30 24 55 22 57 -2 2
-22 -2 -44 -9 -22 -7 -79 -26 -128 -40 l-87 -27 -41 -78 c-47 -90 -137 -187
-203 -219 -71 -35 -181 -54 -266 -46 -260 22 -427 189 -447 445 -17 215 107
467 272 553 59 31 51 33 -26 8z"/>
<path d="M7244 15751 c-93 -57 -49 -201 61 -201 52 0 89 27 105 75 23 71 -30
145 -105 145 -16 0 -44 -9 -61 -19z"/>
<path d="M6383 15430 c-28 -11 -63 -66 -63 -98 0 -58 52 -112 107 -112 69 0
114 42 115 109 1 84 -78 133 -159 101z"/>
<path d="M12763 15360 c-39 -23 -53 -48 -53 -92 0 -78 68 -128 146 -107 89 25
98 160 14 204 -39 20 -68 19 -107 -5z"/>
<path d="M13922 15356 c-74 -19 -184 -76 -267 -138 -38 -29 -180 -161 -316
-294 -315 -309 -447 -409 -634 -479 -80 -30 -196 -55 -260 -55 -37 0 -47 5
-78 39 -43 47 -60 116 -46 180 13 59 31 90 76 132 59 57 117 81 208 88 l80 6
-65 15 c-126 29 -231 15 -316 -43 -70 -47 -108 -112 -112 -197 -7 -110 41
-177 153 -215 102 -34 291 -75 346 -75 121 0 269 41 398 111 141 76 234 152
496 409 318 312 397 374 542 427 36 13 100 26 142 30 l76 7 -110 28 c-134 34
-241 43 -313 24z"/>
<path d="M9576 15320 c12 -19 44 -74 73 -122 103 -173 238 -267 558 -389 214
-82 327 -139 420 -215 79 -64 150 -140 140 -151 -11 -10 -1270 14 -1304 25
-18 6 -33 8 -33 5 0 -4 29 -56 64 -117 35 -61 76 -136 91 -167 l28 -56 96 -26
c53 -15 134 -46 181 -69 74 -36 100 -57 205 -163 76 -77 137 -129 167 -143
254 -123 548 56 593 361 l7 47 -46 0 c-27 0 -46 -5 -46 -11 0 -6 -14 -40 -31
-75 -41 -82 -124 -165 -208 -207 -61 -30 -73 -32 -166 -32 -146 0 -185 20
-340 179 -108 110 -130 127 -218 172 l-97 50 262 -3 c145 -2 479 -5 743 -7
376 -3 500 -8 571 -20 183 -32 328 -92 417 -174 l51 -47 -34 60 c-74 134 -103
176 -154 222 -133 121 -389 193 -690 193 l-92 0 -39 68 c-73 126 -133 207
-201 273 -112 107 -221 168 -464 259 -243 91 -371 162 -470 260 -47 48 -52 50
-34 20z"/>
<path d="M6608 15212 c-182 -187 -203 -238 -203 -487 0 -88 7 -261 14 -385 19
-305 13 -324 -111 -403 l-27 -17 -139 258 c-179 329 -184 341 -217 442 -29 92
-43 241 -31 323 6 38 13 50 40 67 76 46 170 14 197 -68 17 -49 14 -185 -5
-247 -8 -27 -14 -51 -12 -52 8 -8 75 147 86 198 16 72 9 194 -13 239 -33 67
-103 88 -176 50 -50 -25 -83 -68 -169 -218 -79 -137 -88 -175 -85 -322 4 -168
39 -258 256 -660 165 -304 195 -368 219 -463 22 -87 21 -179 -3 -246 l-12 -34
-18 35 c-42 83 -169 158 -336 200 -135 34 -402 32 -658 -6 -314 -46 -397 -39
-447 41 -27 44 -28 129 -3 190 22 55 126 152 202 189 50 25 70 29 143 29 73 0
92 -4 135 -27 28 -14 62 -39 77 -55 38 -39 69 -114 70 -168 0 -25 2 -45 3 -45
2 0 17 25 34 55 47 82 41 164 -17 246 -56 78 -169 127 -267 114 -158 -19 -294
-146 -415 -385 -35 -70 -44 -98 -47 -155 -4 -61 -2 -74 19 -105 53 -79 125
-86 419 -43 156 23 217 27 404 27 195 0 229 -2 297 -21 172 -49 305 -136 326
-215 l9 -33 37 58 c73 114 157 273 176 336 38 122 20 275 -49 409 l-18 35 134
131 c74 71 147 150 161 175 25 43 27 54 27 161 0 63 -6 228 -13 365 -17 337
-2 444 79 547 17 21 29 38 26 38 -2 0 -47 -44 -99 -98z"/>
<path d="M11987 15152 c-110 -113 -140 -167 -164 -295 -23 -129 -12 -294 42
-617 49 -291 55 -394 25 -455 -21 -42 -128 -111 -212 -136 -138 -42 -287 -11
-368 77 -60 66 -82 123 -88 230 -4 77 -1 99 17 140 l21 49 -53 -56 c-68 -72
-92 -140 -84 -240 22 -264 267 -390 524 -269 87 40 168 104 304 240 171 169
176 196 109 587 -51 305 -64 426 -56 545 8 113 28 196 61 255 13 24 23 43 21
43 -1 0 -46 -44 -99 -98z"/>
<path d="M10854 15136 c-17 -8 -39 -24 -48 -37 -22 -33 -21 -100 4 -131 83
-106 244 -6 188 116 -22 50 -92 75 -144 52z"/>
<path d="M9155 14983 c-118 -205 -127 -229 -127 -328 0 -90 16 -150 153 -570
64 -198 82 -266 85 -325 l5 -75 -24 62 c-100 260 -398 595 -709 797 -105 68
-264 145 -371 180 -259 84 -534 77 -735 -20 -88 -42 -194 -139 -235 -215 l-28
-51 51 50 c63 62 179 124 284 151 401 105 900 -82 1306 -489 166 -166 313
-370 360 -498 37 -103 31 -100 77 -35 23 32 68 108 100 168 57 108 58 111 57
190 -1 74 -9 106 -108 408 -58 181 -113 356 -121 390 -18 74 -19 157 -4 212
l11 39 31 -39 c164 -208 333 -312 523 -323 152 -8 234 28 288 125 31 54 32 62
8 40 -44 -40 -154 -60 -257 -47 -93 12 -167 38 -247 86 -65 40 -204 173 -248
237 -14 20 -27 37 -30 37 -3 0 -45 -71 -95 -157z"/>
<path d="M14465 14995 c-27 -7 -93 -34 -145 -58 -142 -67 -190 -79 -315 -82
l-111 -2 -158 -94 c-127 -74 -155 -95 -140 -101 17 -7 993 -249 1124 -278 72
-16 96 -29 54 -30 -49 0 -151 -37 -267 -97 -59 -31 -106 -58 -104 -59 2 -2 30
8 63 21 89 36 192 49 267 35 34 -6 67 -12 72 -12 10 -1 353 196 369 212 10 10
18 8 -264 75 -319 76 -991 244 -1010 252 -8 4 15 10 52 14 85 9 145 29 280 91
132 61 186 68 247 36 59 -30 83 -76 78 -144 -2 -32 -12 -63 -26 -82 -12 -18
-20 -32 -18 -32 16 0 101 57 121 81 80 94 43 230 -68 258 -25 6 -46 11 -48 10
-2 0 -25 -6 -53 -14z"/>
<path d="M8790 14953 c-62 -20 -90 -56 -90 -118 0 -63 72 -117 136 -101 15 4
39 20 55 36 33 32 39 82 15 128 -19 38 -81 67 -116 55z"/>
<path d="M8490 14943 c-81 -26 -111 -93 -75 -163 17 -32 61 -60 95 -60 29 0
76 26 94 52 21 29 20 97 0 127 -9 13 -32 29 -50 37 -35 15 -40 15 -64 7z"/>
<path d="M10853 14830 c-40 -24 -53 -48 -53 -98 0 -79 81 -131 152 -98 87 42
90 159 4 200 -44 21 -64 20 -103 -4z"/>
<path d="M5524 14658 c-58 -61 -79 -95 -105 -168 -26 -77 -31 -238 -10 -335
20 -95 82 -213 143 -274 104 -104 195 -137 356 -128 57 3 106 8 109 11 4 3 -2
21 -12 39 -17 32 -22 34 -97 44 -110 15 -190 56 -266 137 -33 35 -71 88 -86
118 -83 171 -88 418 -11 555 13 24 23 43 21 43 -1 0 -20 -19 -42 -42z"/>
<path d="M6854 14681 c-79 -34 -85 -165 -9 -199 82 -38 165 13 165 102 0 71
-88 126 -156 97z"/>
<path d="M13492 14435 c-85 -49 -122 -82 -162 -145 -65 -103 -76 -230 -27
-326 30 -58 65 -93 127 -125 40 -21 58 -24 155 -23 98 0 119 3 194 32 78 30
304 143 326 164 6 5 -28 -9 -75 -30 -207 -96 -376 -96 -485 0 -66 59 -95 123
-95 215 0 88 22 153 80 229 22 30 39 54 38 53 -2 0 -36 -20 -76 -44z"/>
<path d="M7406 14369 c-101 -25 -209 -76 -376 -178 -253 -156 -353 -196 -471
-189 -77 4 -77 2 1 -38 48 -26 65 -29 140 -28 114 0 185 29 421 172 102 61
216 125 254 143 89 40 204 69 274 69 l56 0 -30 -19 c-72 -45 -207 -201 -441
-511 -76 -102 -182 -229 -234 -283 l-95 -98 137 -79 c76 -44 143 -80 149 -80
6 0 25 11 42 24 53 40 175 94 253 112 69 15 284 18 298 4 10 -10 -134 -494
-168 -565 -18 -38 -51 -87 -72 -109 -44 -43 -145 -96 -186 -96 -62 0 -124 44
-160 114 -31 60 -23 161 17 217 36 50 67 75 121 95 l39 14 -80 -3 c-91 -3
-135 -20 -189 -74 -99 -99 -78 -270 42 -340 l47 -28 225 0 225 0 62 29 c75 34
149 108 185 186 14 30 45 123 68 205 91 329 221 738 274 864 78 183 197 302
354 351 l57 18 -80 1 c-219 2 -331 -31 -439 -130 -104 -94 -163 -214 -266
-536 -42 -133 -58 -171 -70 -168 -127 37 -343 42 -442 12 -48 -15 -61 -10 -33
13 8 7 99 123 203 258 207 272 349 429 418 463 l45 21 -142 83 c-188 112 -263
126 -433 84z"/>
<path d="M14038 14374 c-72 -38 -76 -158 -6 -191 41 -20 56 -22 92 -12 48 13
76 51 76 103 0 88 -87 141 -162 100z"/>
<path d="M13738 14365 c-57 -32 -75 -111 -36 -160 69 -89 198 -49 198 61 0 84
-90 139 -162 99z"/>
<path d="M15186 14111 l-128 -128 -2 -134 c-2 -130 -4 -137 -44 -247 -53 -143
-56 -203 -12 -279 48 -84 124 -126 230 -125 93 0 168 31 238 98 l57 54 -60
-28 c-80 -36 -198 -38 -262 -4 -84 44 -143 133 -143 215 0 16 21 91 46 166 39
115 47 149 48 218 1 77 7 100 19 71 2 -7 85 -123 183 -258 98 -135 211 -297
252 -360 146 -227 253 -480 288 -680 24 -140 15 -354 -20 -473 -25 -84 -69
-181 -117 -257 -17 -27 -5 -18 50 35 134 130 207 246 258 412 25 82 27 100 27
278 1 176 -1 197 -27 295 -75 284 -193 496 -534 962 -82 111 -164 224 -182
251 -17 26 -33 47 -34 47 -1 0 -60 -58 -131 -129z"/>
<path d="M14305 14139 c-27 -17 -54 -36 -60 -42 -11 -11 58 28 96 55 40 28 17
20 -36 -13z"/>
<path d="M12659 14141 c-166 -46 -305 -145 -513 -366 -72 -75 -160 -159 -198
-185 l-67 -47 65 -114 c164 -289 225 -329 499 -329 193 0 350 26 850 140 207
48 411 80 506 80 49 0 77 -6 112 -24 l47 -23 -19 31 c-10 17 -35 60 -56 96
-20 36 -47 79 -59 95 -12 17 -34 51 -49 78 -16 27 -35 47 -45 47 -9 0 -57 5
-107 10 -107 13 -157 34 -286 122 -117 80 -188 108 -273 108 -198 0 -299 -146
-216 -310 17 -33 32 -60 33 -60 2 0 3 22 3 48 0 97 74 180 180 202 110 23 199
-6 362 -117 l114 -78 -54 -7 c-93 -13 -216 -38 -483 -98 -375 -85 -488 -103
-685 -104 -187 -1 -244 11 -318 65 l-43 31 48 33 c26 18 125 110 218 204 183
186 260 249 370 303 89 44 122 55 213 68 87 12 190 -1 240 -31 18 -10 35 -19
38 -19 2 0 -9 24 -26 53 -22 39 -43 60 -82 82 -48 27 -63 30 -153 32 -73 2
-118 -2 -166 -16z"/>
<path d="M14204 14074 c-18 -14 -18 -15 4 -4 12 6 22 13 22 15 0 8 -5 6 -26
-11z"/>
<path d="M8606 13947 c143 -132 151 -311 21 -454 -94 -102 -241 -152 -418
-140 -80 5 -87 4 -92 -13 -3 -12 1 -21 12 -24 69 -20 153 -29 251 -29 95 1
127 5 186 25 150 52 240 148 265 283 13 72 -8 160 -54 224 -37 51 -121 123
-189 161 -43 24 -42 23 18 -33z"/>
<path d="M6923 13916 c-57 -26 -81 -106 -46 -156 36 -52 84 -68 137 -46 45 19
66 52 66 103 0 82 -81 133 -157 99z"/>
<path d="M9798 13861 c-29 -26 -33 -35 -33 -81 0 -46 4 -55 33 -81 53 -47 143
-34 170 26 23 49 15 94 -22 131 -46 46 -101 48 -148 5z"/>
<path d="M9508 13860 c-82 -64 -43 -200 58 -200 71 0 114 41 114 110 0 48 -18
79 -57 99 -34 17 -88 13 -115 -9z"/>
<path d="M14337 13869 c-120 -28 -229 -116 -268 -216 -31 -79 -31 -243 -1
-356 39 -142 274 -746 386 -991 20 -44 34 -81 32 -83 -2 -2 -27 10 -56 28 -29
18 -105 56 -169 85 -177 78 -219 101 -268 147 -163 150 -100 373 126 449 l56
19 -87 -5 c-187 -8 -318 -120 -318 -272 0 -115 67 -203 205 -269 39 -18 127
-60 197 -93 158 -75 231 -124 337 -226 71 -69 89 -94 124 -168 l40 -88 133 0
c74 0 134 2 134 5 0 3 -33 76 -74 163 -220 467 -474 1096 -525 1297 -66 265
-9 450 168 538 l54 26 28 -20 c15 -11 43 -50 61 -87 30 -61 33 -74 33 -162 0
-78 -4 -102 -22 -135 -27 -50 -67 -89 -118 -114 l-40 -20 75 6 c99 6 155 34
197 96 94 139 48 368 -88 437 -33 17 -57 20 -176 19 -76 -1 -155 -5 -176 -10z"/>
<path d="M6587 13653 c-25 -43 -66 -123 -92 -178 l-48 -100 -3 -120 c-2 -125
1 -113 -73 -317 -27 -74 -28 -177 -2 -234 41 -90 128 -155 211 -156 64 -1 93
17 128 78 30 52 31 55 9 47 -35 -13 -119 -8 -152 9 -44 24 -102 85 -126 135
-35 73 -35 144 1 243 17 47 36 102 43 123 6 20 14 37 17 37 3 0 11 -18 18 -41
12 -40 57 -136 367 -784 142 -297 185 -428 185 -560 0 -76 -27 -203 -58 -275
-26 -62 -106 -131 -189 -166 -61 -25 -80 -28 -183 -29 -111 0 -118 1 -182 33
-70 34 -115 80 -145 149 -22 50 -22 201 0 261 22 57 13 53 -19 -10 -97 -191
-89 -364 23 -470 104 -99 314 -114 473 -33 99 50 151 112 264 313 108 192 149
321 149 467 0 160 -27 231 -333 870 -100 209 -191 403 -202 430 -52 129 -66
224 -45 303 8 28 13 52 11 52 -1 0 -22 -35 -47 -77z"/>
<path d="M12488 13703 c-66 -41 -65 -147 2 -186 44 -27 94 -22 132 12 29 26
33 35 33 81 0 46 -4 55 -33 81 -38 34 -91 39 -134 12z"/>
<path d="M14681 13155 c0 -33 4 -77 10 -98 33 -121 218 -217 699 -366 104 -32
155 -57 200 -97 46 -42 74 -79 84 -111 l7 -23 -193 0 c-161 0 -314 7 -493 22
l-30 3 0 -185 c1 -176 2 -188 27 -252 77 -195 233 -323 466 -385 82 -22 120
-26 247 -27 128 -1 162 3 228 22 273 78 459 291 456 521 -1 63 -1 64 -10 27
-32 -135 -153 -280 -294 -353 -186 -96 -423 -113 -652 -47 -202 58 -346 172
-422 334 -17 35 -29 66 -26 68 2 2 72 -1 155 -7 83 -6 241 -11 351 -11 l200 0
-3 208 c-3 205 -3 207 -30 254 -55 92 -125 132 -358 203 -364 110 -574 223
-607 325 -11 34 -11 34 -12 -25z"/>
<path d="M4630 13111 c-151 -48 -278 -153 -349 -290 -65 -125 -73 -178 -76
-471 -3 -273 -7 -306 -58 -405 -31 -62 -96 -129 -157 -161 l-45 -24 235 3
c273 4 326 15 494 96 232 112 386 252 682 623 163 204 237 284 333 360 85 68
166 112 266 144 l70 22 -153 1 c-84 1 -173 6 -197 12 -39 10 -57 8 -137 -14
-122 -34 -223 -47 -371 -47 -243 0 -379 -65 -402 -191 -16 -89 55 -195 145
-219 25 -6 54 -14 65 -17 15 -4 13 0 -9 17 -33 27 -76 112 -76 153 0 15 7 44
15 65 47 112 179 161 439 162 l129 0 -64 -42 c-94 -63 -228 -201 -383 -395
-76 -95 -139 -173 -141 -173 -2 0 -34 10 -71 21 -65 20 -146 58 -204 95 -14 9
-5 -3 20 -26 65 -60 101 -87 160 -119 l52 -29 -108 -109 c-175 -176 -329 -280
-508 -342 -49 -17 -91 -30 -93 -27 -2 2 12 13 31 25 65 41 125 127 156 226 8
26 15 143 19 325 7 272 8 288 33 360 39 110 73 167 152 246 75 75 156 124 249
149 l52 14 -70 0 c-40 0 -94 -8 -125 -18z"/>
<path d="M15454 13086 c-28 -28 -34 -42 -34 -76 0 -34 6 -48 34 -76 28 -28 42
-34 76 -34 34 0 48 6 76 34 28 28 34 42 34 76 0 34 -6 48 -34 76 -28 28 -42
34 -76 34 -34 0 -48 -6 -76 -34z"/>
<path d="M13486 13019 c-40 -11 -64 -36 -77 -79 -28 -92 73 -170 160 -125 28
14 61 68 61 100 0 21 -24 68 -43 84 -24 19 -70 28 -101 20z"/>
<path d="M13186 13009 c-60 -17 -96 -81 -76 -135 27 -70 88 -98 154 -70 67 28
85 125 32 175 -29 28 -73 40 -110 30z"/>
<path d="M12777 12870 c6 -187 40 -271 149 -368 73 -65 159 -106 429 -202 230
-82 387 -140 394 -146 2 -2 -16 -25 -39 -51 -185 -210 -245 -533 -161 -864 53
-209 128 -374 374 -816 252 -452 293 -540 317 -673 7 -36 15 -78 20 -95 l7
-30 127 127 c144 144 184 212 211 352 28 147 17 287 -55 691 -88 494 -108 726
-75 880 8 38 15 72 15 75 0 3 -54 -49 -121 -115 -91 -91 -127 -134 -145 -175
-14 -30 -63 -104 -109 -165 -118 -155 -140 -201 -140 -296 0 -67 3 -81 30
-124 38 -61 107 -106 173 -112 45 -4 49 -3 90 39 l43 44 -51 12 c-96 22 -167
91 -191 186 -22 86 16 188 118 317 33 41 65 84 73 95 13 19 15 3 16 -155 0
-196 9 -268 84 -701 53 -306 70 -442 70 -542 -1 -88 -24 -207 -52 -270 l-25
-53 -7 60 c-18 143 -71 262 -306 685 -257 463 -295 540 -359 728 -112 325 -95
649 46 885 l35 57 57 -30 c103 -55 198 -146 244 -234 11 -23 31 -75 44 -116
l24 -75 -6 130 c-3 72 -10 150 -16 175 -20 85 -71 172 -144 246 -59 59 -89 80
-185 126 -63 31 -227 95 -365 143 -376 130 -469 180 -557 296 -20 27 -44 70
-53 96 -9 27 -21 57 -25 68 -4 11 -6 -36 -3 -105z"/>
<path d="M6111 12714 c-79 -66 -28 -194 78 -194 24 0 42 9 67 34 29 29 34 41
34 81 0 38 -5 52 -29 76 -40 39 -105 41 -150 3z"/>
<path d="M5811 12704 c-83 -70 -20 -208 87 -190 42 6 70 30 89 74 43 102 -90
189 -176 116z"/>
<path d="M6259 12370 c-101 -21 -262 -84 -468 -181 -87 -42 -154 -68 -166 -65
-11 2 -60 21 -110 42 -49 20 -128 48 -175 60 l-84 24 -28 -27 c-15 -15 -28
-30 -28 -33 0 -4 33 -13 73 -20 253 -45 530 -168 609 -272 76 -99 117 -241 97
-337 -31 -158 -168 -251 -365 -251 -118 0 -207 23 -360 91 -81 37 -165 66
-218 77 l-87 18 73 28 c40 16 111 47 158 70 138 68 600 307 600 311 0 2 -30
22 -67 43 -78 46 -187 92 -216 92 -11 0 -105 -45 -209 -101 -378 -202 -548
-271 -667 -273 -36 -1 -79 3 -95 7 -23 6 -4 -18 99 -126 l127 -134 147 -6 c81
-3 183 -13 227 -22 79 -17 107 -27 280 -103 191 -85 371 -94 505 -26 67 33
101 65 133 124 73 135 32 310 -114 479 l-71 82 88 40 c313 146 430 189 571
209 106 16 212 1 297 -40 l60 -30 -100 98 c-167 164 -290 200 -516 152z"/>
<path d="M6653 12075 c-35 -15 -63 -60 -63 -100 0 -77 82 -131 153 -101 45 18
67 51 67 101 0 47 -19 79 -60 100 -35 18 -55 18 -97 0z"/>
<path d="M16528 11883 c-137 -141 -168 -213 -168 -397 0 -154 57 -565 122
-886 27 -133 32 -177 32 -310 1 -131 -2 -163 -19 -209 -19 -53 -22 -55 -100
-93 -100 -48 -181 -62 -272 -48 -143 22 -267 112 -326 237 -30 63 -32 75 -32
173 1 118 18 177 81 273 l34 52 -60 -64 c-75 -80 -135 -197 -152 -296 -9 -59
-9 -82 6 -147 42 -187 196 -314 394 -325 103 -6 175 14 287 79 79 46 250 208
295 278 80 126 84 260 16 622 -102 548 -135 878 -102 1008 9 35 27 84 41 107
13 24 23 43 21 43 -1 0 -45 -44 -98 -97z"/>
<path d="M6658 11774 c-72 -38 -76 -158 -6 -191 63 -30 118 -19 148 30 62 102
-40 217 -142 161z"/>
<path d="M14902 11689 c-34 -17 -77 -48 -95 -69 -51 -60 -195 -321 -203 -367
-18 -112 74 -208 238 -249 99 -24 401 -29 585 -10 144 15 365 49 407 62 10 4
-14 -27 -55 -68 -41 -41 -101 -106 -134 -144 -82 -96 -148 -151 -225 -188 -58
-28 -75 -31 -155 -31 -104 0 -148 18 -207 83 -43 48 -61 98 -56 158 3 44 3 44
-14 22 -34 -44 -60 -130 -54 -177 19 -139 165 -231 320 -203 128 24 174 60
426 329 114 122 155 144 399 215 42 13 46 17 127 158 46 80 83 148 84 152 0 3
-28 -2 -62 -13 -84 -25 -376 -84 -513 -103 -388 -53 -688 -42 -838 29 -97 45
-144 117 -135 205 6 69 146 139 251 127 72 -9 146 -54 182 -112 26 -41 30 -58
30 -116 l0 -67 27 46 c67 115 60 211 -21 291 -80 80 -199 95 -309 40z"/>
<path d="M13794 11656 c-29 -29 -34 -41 -34 -79 0 -37 5 -51 31 -76 25 -26 39
-31 76 -31 38 0 50 5 79 34 24 24 34 43 34 65 0 44 -25 88 -60 106 -49 25 -88
19 -126 -19z"/>
<path d="M4042 11537 c-53 -20 -103 -67 -128 -121 -39 -87 -94 -304 -94 -374
0 -232 160 -449 422 -572 175 -82 325 -111 853 -165 193 -20 361 -38 375 -41
24 -5 24 -6 -9 -22 -35 -17 -96 -74 -221 -208 -105 -114 -160 -139 -295 -139
-86 0 -107 4 -150 25 -99 48 -166 141 -183 250 l-8 55 -13 -56 c-38 -159 25
-303 164 -377 45 -24 61 -27 150 -27 150 0 183 18 360 199 118 122 148 147
191 162 50 17 51 19 68 78 38 139 75 280 73 281 -1 1 -182 21 -402 44 -220 23
-454 51 -520 63 -292 49 -491 141 -630 290 -98 104 -164 256 -165 374 0 84 99
163 203 164 131 0 223 -93 237 -240 l6 -65 13 60 c18 82 17 181 -4 233 -21 51
-90 114 -143 130 -49 15 -107 14 -150 -1z"/>
<path d="M4461 11390 c-1 -3 15 -61 34 -129 47 -164 84 -217 208 -296 108 -68
276 -131 452 -170 70 -15 504 -95 517 -95 4 0 4 -46 1 -102 -6 -123 10 -306
33 -374 9 -27 30 -69 47 -94 49 -72 263 -285 532 -530 138 -125 280 -259 316
-296 208 -216 339 -411 339 -504 0 -38 -39 -144 -75 -206 -92 -156 -287 -258
-461 -239 -116 12 -227 85 -280 184 l-24 46 3 -140 c3 -158 15 -192 84 -261
196 -192 562 -99 696 176 66 134 72 174 72 455 -1 292 -3 303 -110 465 -109
165 -244 305 -620 646 -222 201 -425 405 -472 474 -112 165 -75 390 92 555
209 207 529 217 712 22 96 -103 151 -226 183 -411 22 -127 26 -69 5 87 -33
253 -122 430 -265 525 -77 52 -143 72 -236 72 -98 0 -164 -15 -252 -57 -86
-40 -197 -140 -233 -208 -13 -25 -29 -45 -34 -45 -30 0 -628 113 -717 135
-251 64 -452 175 -530 295 -10 14 -17 23 -17 20z"/>
<path d="M5847 10860 c-30 -35 -94 -167 -85 -175 2 -1 80 -19 173 -39 412 -91
658 -209 757 -365 50 -80 31 -163 -51 -218 -26 -18 -48 -23 -93 -23 -85 0
-150 37 -203 115 -25 36 -27 37 -21 12 38 -162 132 -257 255 -257 107 0 176
67 175 170 -1 69 -85 377 -121 442 -75 137 -255 244 -558 332 -193 55 -186 55
-228 6z"/>
<path d="M16145 10671 c-93 -41 -92 -168 2 -208 31 -12 41 -13 72 -1 49 19 84
72 77 118 -10 66 -93 116 -151 91z"/>
<path d="M3820 10523 c-52 -36 -68 -84 -46 -137 19 -45 52 -66 102 -66 78 0
127 67 105 141 -21 68 -105 101 -161 62z"/>
<path d="M14964 10220 c2 -175 5 -215 23 -271 12 -37 29 -134 38 -215 26 -231
60 -302 170 -359 48 -24 70 -30 119 -29 64 1 165 33 186 59 8 10 12 55 11 140
-1 79 2 125 8 125 6 0 61 -28 123 -62 62 -34 215 -110 340 -169 125 -59 258
-128 297 -153 121 -81 217 -205 238 -308 l6 -32 -28 22 c-62 49 -197 66 -303
38 -74 -20 -175 -69 -246 -120 -86 -61 -230 -214 -308 -326 l-66 -96 -175 -32
c-201 -38 -323 -77 -378 -122 -50 -40 -50 -24 1 77 44 88 129 188 219 257 31
24 114 80 186 126 211 134 359 252 391 312 10 19 14 64 14 160 l0 133 -19 -31
c-33 -54 -159 -153 -371 -292 -397 -261 -480 -388 -480 -737 0 -49 3 -141 7
-203 l6 -113 26 25 c68 63 176 97 501 156 532 97 723 144 828 204 23 14 42 23
42 21 0 -2 -9 -19 -20 -38 -11 -19 -39 -106 -61 -193 -46 -182 -99 -303 -179
-406 -162 -210 -424 -312 -620 -243 -86 30 -166 107 -190 181 -7 22 -9 8 -7
-52 3 -66 8 -90 30 -126 57 -97 144 -147 272 -155 145 -10 300 49 420 160 136
124 215 271 275 514 37 146 69 223 104 253 14 10 16 43 16 211 l0 199 -41 -30
c-52 -37 -170 -83 -296 -115 -127 -32 -362 -77 -376 -72 -16 5 108 143 194
215 78 66 188 128 279 157 107 36 265 18 334 -36 l26 -20 1 38 c3 130 -4 355
-12 392 -27 120 -125 246 -254 326 -40 25 -167 90 -282 144 -404 192 -795 417
-912 526 -42 39 -56 63 -99 165 -8 18 -10 -28 -8 -180z m242 -358 c51 -32 137
-86 193 -118 56 -32 101 -62 101 -67 0 -11 -76 -44 -134 -57 -100 -22 -220 28
-276 116 -28 45 -53 135 -64 233 l-4 44 46 -46 c26 -25 88 -72 138 -105z"/>
<path d="M16138 10362 c-30 -18 -58 -67 -58 -100 0 -33 43 -86 80 -98 63 -21
122 11 141 76 28 93 -81 174 -163 122z"/>
<path d="M4057 10290 c-101 -26 -206 -113 -250 -208 -18 -38 -22 -66 -22 -142
0 -89 2 -100 38 -174 20 -43 40 -77 42 -74 3 3 0 18 -6 34 -6 16 -11 61 -11
99 -1 139 73 255 200 317 61 30 75 33 157 33 79 0 97 -4 144 -28 l53 -28 -7
-47 c-16 -108 -101 -219 -396 -517 l-168 -170 68 -115 c40 -68 74 -114 82
-113 8 1 46 14 84 27 135 49 264 32 422 -55 121 -67 203 -91 328 -96 191 -9
331 43 455 167 174 174 213 411 106 637 -39 80 -54 97 -29 31 26 -70 24 -246
-5 -330 -62 -179 -218 -324 -402 -374 -86 -23 -244 -23 -325 0 -33 9 -121 46
-196 82 -91 43 -159 69 -203 77 l-66 11 73 76 c119 121 242 266 272 321 18 35
29 72 32 113 l5 63 -87 152 c-90 155 -117 186 -189 216 -47 20 -149 27 -199
15z"/>
<path d="M13743 10220 c-38 -23 -53 -48 -53 -90 0 -65 47 -113 110 -113 64 0
110 48 110 115 0 40 -21 73 -60 93 -39 20 -69 19 -107 -5z"/>
<path d="M5634 9970 c-67 -27 -87 -129 -35 -181 60 -59 171 -26 187 57 16 87
-70 158 -152 124z"/>
<path d="M13764 9931 c-103 -44 -73 -210 38 -211 73 0 118 43 118 114 0 71
-88 126 -156 97z"/>
<path d="M14752 9889 c-4 -45 -77 -182 -139 -259 -68 -84 -176 -190 -335 -328
l-107 -93 -58 30 c-32 16 -125 50 -208 76 -163 52 -206 70 -254 110 l-31 27 0
-65 c0 -64 1 -66 41 -101 45 -38 112 -66 279 -116 199 -60 278 -117 337 -246
22 -48 27 -74 28 -135 0 -68 -4 -84 -39 -155 -66 -134 -201 -242 -342 -274
-27 -7 -110 -12 -184 -13 -126 -2 -139 -4 -188 -29 l-54 -28 23 38 c75 125
220 269 482 477 97 77 176 145 177 152 0 21 -57 69 -115 97 l-56 26 -122 -99
c-212 -172 -342 -320 -403 -458 -22 -50 -24 -66 -24 -223 0 -94 3 -170 6 -170
3 0 20 11 38 25 58 44 111 57 232 56 139 -1 199 10 292 54 124 59 217 163 263
295 20 56 23 86 23 220 1 100 -4 174 -13 208 l-13 53 48 41 c180 156 317 312
370 422 45 93 55 152 51 292 -1 65 -4 108 -5 93z"/>
<path d="M5878 9686 c-87 -31 -185 -114 -255 -216 -48 -71 -107 -194 -184
-387 -118 -297 -212 -461 -348 -606 -147 -156 -298 -236 -493 -263 -47 -6 -47
-7 -54 -50 -6 -41 8 -209 19 -220 9 -10 155 19 217 43 156 61 325 208 441 386
80 121 131 224 219 442 40 99 90 216 112 260 80 160 176 268 286 322 49 24 69
28 145 28 l87 0 0 131 c0 111 -3 133 -16 138 -28 11 -138 6 -176 -8z"/>
<path d="M4974 9641 c-36 -16 -64 -60 -64 -103 0 -55 51 -108 104 -108 73 0
116 43 116 115 0 70 -89 125 -156 96z"/>
<path d="M4675 9631 c-35 -15 -57 -49 -62 -95 -5 -42 -3 -48 30 -81 76 -76
187 -28 187 81 0 50 -54 104 -101 103 -19 0 -43 -4 -54 -8z"/>
<path d="M14784 9170 c-67 -27 -87 -129 -35 -181 24 -24 38 -29 76 -29 40 0
52 5 81 34 24 24 34 43 34 65 0 85 -80 142 -156 111z"/>
<path d="M5949 9061 l-146 -86 -43 -92 c-63 -138 -128 -229 -263 -371 -67 -71
-137 -154 -156 -186 -44 -74 -80 -175 -87 -245 -17 -162 76 -325 210 -367 l52
-16 119 68 c112 64 118 69 90 74 -213 45 -301 330 -178 575 33 65 68 110 173
220 47 50 100 108 119 130 l33 40 -6 -30 c-22 -115 -74 -608 -101 -965 -9
-113 -17 -210 -19 -216 -3 -7 -24 -8 -62 -3 -98 12 -225 10 -292 -6 -120 -28
-221 -95 -384 -255 l-103 -101 70 52 c140 104 251 137 430 126 126 -8 228 -27
375 -71 163 -49 444 -149 463 -166 5 -4 -17 -40 -48 -81 -76 -101 -120 -194
-151 -319 -29 -116 -27 -164 6 -229 71 -141 322 -164 504 -47 73 47 121 98
225 235 50 67 115 140 144 163 54 43 149 91 203 102 22 5 66 42 146 122 63 62
113 114 111 114 -1 0 -42 -12 -90 -27 -74 -22 -107 -26 -208 -27 -128 0 -155
6 -417 100 l-77 27 -101 -93 -101 -94 78 -29 c146 -53 308 -98 376 -104 l68
-6 -29 -31 c-16 -17 -59 -72 -95 -122 -146 -200 -287 -282 -471 -272 -155 8
-244 76 -254 193 -4 47 0 61 28 110 50 87 136 190 255 305 60 58 161 155 223
215 201 193 302 329 355 476 36 100 40 131 8 63 -63 -134 -173 -269 -364 -447
l-116 -108 -174 65 c-96 36 -228 81 -293 101 -65 20 -120 38 -122 40 -5 5 42
591 69 855 26 257 65 528 85 587 18 52 66 128 86 136 7 3 9 5 3 5 -5 0 -76
-39 -156 -87z"/>
<path d="M4227 9045 c-64 -24 -114 -71 -148 -140 l-32 -65 2 -220 c1 -315 28
-407 157 -537 l62 -61 11 -115 c30 -304 196 -661 578 -1242 121 -183 320 -465
329 -465 9 0 193 106 247 142 122 83 184 159 237 292 38 93 91 302 119 461 12
66 23 129 26 141 4 17 -4 23 -46 36 -37 12 -51 13 -53 5 -2 -7 -13 -73 -25
-147 -44 -273 -101 -494 -161 -615 -37 -76 -120 -185 -141 -185 -25 0 -403
555 -554 815 -172 294 -284 537 -326 708 -30 121 -37 337 -15 447 37 180 109
312 246 450 52 53 109 106 125 118 l30 23 -40 -22 c-216 -120 -384 -270 -467
-418 -25 -46 -52 -103 -59 -127 -8 -24 -18 -44 -24 -44 -5 0 -35 20 -66 44
-144 113 -223 334 -162 451 28 54 100 119 149 136 58 19 142 16 189 -9 48 -25
99 -76 116 -117 12 -30 13 -30 17 -6 2 14 1 48 -3 78 -18 148 -175 240 -318
188z"/>
<path d="M6570 8963 c-40 -27 -49 -45 -49 -93 -1 -99 107 -147 181 -81 29 26
33 35 33 81 0 46 -4 55 -33 81 -38 34 -93 39 -132 12z"/>
<path d="M6254 8936 c-28 -28 -34 -42 -34 -76 0 -34 6 -48 34 -76 69 -69 172
-31 183 69 5 43 3 49 -30 82 -29 29 -42 35 -77 35 -34 0 -48 -6 -76 -34z"/>
<path d="M14522 8727 c-129 -49 -179 -199 -122 -367 12 -36 67 -150 122 -254
175 -328 368 -741 368 -786 0 -39 -219 -265 -323 -333 -75 -50 -169 -92 -249
-112 -59 -15 -66 -20 -103 -72 -66 -93 -66 -87 8 -79 303 31 567 253 832 700
46 78 151 262 234 410 l150 268 -37 -7 c-20 -3 -42 -12 -48 -18 -6 -7 -64
-106 -129 -222 -65 -115 -141 -248 -168 -294 l-50 -84 -141 279 c-78 153 -156
304 -173 334 -45 79 -83 199 -83 263 0 139 88 247 202 247 l43 0 -59 35 c-158
96 -214 115 -274 92z"/>
<path d="M13314 8588 c-89 -99 -143 -256 -143 -418 -1 -106 22 -250 118 -737
50 -255 99 -513 110 -575 70 -406 46 -676 -82 -897 l-32 -56 -7 88 c-9 121
-29 216 -93 429 -79 267 -89 319 -90 438 0 88 4 113 23 155 l23 50 -95 -94
c-127 -127 -141 -157 -140 -311 1 -123 10 -166 103 -483 50 -170 71 -270 79
-384 l7 -87 116 114 c174 173 246 286 289 454 58 226 45 439 -56 953 -16 78
-26 144 -24 146 3 2 89 58 192 126 217 142 302 184 421 207 105 21 181 10 237
-34 39 -31 100 -141 100 -181 0 -31 -53 -145 -106 -228 -33 -52 -237 -346
-255 -366 -12 -14 -64 20 -111 72 -48 53 -82 130 -104 234 l-13 62 6 -95 c3
-52 12 -120 19 -150 20 -78 69 -174 104 -203 l29 -25 -54 -104 c-103 -197
-135 -337 -135 -587 l0 -153 55 70 c172 221 526 398 1102 552 119 32 111 40
89 -86 -76 -430 -388 -743 -743 -744 -74 0 -190 21 -260 48 -29 11 -53 19 -53
17 0 -2 35 -24 78 -48 200 -118 316 -152 496 -145 104 4 131 9 197 34 344 137
559 532 536 988 -10 186 -75 458 -156 648 l-17 41 -61 -91 c-57 -85 -61 -94
-52 -124 19 -63 49 -261 49 -319 l0 -58 -42 -12 c-306 -81 -476 -136 -636
-205 -241 -105 -421 -227 -524 -357 -21 -27 -38 -43 -38 -37 0 28 63 196 105
280 54 108 109 195 214 339 128 175 201 288 244 380 l42 86 0 280 c0 329 -5
356 -85 436 -39 39 -57 49 -104 59 -93 19 -216 -4 -335 -65 -36 -18 -122 -70
-191 -115 -209 -138 -282 -182 -290 -173 -7 8 -68 316 -90 453 -28 184 -4 394
60 507 17 29 28 53 26 53 -2 0 -25 -24 -52 -52z"/>
<path d="M7206 8387 l-48 -178 15 -62 c30 -118 39 -220 27 -304 -6 -43 -13
-119 -17 -168 -5 -79 -3 -97 17 -143 86 -199 371 -227 418 -39 7 24 15 53 18
63 6 15 1 14 -22 -7 -45 -41 -72 -51 -133 -51 -98 -1 -186 52 -235 141 -36 67
-42 133 -22 253 9 54 16 124 16 155 l0 58 27 -40 c64 -95 204 -258 453 -525
472 -508 638 -768 666 -1049 7 -60 6 -64 -12 -59 -10 3 -59 18 -109 32 -216
64 -497 106 -710 106 l-112 0 -14 63 c-20 89 -18 268 4 340 14 46 23 60 45 68
68 27 147 -16 195 -106 18 -34 22 -57 22 -146 0 -120 -5 -121 73 16 38 68 54
108 62 158 17 110 -8 212 -68 270 -67 66 -143 67 -199 4 -37 -42 -136 -216
-168 -295 -14 -34 -33 -105 -41 -158 -37 -218 25 -414 253 -801 207 -351 270
-490 279 -613 4 -56 3 -62 -8 -45 -34 53 -108 114 -164 135 -127 47 -190 54
-494 54 -157 -1 -302 -4 -322 -8 -49 -9 -49 0 4 105 53 108 171 230 267 277
35 18 60 32 54 32 -17 0 -147 -47 -189 -68 -104 -53 -230 -190 -276 -301 l-23
-54 -118 7 c-405 23 -672 166 -802 431 -91 184 -97 413 -15 622 16 42 25 72
20 67 -5 -5 -44 -79 -88 -164 -96 -189 -122 -283 -122 -442 0 -321 189 -578
502 -682 184 -62 179 -61 708 -58 518 3 594 -1 731 -44 86 -27 155 -80 184
-140 l17 -37 55 84 c29 46 75 126 100 177 41 82 46 99 45 155 -2 120 -61 259
-235 554 -118 200 -157 269 -157 277 0 8 113 -1 255 -20 131 -18 283 -52 420
-93 55 -16 100 -29 101 -28 3 4 75 278 95 362 57 236 9 439 -168 705 -117 176
-219 297 -595 703 -290 313 -391 457 -406 575 l-7 56 -49 -177z"/>
<path d="M15885 7992 c-36 -6 -67 -26 -81 -54 -54 -105 59 -212 156 -146 96
65 39 220 -75 200z"/>
<path d="M15562 7978 c-41 -11 -72 -59 -72 -111 0 -65 71 -119 136 -103 44 11
84 59 84 101 0 87 -65 137 -148 113z"/>
<path d="M12834 7901 c-95 -58 -46 -201 67 -201 72 0 121 69 100 141 -21 71
-102 100 -167 60z"/>
<path d="M6405 7817 c-39 -39 -46 -86 -21 -136 30 -57 116 -69 168 -22 29 26
33 35 33 80 0 66 -31 101 -99 108 -42 5 -48 3 -81 -30z"/>
<path d="M6104 7806 c-28 -28 -34 -42 -34 -76 0 -34 6 -48 34 -76 28 -28 42
-34 76 -34 34 0 48 6 76 34 28 28 34 42 34 76 0 34 -6 48 -34 76 -28 28 -42
34 -76 34 -34 0 -48 -6 -76 -34z"/>
<path d="M12541 7449 c-1 -156 12 -209 62 -256 42 -39 85 -53 168 -53 103 0
259 42 423 115 50 22 57 29 53 48 -3 12 -13 63 -22 112 -9 50 -18 95 -20 101
-2 8 -33 0 -89 -23 -179 -72 -360 -101 -447 -72 -50 17 -98 67 -114 119 -13
44 -14 41 -14 -91z"/>
<path d="M12197 7369 c-15 -11 -32 -37 -38 -58 -21 -70 34 -141 108 -141 74 0
131 83 103 150 -28 68 -117 94 -173 49z"/>
<path d="M15885 7258 c-24 -75 -60 -134 -124 -202 -89 -94 -185 -151 -355
-211 l-91 -33 3 -38 c2 -22 5 -51 8 -66 l5 -27 72 25 c308 110 476 283 497
511 4 49 7 89 5 91 -1 1 -10 -21 -20 -50z"/>
<path d="M11905 7222 c-20 -31 -84 -88 -190 -170 -88 -68 -194 -152 -235 -186
l-75 -63 -185 15 c-279 23 -438 -1 -588 -90 -84 -49 -180 -150 -241 -253 -99
-166 -99 -166 -42 -103 95 104 242 184 386 209 70 12 443 8 464 -5 6 -4 3 -19
-9 -39 -22 -38 -54 -120 -64 -162 -5 -23 0 -18 22 21 89 158 209 278 517 514
194 149 222 182 256 292 10 34 17 63 16 64 -1 0 -15 -19 -32 -44z"/>
<path d="M8624 7110 c-67 -27 -87 -129 -35 -181 60 -59 171 -26 187 57 16 87
-70 158 -152 124z"/>
<path d="M12212 7074 c-25 -17 -52 -64 -52 -89 0 -52 60 -115 110 -115 40 0
88 30 105 67 22 45 8 101 -32 132 -31 25 -99 28 -131 5z"/>
<path d="M9161 6864 c-171 -47 -252 -88 -344 -174 -163 -152 -227 -288 -544
-1150 -109 -296 -209 -520 -283 -631 -104 -157 -211 -262 -324 -319 -33 -17
-56 -30 -53 -30 32 0 345 98 392 123 72 38 233 194 293 283 105 158 169 300
347 784 143 387 233 615 284 723 84 176 198 314 322 389 75 45 70 45 -90 2z"/>
<path d="M9351 6746 l-93 -93 12 -91 c29 -213 -8 -328 -167 -513 -26 -31 -80
-94 -119 -140 -199 -233 -296 -460 -297 -694 0 -168 42 -283 140 -386 53 -56
132 -105 207 -129 l38 -12 94 93 c90 90 102 109 66 109 -41 0 -146 63 -206
123 -102 102 -146 219 -146 390 0 165 43 317 132 471 55 94 104 160 213 286
118 136 161 192 192 253 l25 50 83 -219 c45 -120 116 -303 157 -406 l74 -188
126 128 c69 70 133 142 142 159 28 55 29 111 7 218 -30 139 -61 383 -61 471 0
44 6 90 15 111 8 20 14 38 12 40 -2 2 -46 -41 -98 -94 -106 -110 -119 -137
-119 -249 0 -83 23 -274 50 -422 11 -59 22 -119 25 -133 5 -31 -5 -99 -14 -99
-3 0 -23 44 -43 98 -20 53 -78 203 -128 332 -92 233 -193 527 -206 595 -3 19
-9 35 -13 35 -3 0 -48 -42 -100 -94z"/>
<path d="M12641 6813 c-30 -13 -93 -34 -140 -46 -78 -20 -111 -22 -346 -22
-182 1 -303 6 -404 18 l-144 17 -54 -42 c-73 -56 -195 -169 -189 -175 8 -8
309 -40 496 -53 96 -7 220 -9 275 -6 l100 7 -63 -35 c-82 -45 -144 -93 -267
-205 -135 -124 -206 -177 -295 -220 -71 -34 -80 -36 -180 -36 -94 0 -110 3
-155 27 -92 49 -140 124 -153 241 l-7 62 -14 -72 c-16 -85 -11 -185 14 -233
86 -173 309 -211 517 -89 66 38 115 78 244 195 55 50 129 112 164 138 61 45
277 158 427 223 66 29 74 35 99 85 14 29 51 95 81 146 30 51 53 95 51 96 -1 2
-27 -8 -57 -21z"/>
<path d="M10124 6744 c-67 -33 -83 -112 -34 -167 35 -41 78 -52 124 -33 44 18
66 52 66 101 0 47 -19 79 -60 100 -36 19 -57 19 -96 -1z"/>
<path d="M7170 6530 c-392 -84 -732 -294 -843 -522 -28 -58 -87 -246 -87 -276
0 -4 14 18 32 48 42 74 165 196 263 259 205 135 497 235 748 257 66 6 77 9 71
23 -20 49 -43 125 -55 175 -14 64 -7 62 -129 36z"/>
<path d="M10784 6426 c-28 -28 -34 -42 -34 -76 0 -34 6 -48 34 -76 28 -28 42
-34 76 -34 34 0 48 6 76 34 28 28 34 42 34 76 0 34 -6 48 -34 76 -28 28 -42
34 -76 34 -34 0 -48 -6 -76 -34z"/>
<path d="M12427 6230 c-142 -45 -281 -180 -361 -350 -29 -61 -119 -377 -111
-388 2 -2 30 6 64 18 94 31 202 43 341 36 194 -9 332 -36 780 -156 419 -112
534 -133 725 -134 88 -1 178 3 200 7 40 8 39 8 -23 -30 -112 -68 -193 -134
-345 -281 -214 -206 -312 -273 -450 -309 -133 -34 -282 8 -367 104 -50 58 -83
157 -78 237 4 72 -7 62 -22 -20 -15 -80 -8 -214 14 -267 53 -123 202 -206 345
-194 161 14 268 79 517 313 186 175 274 245 390 310 l61 34 48 185 c26 102 46
187 43 190 -2 3 -36 -2 -74 -10 -136 -29 -328 -15 -574 41 -63 14 -241 60
-395 100 -431 114 -597 144 -791 144 -108 0 -226 -18 -289 -44 -20 -9 -39 -16
-42 -16 -2 0 11 28 29 63 19 37 66 95 113 144 109 111 198 155 326 161 150 7
251 -44 307 -157 l30 -60 17 63 c17 62 17 63 -5 115 -61 141 -247 208 -423
151z"/>
<path d="M10519 6146 c-176 -47 -316 -216 -694 -840 -76 -125 -145 -230 -153
-233 -7 -3 -52 13 -98 36 -157 78 -290 241 -329 403 l-13 53 -1 -51 c-2 -83
18 -164 61 -254 70 -146 223 -278 388 -333 125 -42 189 -48 555 -57 359 -8
469 -18 569 -53 l40 -14 -95 -21 c-181 -42 -342 -119 -635 -303 -78 -49 -145
-89 -149 -89 -4 0 -5 66 -3 146 l3 146 -69 -73 -69 -74 6 -140 c8 -216 54
-347 162 -463 90 -98 217 -152 355 -152 47 0 197 24 206 33 1 1 -39 2 -89 3
-104 1 -176 23 -264 81 -75 49 -143 132 -179 218 l-13 31 132 82 c342 210 533
288 753 307 l81 7 7 162 c8 185 16 167 -101 219 -131 58 -206 68 -580 76 -188
4 -344 9 -347 12 -4 4 112 199 289 484 118 191 257 378 340 459 71 70 160 121
231 132 45 6 44 7 -83 40 -142 37 -149 38 -214 20z"/>
<path d="M10865 5909 c-59 -36 -87 -67 -121 -131 -86 -167 -67 -418 47 -610
91 -154 178 -234 491 -449 300 -206 346 -239 420 -308 121 -112 211 -262 224
-372 l6 -56 107 61 c59 34 127 76 151 93 67 46 144 132 178 199 54 107 68 165
132 539 59 346 97 493 142 550 l21 27 -50 -28 c-300 -173 -290 -166 -308 -206
-9 -22 -62 -82 -122 -141 -58 -56 -118 -124 -134 -152 -47 -81 -36 -164 27
-214 35 -28 47 -27 111 10 l55 32 -31 13 c-69 29 -92 134 -49 223 20 41 172
201 191 201 5 0 6 -3 4 -7 -11 -18 -59 -255 -97 -478 -52 -304 -73 -396 -111
-476 -29 -62 -87 -148 -100 -149 -4 0 -9 20 -11 45 -17 146 -176 344 -398 497
-41 28 -76 52 -78 54 -2 1 12 60 32 131 19 70 60 227 91 348 60 235 125 465
175 609 16 49 28 91 26 93 -2 2 -70 -13 -151 -33 l-149 -37 -78 -73 c-54 -49
-109 -88 -171 -120 -51 -26 -111 -60 -134 -75 -109 -75 -117 -255 -15 -352 38
-37 84 -43 156 -22 l59 17 -37 13 c-49 17 -71 38 -97 93 -44 90 -20 216 53
277 17 15 68 45 112 67 45 22 100 54 124 70 23 16 42 25 42 20 0 -5 -11 -42
-26 -83 -35 -104 -113 -379 -170 -606 -27 -106 -52 -192 -56 -190 -28 9 -207
145 -272 207 -119 113 -183 207 -230 338 -64 179 -46 396 44 527 17 25 30 45
28 45 -2 0 -25 -14 -53 -31z"/>
<path d="M9268 5881 l-33 -29 -3 -141 -4 -141 35 35 c41 41 76 45 124 16 36
-23 76 -87 93 -148 6 -24 13 -43 15 -43 9 0 -5 273 -16 314 -25 95 -90 166
-151 166 -16 0 -41 -12 -60 -29z"/>
<path d="M11041 5817 c-87 -44 -84 -166 6 -203 41 -18 88 -7 121 29 81 87 -22
229 -127 174z"/>
<path d="M11903 5324 c-17 -9 -39 -32 -48 -51 -31 -64 0 -128 73 -154 72 -25
157 61 133 134 -24 71 -95 103 -158 71z"/>
<path d="M6737 5203 l-47 -4 6 -42 c59 -421 399 -691 790 -627 120 19 122 25
6 26 -181 2 -321 61 -453 193 -109 109 -174 235 -203 391 -13 72 -11 70 -99
63z"/>
<path d="M13368 5135 c-54 -30 -74 -107 -41 -155 31 -46 76 -63 128 -49 112
31 96 202 -20 215 -25 3 -50 -1 -67 -11z"/>
<path d="M13064 5122 c-96 -60 -52 -202 63 -202 134 0 141 200 8 216 -29 4
-49 0 -71 -14z"/>
<path d="M9545 4873 c-42 -65 -152 -186 -216 -237 -91 -72 -176 -113 -282
-134 l-86 -18 134 -34 134 -33 83 16 c160 32 291 119 429 285 43 52 79 99 79
103 0 4 -20 10 -45 13 -38 6 -138 37 -196 60 -11 5 -22 -2 -34 -21z"/>
<path d="M8501 4684 c-2 -210 39 -369 132 -512 86 -131 202 -220 352 -269 109
-35 320 -44 446 -18 81 16 266 83 360 131 l46 23 -28 83 c-16 46 -29 93 -29
105 0 34 -11 55 -24 45 -19 -16 -208 -90 -276 -108 -92 -26 -367 -26 -460 -1
-230 62 -399 226 -475 462 -14 44 -30 103 -34 130 -7 41 -9 29 -10 -71z"/>
<path d="M11271 4523 c-95 -305 -262 -511 -518 -639 -48 -24 -85 -44 -82 -44
29 0 273 80 336 110 149 73 292 195 385 333 41 61 98 176 98 200 0 10 -170
137 -184 137 -3 0 -18 -44 -35 -97z"/>
<path d="M8124 4446 c-43 -19 -64 -53 -64 -102 0 -51 27 -88 75 -104 129 -43
204 145 81 204 -41 19 -51 19 -92 2z"/>
<path d="M7824 4436 c-43 -19 -64 -53 -64 -102 0 -77 71 -128 146 -104 92 31
98 169 9 206 -42 17 -51 17 -91 0z"/>
<path d="M10773 4289 c-45 -13 -73 -53 -73 -105 0 -112 143 -155 201 -60 29
48 25 90 -13 130 -37 38 -68 48 -115 35z"/>
<path d="M10464 4276 c-17 -8 -39 -24 -48 -37 -22 -33 -21 -100 4 -131 83
-106 244 -6 188 116 -22 50 -92 75 -144 52z"/>
</g>
</svg>
