<?xml version="1.0" standalone="no"?>
<!DOCTYPE svg PUBLIC "-//W3C//DTD SVG 20010904//EN"
 "http://www.w3.org/TR/2001/REC-SVG-20010904/DTD/svg10.dtd">
<svg version="1.0" xmlns="http://www.w3.org/2000/svg"
 width="1200.000000pt" height="1200.000000pt" viewBox="0 0 1200.000000 1200.000000"
 preserveAspectRatio="xMidYMid meet">

<g transform="translate(0.000000,1200.000000) scale(0.100000,-0.100000)"
fill="#000000" stroke="none">
<path d="M10910 11970 c0 -23 4 -30 20 -30 16 0 20 7 20 30 0 23 -4 30 -20 30
-16 0 -20 -7 -20 -30z"/>
<path d="M1377 11963 c-4 -3 -7 -30 -7 -60 l0 -53 40 0 40 0 0 60 0 60 -33 0
c-19 0 -37 -3 -40 -7z"/>
<path d="M3460 11950 c0 -11 5 -20 10 -20 6 0 10 9 10 20 0 11 -4 20 -10 20
-5 0 -10 -9 -10 -20z"/>
<path d="M9840 11950 c0 -11 5 -20 10 -20 6 0 10 9 10 20 0 11 -4 20 -10 20
-5 0 -10 -9 -10 -20z"/>
<path d="M2530 11864 c0 -44 1 -45 28 -42 24 3 27 7 30 46 3 41 2 42 -27 42
-30 0 -31 -1 -31 -46z"/>
<path d="M8902 11868 c3 -39 6 -43 31 -46 26 -3 27 -2 27 42 0 45 -1 46 -31
46 -29 0 -30 -1 -27 -42z"/>
<path d="M3460 11885 c0 -8 5 -15 10 -15 6 0 10 7 10 15 0 8 -4 15 -10 15 -5
0 -10 -7 -10 -15z"/>
<path d="M9840 11885 c0 -8 5 -15 10 -15 6 0 10 7 10 15 0 8 -4 15 -10 15 -5
0 -10 -7 -10 -15z"/>
<path d="M10910 11850 c0 -23 4 -30 20 -30 16 0 20 7 20 30 0 23 -4 30 -20 30
-16 0 -20 -7 -20 -30z"/>
<path d="M3460 11815 c0 -8 5 -15 10 -15 6 0 10 7 10 15 0 8 -4 15 -10 15 -5
0 -10 -7 -10 -15z"/>
<path d="M9840 11815 c0 -8 5 -15 10 -15 6 0 10 7 10 15 0 8 -4 15 -10 15 -5
0 -10 -7 -10 -15z"/>
<path d="M5460 11794 c0 -15 -10 -34 -22 -44 l-23 -18 28 -7 c15 -4 34 -19 41
-33 13 -25 14 -25 25 -5 6 12 25 24 42 28 29 7 30 8 13 26 -11 13 -15 28 -11
48 6 29 6 30 -19 19 -19 -9 -30 -9 -45 0 -26 17 -29 15 -29 -14z"/>
<path d="M3460 11755 c0 -8 5 -15 10 -15 6 0 10 7 10 15 0 8 -4 15 -10 15 -5
0 -10 -7 -10 -15z"/>
<path d="M9840 11755 c0 -8 5 -15 10 -15 6 0 10 7 10 15 0 8 -4 15 -10 15 -5
0 -10 -7 -10 -15z"/>
<path d="M10910 11730 c0 -23 4 -30 20 -30 16 0 20 7 20 30 0 23 -4 30 -20 30
-16 0 -20 -7 -20 -30z"/>
<path d="M2530 11696 c0 -45 1 -46 31 -46 29 0 30 1 27 43 -3 38 -6 42 -30 45
-27 3 -28 2 -28 -42z"/>
<path d="M8907 11733 c-4 -3 -7 -24 -7 -45 0 -36 2 -38 30 -38 29 0 30 2 30
45 0 40 -2 45 -23 45 -13 0 -27 -3 -30 -7z"/>
<path d="M1377 11723 c-4 -3 -7 -30 -7 -60 l0 -53 40 0 40 0 0 60 0 60 -33 0
c-19 0 -37 -3 -40 -7z"/>
<path d="M11581 11681 c-18 -25 -30 -31 -57 -31 l-35 0 24 -32 c21 -26 23 -35
15 -60 -13 -37 -9 -40 29 -26 26 10 35 9 57 -5 34 -23 36 -22 36 19 0 27 7 41
27 57 l26 21 -34 11 c-23 8 -39 23 -50 45 l-16 33 -22 -32z"/>
<path d="M3460 11685 c0 -8 5 -15 10 -15 6 0 10 7 10 15 0 8 -4 15 -10 15 -5
0 -10 -7 -10 -15z"/>
<path d="M9840 11685 c0 -8 5 -15 10 -15 6 0 10 7 10 15 0 8 -4 15 -10 15 -5
0 -10 -7 -10 -15z"/>
<path d="M3460 11620 c0 -11 5 -20 10 -20 6 0 10 9 10 20 0 11 -4 20 -10 20
-5 0 -10 -9 -10 -20z"/>
<path d="M9840 11620 c0 -11 5 -20 10 -20 6 0 10 9 10 20 0 11 -4 20 -10 20
-5 0 -10 -9 -10 -20z"/>
<path d="M10910 11610 c0 -23 4 -30 20 -30 16 0 20 7 20 30 0 23 -4 30 -20 30
-16 0 -20 -7 -20 -30z"/>
<path d="M6810 11582 c-23 -26 -4 -59 32 -58 21 1 26 5 22 18 -2 9 0 19 6 23
7 4 1 12 -15 21 -15 8 -28 14 -29 13 0 0 -8 -8 -16 -17z"/>
<path d="M3930 11559 c-20 -16 -31 -17 -58 -9 -30 8 -33 7 -27 -8 16 -38 16
-51 0 -76 l-17 -26 31 0 c22 0 39 -8 56 -27 l24 -28 7 32 c5 24 14 34 43 45
l36 14 -32 19 c-24 14 -33 27 -35 51 l-3 31 -25 -18z"/>
<path d="M3460 11555 c0 -8 5 -15 10 -15 6 0 10 7 10 15 0 8 -4 15 -10 15 -5
0 -10 -7 -10 -15z"/>
<path d="M9840 11555 c0 -8 5 -15 10 -15 6 0 10 7 10 15 0 8 -4 15 -10 15 -5
0 -10 -7 -10 -15z"/>
<path d="M2530 11515 c0 -43 1 -45 30 -45 29 0 30 2 30 45 0 43 -1 45 -30 45
-29 0 -30 -2 -30 -45z"/>
<path d="M8900 11515 c0 -43 1 -45 30 -45 29 0 30 2 30 45 0 43 -1 45 -30 45
-29 0 -30 -2 -30 -45z"/>
<path d="M10912 11493 c2 -17 10 -29 21 -31 13 -3 17 3 17 27 0 25 -4 31 -21
31 -16 0 -20 -5 -17 -27z"/>
<path d="M3460 11485 c0 -8 5 -15 10 -15 6 0 10 7 10 15 0 8 -4 15 -10 15 -5
0 -10 -7 -10 -15z"/>
<path d="M9840 11485 c0 -8 5 -15 10 -15 6 0 10 7 10 15 0 8 -4 15 -10 15 -5
0 -10 -7 -10 -15z"/>
<path d="M1377 11483 c-4 -3 -7 -30 -7 -60 l0 -53 40 0 40 0 0 60 0 60 -33 0
c-19 0 -37 -3 -40 -7z"/>
<path d="M3460 11420 c0 -11 5 -20 10 -20 6 0 10 9 10 20 0 11 -4 20 -10 20
-5 0 -10 -9 -10 -20z"/>
<path d="M9840 11420 c0 -11 5 -20 10 -20 6 0 10 9 10 20 0 11 -4 20 -10 20
-5 0 -10 -9 -10 -20z"/>
<path d="M10912 11373 c2 -17 10 -29 21 -31 13 -3 17 3 17 27 0 25 -4 31 -21
31 -16 0 -20 -5 -17 -27z"/>
<path d="M2530 11334 c0 -44 1 -45 28 -42 24 3 27 7 30 46 3 41 2 42 -27 42
-30 0 -31 -1 -31 -46z"/>
<path d="M8902 11338 c3 -39 6 -43 31 -46 26 -3 27 -2 27 42 0 45 -1 46 -31
46 -29 0 -30 -1 -27 -42z"/>
<path d="M3460 11355 c0 -8 5 -15 10 -15 6 0 10 7 10 15 0 8 -4 15 -10 15 -5
0 -10 -7 -10 -15z"/>
<path d="M9840 11355 c0 -8 5 -15 10 -15 6 0 10 7 10 15 0 8 -4 15 -10 15 -5
0 -10 -7 -10 -15z"/>
<path d="M7701 11237 l-61 -104 -117 -7 c-64 -3 -119 -8 -121 -11 -2 -2 30
-43 72 -92 42 -48 76 -92 76 -98 0 -5 -13 -59 -29 -120 -16 -60 -28 -111 -28
-111 1 -1 52 20 114 46 l112 48 101 -65 c55 -36 103 -64 105 -62 2 2 -1 57 -7
122 -6 65 -9 119 -7 121 2 1 46 37 96 79 l93 75 -121 29 -121 28 -42 107 c-22
58 -44 109 -47 113 -4 3 -34 -41 -68 -98z"/>
<path d="M3460 11285 c0 -8 5 -15 10 -15 6 0 10 7 10 15 0 8 -4 15 -10 15 -5
0 -10 -7 -10 -15z"/>
<path d="M9840 11285 c0 -8 5 -15 10 -15 6 0 10 7 10 15 0 8 -4 15 -10 15 -5
0 -10 -7 -10 -15z"/>
<path d="M10912 11253 c2 -17 10 -29 21 -31 13 -3 17 3 17 27 0 25 -4 31 -21
31 -16 0 -20 -5 -17 -27z"/>
<path d="M10222 11232 c-11 -35 -17 -41 -49 -47 l-38 -7 33 -26 c26 -22 32
-34 32 -66 l0 -38 33 24 c30 24 34 24 71 12 35 -13 37 -12 31 4 -18 42 -17 64
4 93 l22 29 -38 0 c-30 0 -43 6 -64 31 l-25 31 -12 -40z"/>
<path d="M1377 11243 c-4 -3 -7 -30 -7 -60 l0 -53 40 0 40 0 0 60 0 60 -33 0
c-19 0 -37 -3 -40 -7z"/>
<path d="M3460 11225 c0 -8 5 -15 10 -15 6 0 10 7 10 15 0 8 -4 15 -10 15 -5
0 -10 -7 -10 -15z"/>
<path d="M9840 11225 c0 -8 5 -15 10 -15 6 0 10 7 10 15 0 8 -4 15 -10 15 -5
0 -10 -7 -10 -15z"/>
<path d="M2530 11166 c0 -45 1 -46 31 -46 29 0 30 1 27 43 -3 38 -6 42 -30 45
-27 3 -28 2 -28 -42z"/>
<path d="M8907 11203 c-4 -3 -7 -24 -7 -45 0 -36 2 -38 30 -38 29 0 30 2 30
45 0 40 -2 45 -23 45 -13 0 -27 -3 -30 -7z"/>
<path d="M3460 11155 c0 -8 5 -15 10 -15 6 0 10 7 10 15 0 8 -4 15 -10 15 -5
0 -10 -7 -10 -15z"/>
<path d="M9840 11155 c0 -8 5 -15 10 -15 6 0 10 7 10 15 0 8 -4 15 -10 15 -5
0 -10 -7 -10 -15z"/>
<path d="M10912 11133 c2 -17 10 -29 21 -31 13 -3 17 3 17 27 0 25 -4 31 -21
31 -16 0 -20 -5 -17 -27z"/>
<path d="M3460 11090 c0 -11 5 -20 10 -20 6 0 10 9 10 20 0 11 -4 20 -10 20
-5 0 -10 -9 -10 -20z"/>
<path d="M9840 11090 c0 -11 5 -20 10 -20 6 0 10 9 10 20 0 11 -4 20 -10 20
-5 0 -10 -9 -10 -20z"/>
<path d="M9253 11079 c4 -16 0 -30 -15 -46 l-21 -23 26 0 c20 0 31 -7 39 -26
l12 -25 13 25 c8 15 22 26 33 26 24 0 26 13 5 30 -9 8 -13 21 -9 36 6 23 5 24
-19 13 -18 -8 -30 -8 -47 1 -21 11 -22 11 -17 -11z"/>
<path d="M3460 11025 c0 -8 5 -15 10 -15 6 0 10 7 10 15 0 8 -4 15 -10 15 -5
0 -10 -7 -10 -15z"/>
<path d="M4713 11009 c-30 -31 -33 -31 -74 -21 -24 6 -45 10 -47 8 -1 -2 5
-22 14 -44 15 -39 15 -43 -3 -69 -35 -50 -35 -50 15 -45 46 4 49 2 77 -34 l29
-38 11 44 c10 39 17 48 55 66 l44 21 -41 26 c-38 24 -42 31 -45 72 l-3 46 -32
-32z"/>
<path d="M9840 11025 c0 -8 5 -15 10 -15 6 0 10 7 10 15 0 8 -4 15 -10 15 -5
0 -10 -7 -10 -15z"/>
<path d="M10912 11013 c2 -17 10 -29 21 -31 13 -3 17 3 17 27 0 25 -4 31 -21
31 -16 0 -20 -5 -17 -27z"/>
<path d="M2530 10985 c0 -43 1 -45 30 -45 29 0 30 2 30 45 0 43 -1 45 -30 45
-29 0 -30 -2 -30 -45z"/>
<path d="M8900 10985 c0 -43 1 -45 30 -45 29 0 30 2 30 45 0 43 -1 45 -30 45
-29 0 -30 -2 -30 -45z"/>
<path d="M1377 11003 c-4 -3 -7 -30 -7 -60 l0 -53 40 0 40 0 0 60 0 60 -33 0
c-19 0 -37 -3 -40 -7z"/>
<path d="M607 10949 l-35 -40 -54 9 c-29 6 -54 9 -56 7 -2 -2 8 -26 23 -54
l26 -51 -27 -46 c-15 -25 -24 -47 -21 -50 3 -3 29 -1 58 5 l53 12 42 -42 42
-41 7 56 c7 57 8 57 62 84 l54 26 -55 28 c-54 27 -55 28 -61 83 -4 30 -11 55
-15 55 -5 0 -24 -18 -43 -41z"/>
<path d="M3460 10955 c0 -8 5 -15 10 -15 6 0 10 7 10 15 0 8 -4 15 -10 15 -5
0 -10 -7 -10 -15z"/>
<path d="M9840 10955 c0 -8 5 -15 10 -15 6 0 10 7 10 15 0 8 -4 15 -10 15 -5
0 -10 -7 -10 -15z"/>
<path d="M10917 10923 c-4 -3 -7 -17 -7 -30 0 -16 6 -23 20 -23 16 0 20 7 20
30 0 28 -17 40 -33 23z"/>
<path d="M6190 10864 l-43 -57 -74 7 c-83 7 -81 11 -24 -68 l35 -49 -26 -73
-26 -72 47 14 c96 30 96 30 158 -20 l58 -46 3 78 3 78 55 33 c30 19 57 37 59
42 3 4 -26 18 -64 30 l-69 22 -18 69 c-10 37 -21 68 -25 68 -4 0 -26 -25 -49
-56z"/>
<path d="M3460 10890 c0 -11 5 -20 10 -20 6 0 10 9 10 20 0 11 -4 20 -10 20
-5 0 -10 -9 -10 -20z"/>
<path d="M9840 10890 c0 -11 5 -20 10 -20 6 0 10 9 10 20 0 11 -4 20 -10 20
-5 0 -10 -9 -10 -20z"/>
<path d="M2530 10810 c0 -38 2 -40 30 -40 28 0 30 2 30 40 0 38 -2 40 -30 40
-28 0 -30 -2 -30 -40z"/>
<path d="M8900 10810 c0 -38 2 -40 30 -40 28 0 30 2 30 40 0 38 -2 40 -30 40
-28 0 -30 -2 -30 -40z"/>
<path d="M3460 10825 c0 -8 5 -15 10 -15 6 0 10 7 10 15 0 8 -4 15 -10 15 -5
0 -10 -7 -10 -15z"/>
<path d="M9840 10825 c0 -8 5 -15 10 -15 6 0 10 7 10 15 0 8 -4 15 -10 15 -5
0 -10 -7 -10 -15z"/>
<path d="M10917 10803 c-4 -3 -7 -17 -7 -30 0 -16 6 -23 20 -23 16 0 20 7 20
30 0 28 -17 40 -33 23z"/>
<path d="M11555 10758 c5 -26 2 -38 -14 -52 -29 -26 -26 -36 9 -36 23 0 33 -6
42 -25 6 -14 14 -25 18 -25 4 0 12 11 18 25 8 16 20 25 35 25 35 0 40 11 16
36 -16 18 -20 31 -16 54 l7 30 -32 -16 c-29 -15 -33 -15 -60 1 l-29 17 6 -34z"/>
<path d="M3460 10760 c0 -11 5 -20 10 -20 6 0 10 9 10 20 0 11 -4 20 -10 20
-5 0 -10 -9 -10 -20z"/>
<path d="M9840 10760 c0 -11 5 -20 10 -20 6 0 10 9 10 20 0 11 -4 20 -10 20
-5 0 -10 -9 -10 -20z"/>
<path d="M1377 10763 c-4 -3 -7 -30 -7 -60 l0 -53 40 0 40 0 0 60 0 60 -33 0
c-19 0 -37 -3 -40 -7z"/>
<path d="M3442 10718 c-15 -15 -16 -55 -2 -63 6 -4 8 -15 5 -25 -3 -11 -2 -28
4 -38 9 -16 4 -23 -27 -43 -20 -13 -42 -35 -48 -49 -41 -86 -51 -103 -66 -117
-16 -14 -18 -39 -18 -225 l0 -210 35 -41 c19 -22 35 -50 35 -61 1 -27 20 -52
62 -81 30 -21 34 -29 44 -101 l11 -79 2 73 c1 61 4 75 23 90 53 42 78 72 78
94 0 14 16 43 35 65 l35 41 0 216 c0 182 -2 218 -15 222 -20 8 -55 66 -55 92
0 19 -61 82 -79 82 -12 0 -7 80 6 105 23 45 -30 88 -65 53z m42 -4 c20 -8 21
-38 1 -54 -29 -24 -60 21 -33 48 14 14 12 14 32 6z m-136 -386 c-3 -7 -11 -13
-18 -13 -7 0 -15 6 -17 13 -3 7 4 12 17 12 13 0 20 -5 18 -12z m60 0 c-3 -7
-11 -13 -18 -13 -7 0 -15 6 -17 13 -3 7 4 12 17 12 13 0 20 -5 18 -12z m90 0
c-3 -7 -15 -13 -28 -13 -13 0 -25 6 -27 13 -3 8 6 12 27 12 21 0 30 -4 28 -12z
m70 0 c-6 -18 -28 -21 -28 -4 0 9 7 16 16 16 9 0 14 -5 12 -12z m60 0 c-3 -7
-11 -13 -18 -13 -7 0 -15 6 -17 13 -3 7 4 12 17 12 13 0 20 -5 18 -12z m-231
-235 c-2 -37 -3 -9 -3 62 0 72 1 102 3 68 2 -34 2 -93 0 -130z m163 67 c0 -73
-4 -120 -10 -120 -6 0 -10 47 -10 120 0 73 4 120 10 120 6 0 10 -47 10 -120z
m-60 65 c28 -14 28 -15 27 -102 l-2 -88 -40 -1 c-65 -1 -65 -1 -65 96 0 80 2
88 23 98 12 6 23 11 25 11 2 1 16 -6 32 -14z m-140 -14 c6 -12 7 -29 1 -43 -5
-13 -5 -32 -1 -43 4 -11 6 -35 6 -54 -1 -30 -4 -34 -28 -35 l-28 -2 2 91 c1
83 7 104 30 105 4 0 12 -9 18 -19z m268 -82 l3 -94 -26 0 c-22 0 -25 5 -26 35
-1 19 0 40 1 45 1 6 2 15 2 20 -5 64 -3 78 9 86 28 17 34 1 37 -92z m-278
-144 c0 -8 -9 -15 -20 -15 -11 0 -20 7 -20 15 0 8 9 15 20 15 11 0 20 -7 20
-15z m60 0 c0 -8 -9 -15 -20 -15 -11 0 -20 7 -20 15 0 8 9 15 20 15 11 0 20
-7 20 -15z m90 0 c0 -10 -10 -15 -30 -15 -20 0 -30 5 -30 15 0 10 10 15 30 15
20 0 30 -5 30 -15z m70 0 c0 -8 -7 -15 -15 -15 -8 0 -15 7 -15 15 0 8 7 15 15
15 8 0 15 -7 15 -15z m60 0 c0 -8 -9 -15 -20 -15 -11 0 -20 7 -20 15 0 8 9 15
20 15 11 0 20 -7 20 -15z"/>
<path d="M9810 10710 c-11 -21 -5 -60 9 -60 4 0 7 -18 6 -40 -1 -34 -7 -45
-43 -76 -23 -19 -42 -44 -42 -55 0 -21 -34 -75 -60 -96 -12 -9 -15 -47 -15
-220 l0 -209 28 -35 c15 -19 32 -39 37 -46 6 -7 10 -23 10 -37 0 -22 35 -61
76 -84 10 -6 18 -30 21 -71 7 -74 23 -63 23 17 0 28 4 52 10 52 23 0 80 64 90
100 6 22 24 52 40 69 l30 29 0 211 c0 189 -2 211 -18 223 -26 19 -56 70 -57
97 -1 23 -25 49 -75 82 -21 14 -23 19 -12 32 8 9 11 25 7 36 -3 10 -1 22 5 26
14 8 13 48 -2 63 -19 19 -56 14 -68 -8z m64 -13 c9 -14 7 -21 -7 -32 -25 -18
-47 -9 -47 19 0 40 32 48 54 13z m-154 -372 c0 -8 -7 -15 -15 -15 -8 0 -15 7
-15 15 0 8 7 15 15 15 8 0 15 -7 15 -15z m60 0 c0 -8 -7 -15 -15 -15 -8 0 -15
7 -15 15 0 8 7 15 15 15 8 0 15 -7 15 -15z m98 3 c-3 -7 -15 -13 -28 -13 -13
0 -25 6 -27 13 -3 8 6 12 27 12 21 0 30 -4 28 -12z m70 0 c-3 -7 -11 -13 -18
-13 -7 0 -15 6 -17 13 -3 7 4 12 17 12 13 0 20 -5 18 -12z m52 -3 c0 -8 -7
-15 -15 -15 -8 0 -15 7 -15 15 0 8 7 15 15 15 8 0 15 -7 15 -15z m-233 -227
c-2 -35 -3 -7 -3 62 0 69 1 97 3 63 2 -35 2 -91 0 -125z m160 -5 c-2 -37 -3
-9 -3 62 0 72 1 102 3 68 2 -34 2 -93 0 -130z m-52 131 c23 -15 25 -22 25
-104 l0 -88 -52 2 -53 3 -3 83 c-3 78 -1 86 20 102 28 22 33 22 63 2z m118 1
c11 -10 15 -40 16 -105 1 -89 -3 -102 -27 -78 -9 9 -12 9 -12 -1 0 -7 -5 -9
-10 -6 -6 4 -9 43 -8 93 3 77 5 87 21 86 14 -2 15 1 6 12 -15 19 -4 18 14 -1z
m-259 -11 c10 -26 6 -192 -4 -169 -5 11 -9 14 -9 7 -1 -7 -5 -10 -11 -7 -5 3
-10 1 -10 -5 0 -6 -4 -9 -8 -6 -5 3 -8 24 -7 48 0 32 4 42 15 40 13 -2 13 -1
0 10 -19 16 -23 35 -15 66 4 16 11 22 21 18 9 -3 12 -1 9 4 -3 6 -2 10 3 10 6
0 13 -7 16 -16z m-14 -229 c0 -8 -7 -15 -15 -15 -8 0 -15 7 -15 15 0 8 7 15
15 15 8 0 15 -7 15 -15z m60 0 c0 -8 -7 -15 -15 -15 -8 0 -15 7 -15 15 0 8 7
15 15 15 8 0 15 -7 15 -15z m98 -2 c2 -9 -7 -13 -27 -13 -21 0 -31 5 -31 16 0
19 51 16 58 -3z m70 0 c2 -8 -5 -13 -17 -13 -12 0 -21 6 -21 16 0 18 31 15 38
-3z m52 2 c0 -8 -7 -15 -15 -15 -8 0 -15 7 -15 15 0 8 7 15 15 15 8 0 15 -7
15 -15z"/>
<path d="M10917 10683 c-4 -3 -7 -17 -7 -30 0 -16 6 -23 20 -23 16 0 20 7 20
30 0 28 -17 40 -33 23z"/>
<path d="M2530 10636 c0 -45 1 -46 31 -46 29 0 30 1 27 43 -3 38 -6 42 -30 45
-27 3 -28 2 -28 -42z"/>
<path d="M8907 10673 c-4 -3 -7 -24 -7 -45 0 -36 2 -38 30 -38 29 0 30 2 30
45 0 40 -2 45 -23 45 -13 0 -27 -3 -30 -7z"/>
<path d="M10917 10563 c-4 -3 -7 -17 -7 -30 0 -16 6 -23 20 -23 16 0 20 7 20
30 0 28 -17 40 -33 23z"/>
<path d="M1377 10523 c-4 -3 -7 -30 -7 -60 l0 -53 40 0 40 0 0 60 0 60 -33 0
c-19 0 -37 -3 -40 -7z"/>
<path d="M2530 10454 c0 -44 1 -45 28 -42 24 3 27 7 30 46 3 41 2 42 -27 42
-30 0 -31 -1 -31 -46z"/>
<path d="M8902 10458 c3 -39 6 -43 31 -46 26 -3 27 -2 27 42 0 45 -1 46 -31
46 -29 0 -30 -1 -27 -42z"/>
<path d="M10910 10420 c0 -23 4 -30 20 -30 16 0 20 7 20 30 0 23 -4 30 -20 30
-16 0 -20 -7 -20 -30z"/>
<path d="M2128 10361 c-37 -28 -73 -51 -81 -51 -7 0 -47 11 -87 25 -40 14 -75
25 -76 25 -2 0 11 -38 28 -85 l30 -84 -51 -70 c-28 -39 -51 -74 -51 -77 0 -4
39 -4 88 -1 l87 6 54 -76 55 -75 26 88 26 88 79 26 c44 15 80 30 80 33 0 3
-29 27 -65 52 l-65 46 -5 90 -5 91 -67 -51z"/>
<path d="M10910 10300 c0 -23 4 -30 20 -30 16 0 20 7 20 30 0 23 -4 30 -20 30
-16 0 -20 -7 -20 -30z"/>
<path d="M2530 10280 c0 -38 2 -40 30 -40 28 0 30 2 30 40 0 38 -2 40 -30 40
-28 0 -30 -2 -30 -40z"/>
<path d="M8900 10280 c0 -38 2 -40 30 -40 28 0 30 2 30 40 0 38 -2 40 -30 40
-28 0 -30 -2 -30 -40z"/>
<path d="M1377 10283 c-4 -3 -7 -30 -7 -60 l0 -53 40 0 40 0 0 60 0 60 -33 0
c-19 0 -37 -3 -40 -7z"/>
<path d="M10910 10180 c0 -23 4 -30 20 -30 16 0 20 7 20 30 0 23 -4 30 -20 30
-16 0 -20 -7 -20 -30z"/>
<path d="M2530 10105 c0 -43 1 -45 30 -45 29 0 30 2 30 45 0 43 -1 45 -30 45
-29 0 -30 -2 -30 -45z"/>
<path d="M8900 10105 c0 -43 1 -45 30 -45 29 0 30 2 30 45 0 43 -1 45 -30 45
-29 0 -30 -2 -30 -45z"/>
<path d="M10910 10060 c0 -23 4 -30 20 -30 16 0 20 7 20 30 0 23 -4 30 -20 30
-16 0 -20 -7 -20 -30z"/>
<path d="M11421 10053 c7 -35 5 -41 -23 -70 l-32 -33 30 0 c36 0 57 -15 77
-54 l15 -30 17 35 c22 43 31 49 74 49 l35 0 -33 34 c-29 29 -32 38 -26 70 8
41 6 42 -37 20 -29 -15 -34 -15 -59 0 -41 24 -48 21 -38 -21z"/>
<path d="M1377 10043 c-4 -3 -7 -30 -7 -60 l0 -53 40 0 40 0 0 60 0 60 -33 0
c-19 0 -37 -3 -40 -7z"/>
<path d="M546 9950 c6 -37 4 -45 -25 -74 l-33 -34 47 -6 c42 -7 48 -11 64 -47
l18 -39 18 39 c16 36 22 41 62 47 l45 6 -31 32 c-27 28 -29 36 -24 75 l6 45
-36 -23 -36 -22 -41 21 -40 21 6 -41z"/>
<path d="M2530 9924 c0 -44 1 -45 28 -42 24 3 27 7 30 46 3 41 2 42 -27 42
-30 0 -31 -1 -31 -46z"/>
<path d="M8902 9928 c3 -39 6 -43 31 -46 26 -3 27 -2 27 42 0 45 -1 46 -31 46
-29 0 -30 -1 -27 -42z"/>
<path d="M10910 9940 c0 -23 4 -30 20 -30 16 0 20 7 20 30 0 23 -4 30 -20 30
-16 0 -20 -7 -20 -30z"/>
<path d="M10910 9820 c0 -23 4 -30 20 -30 16 0 20 7 20 30 0 23 -4 30 -20 30
-16 0 -20 -7 -20 -30z"/>
<path d="M1377 9803 c-4 -3 -7 -30 -7 -60 l0 -53 40 0 40 0 0 60 0 60 -33 0
c-19 0 -37 -3 -40 -7z"/>
<path d="M2530 9756 c0 -45 1 -46 31 -46 29 0 30 1 27 43 -3 38 -6 42 -30 45
-27 3 -28 2 -28 -42z"/>
<path d="M8907 9793 c-4 -3 -7 -24 -7 -45 0 -36 2 -38 30 -38 29 0 30 2 30 45
0 40 -2 45 -23 45 -13 0 -27 -3 -30 -7z"/>
<path d="M10910 9700 c0 -23 4 -30 20 -30 16 0 20 7 20 30 0 23 -4 30 -20 30
-16 0 -20 -7 -20 -30z"/>
<path d="M7670 9621 c0 -61 -15 -87 -64 -116 -26 -15 -46 -28 -46 -30 0 -1 26
-12 59 -24 l58 -21 13 -61 13 -62 43 49 42 49 62 -3 61 -4 -36 54 -36 55 21
47 c11 26 20 52 20 56 0 5 -21 3 -47 -5 -65 -20 -65 -20 -113 20 -23 19 -44
35 -46 35 -2 0 -4 -18 -4 -39z"/>
<path d="M10879 9631 c-35 -28 -33 -95 3 -125 22 -18 24 -23 12 -34 -16 -15
-19 -58 -4 -67 6 -3 10 -16 10 -28 0 -16 -16 -31 -55 -55 -72 -43 -110 -93
-110 -143 0 -22 -4 -39 -10 -39 -9 0 -26 -26 -53 -82 -2 -5 116 -8 262 -8
l266 0 -32 45 c-18 25 -34 45 -38 45 -3 0 -4 18 -2 39 3 33 -1 45 -33 79 -20
22 -58 55 -86 72 -51 34 -59 49 -34 70 19 16 19 50 1 75 -12 17 -11 21 10 38
18 14 24 28 24 57 0 68 -78 104 -131 61z m91 -21 c11 -11 20 -29 20 -40 0 -22
-33 -60 -53 -60 -27 0 -57 31 -57 60 0 18 8 34 22 44 30 21 44 20 68 -4z"/>
<path d="M2530 9575 c0 -43 1 -45 30 -45 29 0 30 2 30 45 0 43 -1 45 -30 45
-29 0 -30 -2 -30 -45z"/>
<path d="M8900 9575 c0 -43 1 -45 30 -45 29 0 30 2 30 45 0 43 -1 45 -30 45
-29 0 -30 -2 -30 -45z"/>
<path d="M5480 9575 c-21 -22 -30 -25 -62 -20 -41 7 -44 3 -24 -35 12 -21 12
-29 0 -52 -20 -38 -18 -41 20 -35 27 4 38 1 56 -18 27 -29 40 -24 40 14 0 22
8 31 37 45 l38 18 -35 18 c-28 14 -36 25 -40 55 l-5 37 -25 -27z"/>
<path d="M1377 9563 c-4 -3 -7 -30 -7 -60 l0 -53 40 0 40 0 0 60 0 60 -33 0
c-19 0 -37 -3 -40 -7z"/>
<path d="M2530 9394 c0 -44 1 -45 28 -42 24 3 27 7 30 46 3 41 2 42 -27 42
-30 0 -31 -1 -31 -46z"/>
<path d="M8902 9398 c3 -39 6 -43 31 -46 26 -3 27 -2 27 42 0 45 -1 46 -31 46
-29 0 -30 -1 -27 -42z"/>
<path d="M6340 9368 c0 -16 -8 -28 -22 -35 l-23 -10 22 -7 c13 -4 26 -19 29
-33 6 -23 8 -24 19 -10 7 10 25 17 40 17 23 0 26 2 15 15 -7 8 -10 27 -7 41 4
22 2 25 -16 20 -12 -3 -29 2 -39 11 -17 15 -18 14 -18 -9z"/>
<path d="M1377 9323 c-4 -3 -7 -30 -7 -60 l0 -53 40 0 40 0 0 60 0 60 -33 0
c-19 0 -37 -3 -40 -7z"/>
<path d="M2474 9286 c-29 -29 -34 -41 -34 -82 0 -42 4 -51 39 -84 38 -36 38
-37 20 -59 -25 -30 -24 -72 1 -104 11 -14 20 -32 20 -41 0 -8 -31 -35 -69 -60
-91 -58 -148 -111 -172 -157 -21 -41 -24 -85 -9 -109 7 -11 4 -16 -12 -20 -14
-4 -36 -30 -60 -70 l-37 -65 194 -3 c106 -1 284 -1 395 0 l201 3 -46 65 c-25
36 -50 66 -55 68 -5 2 -7 23 -4 46 5 30 1 54 -11 80 -22 45 -107 124 -180 166
-61 35 -71 62 -35 95 29 26 26 79 -5 110 l-24 25 29 15 c18 9 34 30 45 58 15
40 15 46 -1 86 -19 49 -55 71 -115 71 -33 0 -47 -6 -75 -34z m119 -8 c32 -17
46 -39 47 -74 0 -41 -42 -84 -82 -84 -38 0 -88 48 -88 85 0 32 50 85 80 85 12
0 31 -5 43 -12z"/>
<path d="M8852 9292 c-57 -54 -48 -150 17 -190 30 -18 31 -19 12 -36 -28 -25
-31 -62 -10 -104 11 -20 19 -43 19 -52 0 -8 -26 -31 -57 -50 -69 -40 -159
-123 -180 -164 -10 -19 -14 -46 -11 -78 4 -40 2 -48 -11 -48 -14 0 -91 -114
-91 -135 0 -3 176 -5 390 -5 215 0 390 4 390 8 0 13 -90 132 -100 132 -5 0 -5
13 2 31 25 71 -33 155 -168 244 -46 31 -84 61 -84 66 0 6 12 25 26 42 21 25
25 38 20 66 -3 20 -14 43 -24 51 -17 14 -16 16 21 52 38 36 39 39 35 90 -7 71
-47 108 -117 108 -40 0 -54 -5 -79 -28z m134 -26 c21 -18 28 -32 28 -61 0 -74
-84 -110 -138 -60 -79 73 28 192 110 121z"/>
<path d="M946 9176 c-7 -41 -12 -48 -49 -68 l-42 -21 40 -18 c42 -19 53 -36
54 -83 l1 -30 34 33 c32 31 38 33 82 26 l47 -7 -23 38 c-24 38 -24 37 5 107 7
16 3 17 -34 11 -38 -6 -45 -4 -75 25 l-34 33 -6 -46z"/>
<path d="M4500 9195 c-7 -8 -25 -15 -41 -15 -33 0 -33 0 -18 -33 8 -18 8 -30
-1 -47 -12 -22 -11 -22 16 -17 21 4 35 0 52 -16 l22 -20 0 25 c0 17 10 33 28
46 l27 21 -27 10 c-18 7 -28 18 -28 30 0 26 -15 34 -30 16z"/>
<path d="M1377 9083 c-4 -3 -7 -30 -7 -60 l0 -53 40 0 40 0 0 60 0 60 -33 0
c-19 0 -37 -3 -40 -7z"/>
<path d="M3594 9050 c-17 -17 -25 -19 -48 -10 -42 15 -45 13 -33 -25 9 -31 8
-39 -12 -65 l-22 -30 40 0 c33 0 43 -5 62 -32 l23 -31 11 39 c8 31 17 40 43
48 40 11 40 20 2 43 -24 14 -30 24 -30 50 0 38 -8 41 -36 13z"/>
<path d="M10628 9029 c-10 -5 -18 -21 -18 -34 l0 -25 325 0 c314 0 325 1 325
19 0 11 -7 27 -16 35 -13 14 -55 16 -307 16 -180 0 -299 -5 -309 -11z"/>
<path d="M10600 8915 l0 -45 330 0 330 0 0 45 0 45 -330 0 -330 0 0 -45z m108
8 c-2 -22 -8 -28 -28 -28 -20 0 -26 6 -28 28 -3 24 0 27 28 27 28 0 31 -3 28
-27z m110 0 c-2 -22 -9 -29 -30 -31 -25 -3 -28 0 -28 27 0 28 3 31 31 31 27 0
30 -3 27 -27z m170 5 c-3 -20 -9 -23 -53 -23 -44 0 -50 3 -53 23 -3 21 0 22
53 22 53 0 56 -1 53 -22z m122 -3 c0 -21 -5 -25 -30 -25 -25 0 -30 4 -30 25 0
21 5 25 30 25 25 0 30 -4 30 -25z m100 -1 c0 -22 -4 -25 -27 -22 -20 2 -29 9
-31 26 -3 19 1 22 27 22 27 0 31 -4 31 -26z"/>
<path d="M10602 8618 l3 -243 328 -3 327 -2 0 245 0 245 -330 0 -330 0 2 -242z
m198 -3 c0 -143 -4 -225 -10 -225 -6 0 -10 82 -10 225 0 143 4 225 10 225 6 0
10 -82 10 -225z m280 -1 c0 -147 -3 -223 -10 -219 -6 4 -10 90 -10 226 0 139
4 219 10 219 6 0 10 -82 10 -226z m-341 91 c4 -11 7 -85 7 -165 l-1 -145 -50
-2 c-53 -1 -65 7 -65 45 0 16 4 21 13 16 9 -6 9 -4 1 7 -6 8 -11 64 -12 126
l-2 112 31 36 31 35 20 -22 c11 -13 23 -32 27 -43z m215 54 c14 -7 23 -16 20
-21 -3 -5 -2 -7 3 -6 4 1 18 -1 31 -6 22 -7 22 -10 22 -172 l0 -164 -99 0 -99
0 -1 163 0 162 47 27 c26 15 48 27 49 27 1 1 13 -4 27 -10z m273 -203 l-2
-161 -50 0 -50 1 -3 159 -3 158 28 29 27 28 28 -27 28 -27 -3 -160z"/>
<path d="M10860 8695 c0 -8 2 -15 4 -15 2 0 6 7 10 15 3 8 1 15 -4 15 -6 0
-10 -7 -10 -15z"/>
<path d="M1377 8843 c-4 -3 -7 -30 -7 -60 l0 -53 40 0 40 0 0 60 0 60 -33 0
c-19 0 -37 -3 -40 -7z"/>
<path d="M10162 8780 c-8 -13 -23 -20 -43 -20 l-31 0 17 -26 c14 -21 15 -31 6
-51 -11 -24 -10 -24 20 -18 21 5 36 2 48 -10 18 -15 19 -14 25 12 4 15 17 35
28 44 21 16 21 16 -8 30 -17 8 -30 24 -32 37 -4 27 -13 28 -30 2z"/>
<path d="M1377 8603 c-4 -3 -7 -30 -7 -60 l0 -53 40 0 40 0 0 60 0 60 -33 0
c-19 0 -37 -3 -40 -7z"/>
<path d="M375 8480 c-4 -7 -19 -10 -36 -6 -27 5 -27 4 -22 -28 3 -20 1 -36 -6
-40 -20 -13 -12 -28 11 -20 17 5 27 0 43 -21 l22 -27 6 30 c4 22 13 31 34 37
l28 7 -22 16 c-12 9 -23 26 -25 36 -4 23 -23 32 -33 16z"/>
<path d="M2111 8393 c-17 -16 -31 -37 -33 -48 -3 -20 3 -20 480 -23 304 -1
482 1 482 7 0 6 -5 22 -12 36 -24 54 -32 55 -477 55 l-411 0 -29 -27z"/>
<path d="M8498 8405 c-29 -16 -48 -43 -48 -69 0 -14 51 -16 480 -16 l480 0 0
23 c0 13 -12 34 -26 48 l-26 24 -416 2 c-354 2 -421 0 -444 -12z"/>
<path d="M1377 8363 c-4 -3 -7 -30 -7 -60 l0 -53 40 0 40 0 0 60 0 60 -33 0
c-19 0 -37 -3 -40 -7z"/>
<path d="M10600 8315 l0 -45 330 0 330 0 0 45 0 45 -330 0 -330 0 0 -45z m108
-7 c3 -25 0 -28 -27 -28 -28 0 -31 3 -31 31 0 27 3 30 28 27 21 -2 28 -9 30
-30z m110 0 c3 -25 0 -28 -27 -28 -28 0 -31 3 -31 31 0 27 3 30 28 27 21 -2
28 -9 30 -30z m160 20 c7 -7 12 -20 12 -30 0 -15 -9 -18 -55 -18 -51 0 -55 2
-55 24 0 13 6 27 13 29 23 10 73 7 85 -5z m130 -20 c3 -25 0 -28 -27 -28 -26
0 -31 4 -31 23 0 30 9 39 35 35 13 -2 21 -12 23 -30z m100 0 c3 -25 0 -28 -27
-28 -26 0 -31 4 -31 23 0 30 9 39 35 35 13 -2 21 -12 23 -30z"/>
<path d="M2070 8240 l0 -70 485 0 485 0 0 70 0 70 -485 0 -485 0 0 -70z m160
16 c0 -40 -19 -59 -57 -54 -25 3 -28 7 -31 46 l-3 42 45 0 c46 0 46 0 46 -34z
m148 -8 c-3 -39 -6 -43 -31 -46 -38 -5 -57 14 -57 54 0 34 0 34 46 34 l45 0
-3 -42z m262 18 c0 -40 -25 -56 -85 -56 -60 0 -85 16 -85 56 0 24 2 24 85 24
83 0 85 0 85 -24z m178 -13 c-3 -37 -4 -38 -43 -38 -39 0 -40 1 -43 38 l-3 37
46 0 46 0 -3 -37z m150 0 c-3 -37 -4 -38 -43 -38 -39 0 -40 1 -43 38 l-3 37
46 0 46 0 -3 -37z"/>
<path d="M8450 8240 l0 -70 485 0 485 0 0 70 0 70 -485 0 -485 0 0 -70z m148
8 c-3 -39 -6 -43 -31 -46 -38 -5 -57 14 -57 54 0 34 0 34 46 34 l45 0 -3 -42z
m162 3 c0 -44 -20 -58 -66 -47 -20 5 -24 12 -24 46 l0 40 45 0 45 0 0 -39z
m260 17 c0 -40 -28 -58 -90 -58 -63 0 -80 11 -80 52 l0 28 85 0 c81 0 85 -1
85 -22z m168 -15 c-3 -35 -6 -38 -37 -41 -38 -4 -51 9 -51 51 0 26 2 27 46 27
l45 0 -3 -37z m160 0 c-3 -37 -4 -38 -43 -38 -39 0 -40 1 -43 38 l-3 37 46 0
46 0 -3 -37z"/>
<path d="M10610 8235 c0 -14 8 -29 19 -35 12 -6 127 -10 303 -10 240 0 287 2
306 16 12 8 22 24 22 35 0 18 -10 19 -325 19 l-325 0 0 -25z"/>
<path d="M10690 8140 c12 -23 27 -43 35 -47 10 -3 13 -13 9 -27 -11 -47 37
-112 126 -168 l45 -29 16 -142 c15 -141 15 -142 22 -77 3 36 9 100 13 143 l6
78 51 33 c29 18 67 50 85 71 28 32 33 44 30 76 -2 21 -1 40 2 41 9 4 60 74 60
81 0 4 -117 7 -260 7 l-260 0 20 -40z"/>
<path d="M4560 8104 c-348 -240 -579 -505 -756 -869 -164 -336 -234 -665 -221
-1039 11 -324 81 -603 222 -891 329 -670 954 -1116 1705 -1216 122 -17 418
-17 540 0 472 63 908 270 1244 592 89 85 246 259 246 273 0 3 -42 -22 -92 -55
-120 -78 -345 -189 -474 -233 -264 -90 -465 -120 -759 -113 -221 5 -332 20
-522 72 -423 114 -826 375 -1096 710 -327 406 -489 860 -489 1370 0 365 71
664 234 989 75 149 148 259 311 464 15 20 7 15 -93 -54z m-146 -206 c-178
-281 -296 -616 -335 -951 -17 -148 -6 -485 20 -623 51 -270 152 -535 291 -764
244 -401 635 -728 1075 -897 112 -43 107 -40 95 -64 -8 -14 -21 -19 -51 -19
l-41 0 20 -31 c18 -29 19 -35 6 -65 -8 -19 -13 -34 -12 -34 2 0 19 4 38 10 30
9 37 7 62 -17 l28 -27 0 37 c0 29 6 41 30 59 l31 22 -33 16 c-20 9 -34 24 -36
38 -2 12 -1 22 2 22 2 0 47 -11 98 -25 232 -63 518 -88 757 -65 112 10 217 28
391 68 22 5 24 3 11 -11 -7 -10 -22 -17 -33 -17 -17 0 -18 -3 -8 -15 7 -8 10
-24 7 -36 -5 -18 -2 -20 18 -15 13 3 27 2 30 -4 10 -16 25 -12 25 7 0 9 7 25
17 35 15 17 15 18 -5 18 -18 0 -41 35 -30 45 1 1 46 17 98 35 52 17 160 63
240 101 l145 70 -50 -51 c-241 -249 -605 -463 -950 -560 -205 -57 -337 -74
-580 -74 -237 0 -338 11 -529 59 -315 80 -618 233 -861 437 -395 330 -646 762
-746 1281 -31 161 -38 465 -14 647 18 149 67 349 115 480 41 113 131 301 140
295 21 -13 17 -60 -7 -92 l-25 -33 40 0 c36 0 43 -4 63 -37 l23 -36 17 41 c15
34 24 42 53 48 20 3 36 9 36 13 0 3 -14 15 -30 26 -26 17 -30 26 -30 63 l0 43
-30 -21 c-30 -22 -57 -22 -89 -1 -31 20 161 291 323 455 81 83 231 216 242
216 2 0 -26 -46 -62 -102z"/>
<path d="M4238 7742 c-21 -4 -30 -28 -15 -40 16 -14 46 8 38 28 -3 9 -13 14
-23 12z"/>
<path d="M4150 7640 c0 -5 -9 -10 -20 -10 -21 0 -27 -15 -10 -25 6 -4 8 -14 6
-23 -5 -14 1 -17 29 -18 19 0 32 4 29 8 -3 5 2 18 12 29 16 18 16 19 0 19 -9
0 -19 7 -22 15 -7 17 -24 20 -24 5z"/>
<path d="M4094 7427 c-3 -9 -15 -19 -27 -23 -18 -6 -18 -7 -4 -16 10 -5 17
-18 17 -28 0 -21 15 -27 25 -10 4 6 16 8 27 4 17 -5 20 -3 15 11 -4 9 -2 25 3
36 9 16 7 19 -8 19 -10 0 -23 5 -30 12 -9 9 -13 7 -18 -5z"/>
<path d="M3856 7051 c-3 -5 1 -11 9 -15 15 -6 29 7 18 18 -9 9 -21 8 -27 -3z"/>
<path d="M3971 7017 c-1 -11 -10 -21 -21 -24 -20 -5 -28 -23 -10 -23 6 0 10
-12 10 -26 0 -21 3 -24 14 -15 7 6 21 9 30 5 11 -4 16 -1 16 13 0 10 5 24 12
31 9 9 8 12 -4 12 -8 0 -23 10 -31 23 -14 19 -16 20 -16 4z"/>
<path d="M3783 6967 c-14 -22 -11 -37 7 -37 23 0 31 22 14 37 -10 10 -15 10
-21 0z"/>
<path d="M3863 6961 c-7 -11 -7 -20 1 -27 15 -14 41 -3 42 18 2 22 -30 29 -43
9z"/>
<path d="M3732 6869 c2 -9 -3 -23 -11 -32 -12 -15 -11 -17 8 -17 12 0 24 -7
28 -16 5 -13 8 -12 25 5 10 12 24 21 30 21 9 0 9 3 0 12 -7 7 -12 19 -12 28 0
12 -9 16 -35 16 -27 -1 -35 -5 -33 -17z"/>
<path d="M3951 6851 c-19 -14 -31 -17 -49 -10 -33 13 -34 12 -27 -21 5 -22 1
-38 -15 -60 l-21 -30 38 0 c31 0 42 -5 55 -27 l16 -27 15 36 c12 27 23 38 47
43 l32 7 -31 22 c-21 14 -31 31 -33 53 l-3 32 -24 -18z"/>
<path d="M3740 6684 c0 -8 -5 -14 -11 -14 -6 0 -3 -7 5 -16 20 -19 52 -10 52
15 0 12 -9 21 -23 24 -15 3 -23 -1 -23 -9z"/>
<path d="M3845 6674 c-13 -13 -14 -19 -4 -25 17 -10 39 8 32 27 -7 18 -8 18
-28 -2z"/>
<path d="M3963 6662 c-8 -13 -8 -22 1 -33 16 -22 51 -9 52 19 0 14 -4 21 -11
18 -7 -2 -17 0 -22 5 -5 5 -13 1 -20 -9z"/>
<path d="M3886 6581 c-4 -5 -2 -12 3 -15 5 -4 12 -2 15 3 4 5 2 12 -3 15 -5 4
-12 2 -15 -3z"/>
<path d="M3927 6568 c-4 -13 -2 -24 3 -26 6 -2 10 -10 10 -17 0 -10 5 -11 23
-2 17 8 22 17 19 34 -2 13 -8 23 -12 23 -5 0 -15 3 -23 6 -9 3 -17 -3 -20 -18z"/>
<path d="M3747 6564 c-9 -10 2 -24 19 -24 8 0 14 7 14 15 0 15 -21 21 -33 9z"/>
<path d="M3816 6516 c-5 -20 26 -53 32 -35 2 5 11 9 20 9 12 0 13 3 5 11 -6 6
-9 17 -7 23 2 6 -6 11 -20 11 -16 0 -27 -7 -30 -19z"/>
<path d="M3744 6499 c-15 -17 -27 -20 -61 -16 -24 2 -43 3 -43 2 0 -1 6 -18
14 -37 13 -30 13 -36 -5 -58 -26 -35 -24 -40 18 -40 26 0 45 -8 64 -26 l28
-26 10 38 c9 31 18 42 48 55 l38 16 -37 18 c-34 17 -38 23 -38 57 0 43 -9 47
-36 17z"/>
<path d="M3998 6512 c-9 -2 -19 -10 -22 -18 -7 -19 23 -52 32 -37 4 5 12 12
18 14 17 7 -9 45 -28 41z"/>
<path d="M3996 6391 c-4 -7 -14 -10 -21 -7 -10 3 -13 -4 -13 -25 1 -21 6 -29
20 -29 10 0 18 -6 19 -12 0 -7 4 -3 9 10 5 12 15 22 22 22 9 1 8 4 -3 13 -9 7
-18 19 -21 27 -3 11 -6 11 -12 1z"/>
<path d="M3854 6366 c-28 -13 -26 -50 4 -63 17 -9 22 -8 22 2 0 8 8 19 18 24
10 6 12 11 4 11 -7 0 -16 8 -20 18 -5 13 -12 15 -28 8z"/>
<path d="M3954 6302 c-32 -5 -37 -45 -7 -59 18 -9 23 -8 23 2 0 8 6 15 13 17
23 5 -5 43 -29 40z"/>
<path d="M3649 6283 c-21 -5 -13 -50 10 -56 26 -7 46 29 27 48 -8 8 -16 14
-18 14 -2 -1 -10 -3 -19 -6z"/>
<path d="M4015 6202 c-16 -27 -25 -32 -57 -32 -21 0 -38 -2 -38 -5 0 -3 9 -18
20 -34 18 -23 19 -32 10 -55 -13 -36 -8 -41 29 -28 25 9 34 7 55 -9 33 -26 36
-24 36 14 0 24 8 39 32 59 l33 26 -37 7 c-32 6 -39 12 -51 48 l-13 41 -19 -32z"/>
<path d="M3767 6206 c-7 -19 15 -37 32 -27 10 6 9 12 -4 25 -20 20 -21 20 -28
2z"/>
<path d="M3850 6194 c0 -8 -5 -14 -12 -14 -6 0 -3 -6 7 -14 25 -18 54 -10 48
14 -6 22 -43 34 -43 14z"/>
<path d="M3694 6124 c2 -6 -1 -17 -7 -23 -8 -8 -7 -11 5 -11 9 0 19 -6 21 -12
4 -10 6 -10 6 0 1 6 7 12 15 12 8 0 12 8 9 23 -3 16 -11 22 -29 22 -14 0 -22
-5 -20 -11z"/>
<path d="M3854 6052 c-12 -2 -24 -11 -27 -21 -6 -25 22 -40 48 -27 17 9 19 15
10 31 -6 13 -18 19 -31 17z"/>
<path d="M3944 6017 c-8 -9 -7 -16 2 -25 10 -9 16 -8 29 5 13 13 14 18 3 24
-17 11 -21 11 -34 -4z"/>
<path d="M3888 5956 c-19 -15 -8 -51 17 -53 12 -1 24 7 31 21 9 19 7 24 -11
33 -16 7 -27 6 -37 -1z"/>
<path d="M4033 5962 c-31 -5 -35 -44 -5 -59 19 -10 26 -9 41 6 16 16 16 19 2
37 -9 11 -25 18 -38 16z"/>
<path d="M3720 5937 c0 -20 -9 -33 -31 -46 l-31 -19 25 -16 c14 -10 27 -31 31
-48 l6 -31 25 23 c17 16 31 21 49 16 29 -7 30 -7 16 29 -7 20 -6 32 6 50 16
25 16 25 -17 25 -20 0 -42 8 -56 22 l-23 21 0 -26z"/>
<path d="M4147 5860 c-5 -20 9 -30 31 -23 18 7 15 21 -7 32 -15 9 -20 7 -24
-9z"/>
<path d="M3924 5816 c-29 -13 -28 -49 2 -63 19 -9 24 -8 24 2 0 8 8 19 18 24
10 6 12 11 4 11 -7 0 -16 8 -20 18 -5 13 -12 15 -28 8z"/>
<path d="M4050 5759 c0 -5 -6 -9 -14 -9 -25 0 4 -45 30 -46 13 -1 21 2 18 8
-3 5 -1 14 4 21 8 9 4 15 -14 24 -13 6 -24 7 -24 2z"/>
<path d="M3945 5714 c-35 -28 -53 -29 -100 -10 -19 8 -35 14 -35 12 0 -2 7
-23 15 -47 15 -42 15 -43 -15 -81 l-31 -38 48 0 c45 0 50 -2 73 -40 27 -44 32
-42 50 13 10 33 17 38 57 49 l45 11 -36 31 c-30 26 -36 38 -38 78 l-3 46 -30
-24z"/>
<path d="M4144 5651 c2 -26 27 -41 44 -25 11 12 11 16 0 27 -19 18 -46 17 -44
-2z"/>
<path d="M4145 5570 c-3 -5 -14 -10 -23 -10 -13 0 -17 -9 -18 -35 0 -28 3 -35
14 -30 8 3 23 -2 33 -11 18 -16 19 -16 19 5 0 13 9 25 22 30 l23 8 -23 7 c-13
4 -22 15 -22 27 0 20 -15 26 -25 9z"/>
<path d="M4317 5531 c-5 -22 13 -34 32 -22 10 6 9 12 -4 25 -21 20 -22 20 -28
-3z"/>
<path d="M4009 5516 c-21 -16 -12 -43 16 -48 14 -3 22 -1 19 4 -3 5 -1 14 5
21 15 19 -20 39 -40 23z"/>
<path d="M4261 5425 c-10 -28 -20 -37 -54 -46 l-41 -11 31 -26 c26 -22 33 -36
35 -70 l3 -43 33 25 c32 23 35 24 69 10 19 -9 37 -14 39 -12 2 2 -2 20 -8 40
-10 34 -9 39 17 70 l28 33 -45 3 c-37 2 -47 8 -62 32 -22 38 -29 38 -45 -5z"/>
<path d="M4045 5406 c-17 -9 -19 -15 -10 -31 13 -26 41 -30 47 -7 8 29 -13 50
-37 38z"/>
<path d="M3896 5366 c-5 -20 26 -53 32 -35 2 5 11 9 20 9 12 0 13 3 5 11 -6 6
-9 17 -7 23 2 6 -6 11 -20 11 -16 0 -27 -7 -30 -19z"/>
<path d="M4480 5300 c0 -11 -11 -25 -26 -33 l-26 -14 26 -16 c14 -10 26 -27
26 -38 0 -20 1 -20 24 -6 14 9 33 13 46 10 20 -5 22 -3 15 13 -9 24 -9 34 0
57 6 13 2 17 -18 17 -13 0 -30 7 -37 15 -17 21 -30 19 -30 -5z"/>
<path d="M4084 5222 c-16 -2 -20 -8 -17 -27 6 -29 36 -38 50 -16 14 23 -5 47
-33 43z"/>
<path d="M4254 5193 c0 -10 5 -21 11 -25 13 -10 35 11 28 28 -8 20 -41 18 -39
-3z"/>
<path d="M4588 5099 c-10 -10 -13 -19 -8 -19 6 0 10 -10 10 -21 0 -18 3 -19
15 -9 8 6 18 9 23 6 6 -3 12 5 14 19 4 17 1 25 -8 25 -8 0 -14 5 -14 10 0 15
-13 11 -32 -11z"/>
<path d="M4460 5081 c-18 -5 -21 -9 -12 -15 7 -4 11 -14 8 -21 -8 -22 40 -24
53 -3 9 15 9 22 -3 33 -8 8 -16 15 -18 14 -2 -1 -14 -4 -28 -8z"/>
<path d="M4116 5044 c-3 -8 -13 -14 -22 -14 -16 0 -16 -1 0 -19 10 -11 15 -25
11 -31 -5 -9 -2 -9 11 -2 11 5 25 7 32 5 6 -3 12 2 12 10 0 9 2 21 5 29 3 7
-6 18 -19 24 -20 9 -26 9 -30 -2z"/>
<path d="M4331 5046 c-7 -8 -21 -12 -31 -9 -21 6 -25 -3 -11 -26 5 -8 6 -24 1
-36 -7 -19 -5 -21 16 -17 13 2 30 -1 37 -7 16 -13 27 -5 27 20 0 10 10 21 22
25 21 6 21 7 -5 21 -15 7 -27 20 -27 28 0 19 -14 19 -29 1z"/>
<path d="M4801 4982 c-9 -22 -22 -33 -44 -38 l-31 -7 28 -22 c24 -19 28 -28
23 -55 l-7 -31 30 18 c25 14 35 15 60 6 l30 -11 -6 37 c-4 27 -2 40 10 50 24
20 19 31 -13 31 -20 0 -35 8 -48 26 l-20 26 -12 -30z"/>
<path d="M4610 4960 c0 -5 5 -10 10 -10 6 0 10 5 10 10 0 6 -4 10 -10 10 -5 0
-10 -4 -10 -10z"/>
<path d="M4307 4846 c-4 -9 -14 -16 -23 -16 -13 0 -14 -3 -5 -14 6 -7 9 -21 5
-29 -10 -27 48 -16 63 12 16 29 16 31 2 31 -7 0 -17 7 -24 16 -11 16 -12 16
-18 0z"/>
<path d="M4477 4853 c-11 -3 -16 -10 -13 -20 3 -8 6 -20 6 -26 0 -22 46 -13
58 11 8 17 7 22 -4 22 -8 0 -14 5 -14 10 0 10 -3 11 -33 3z"/>
<path d="M5049 4812 c-18 -31 -31 -42 -49 -43 -14 -1 -36 -4 -49 -8 l-24 -7
30 -34 c30 -34 30 -36 17 -80 -8 -25 -14 -46 -14 -47 0 -2 21 6 48 16 l47 19
35 -24 c19 -13 37 -24 41 -24 3 0 4 21 2 48 -4 44 -2 48 31 72 20 14 36 28 36
31 0 4 -20 12 -45 18 -36 9 -48 18 -55 39 -26 71 -25 70 -51 24z"/>
<path d="M4624 4824 c2 -6 0 -16 -5 -21 -5 -5 -2 -15 9 -24 14 -12 22 -12 40
-3 15 8 20 14 12 19 -6 4 -8 14 -6 23 5 13 -1 17 -24 17 -18 0 -29 -4 -26 -11z"/>
<path d="M4545 4768 c-24 -19 -32 -20 -66 -11 -43 11 -44 10 -28 -35 9 -27 8
-35 -11 -59 l-22 -28 39 -3 c29 -2 43 -10 60 -34 l22 -32 9 25 c5 13 11 30 14
38 2 8 22 19 43 26 l40 11 -39 23 c-36 23 -38 26 -32 62 3 22 5 39 2 39 -2 0
-16 -10 -31 -22z"/>
<path d="M4693 4694 c-9 -19 -8 -24 2 -24 8 0 18 -7 23 -16 8 -15 10 -15 15 0
4 9 13 16 21 16 11 0 12 5 3 24 -7 13 -20 24 -32 24 -12 0 -25 -11 -32 -24z"/>
<path d="M7174 4681 c0 -23 30 -21 34 2 2 11 -3 17 -15 17 -12 0 -19 -7 -19
-19z"/>
<path d="M4844 4684 c-18 -7 -4 -44 16 -44 22 0 33 37 13 44 -8 3 -15 6 -16 5
-1 0 -7 -3 -13 -5z"/>
<path d="M7082 4624 c4 -21 22 -23 26 -1 2 10 -3 17 -13 17 -10 0 -15 -6 -13
-16z"/>
<path d="M4655 4600 c-4 -6 -3 -16 3 -22 6 -6 12 -6 17 2 4 6 3 16 -3 22 -6 6
-12 6 -17 -2z"/>
<path d="M5068 4540 c-22 -39 -25 -40 -76 -40 l-54 0 35 -41 c35 -40 35 -40
22 -89 l-13 -49 48 19 47 19 36 -25 c20 -13 39 -24 42 -24 4 0 5 21 4 46 -3
43 0 49 35 80 l38 33 -47 12 c-42 11 -49 17 -66 55 -10 24 -21 44 -23 44 -3 0
-16 -18 -28 -40z"/>
<path d="M5332 4564 c-16 -17 -5 -43 18 -41 25 2 32 31 11 44 -12 7 -20 7 -29
-3z"/>
<path d="M7006 4572 c-3 -5 -1 -14 3 -20 6 -10 10 -10 20 1 9 12 8 16 -3 20
-9 4 -17 3 -20 -1z"/>
<path d="M4848 4513 c-24 -6 -18 -46 7 -54 27 -7 47 19 31 43 -6 10 -13 17
-16 17 -3 -1 -13 -3 -22 -6z"/>
<path d="M6546 4492 c-4 -10 -16 -24 -29 -29 l-22 -10 23 -12 c12 -6 22 -21
22 -31 0 -18 3 -19 20 -8 26 16 56 -1 53 -30 -3 -23 27 -35 44 -17 16 18 5 59
-12 45 -9 -7 -15 -6 -22 2 -17 22 -23 47 -13 53 16 10 11 25 -7 25 -9 0 -24 7
-34 16 -16 14 -18 14 -23 -4z"/>
<path d="M5905 4490 c-3 -5 -10 -8 -15 -5 -5 3 -8 -3 -7 -14 1 -23 28 -33 43
-16 8 8 8 16 -1 29 -9 11 -15 13 -20 6z"/>
<path d="M6232 4466 c-6 -15 -20 -26 -30 -26 -29 0 -34 -12 -11 -28 16 -11 19
-20 14 -44 -7 -28 -6 -29 15 -18 12 7 35 10 50 7 24 -5 27 -4 22 19 -3 15 2
32 13 44 18 19 17 20 -6 20 -15 0 -30 9 -40 26 l-15 25 -12 -25z"/>
<path d="M5767 4453 c3 -7 0 -20 -7 -28 -10 -12 -9 -15 8 -15 11 0 23 -6 26
-12 3 -9 8 -8 16 5 6 9 19 17 28 17 16 1 16 1 0 11 -10 5 -18 16 -18 23 0 7
-12 13 -29 13 -20 0 -28 -4 -24 -14z"/>
<path d="M6730 4457 c0 -19 10 -27 25 -20 17 6 8 33 -11 33 -8 0 -14 -6 -14
-13z"/>
<path d="M5336 4405 c-3 -8 -14 -15 -24 -15 -15 0 -18 -7 -18 -35 1 -27 5 -35
19 -35 10 0 27 -5 38 -10 16 -9 19 -7 19 11 0 12 8 27 17 34 15 11 15 13 -5
19 -13 4 -22 16 -22 27 0 23 -15 25 -24 4z"/>
<path d="M6802 4411 c4 -13 18 -16 19 -4 0 4 -5 9 -11 12 -7 2 -11 -2 -8 -8z"/>
<path d="M5485 4379 c-15 -31 -24 -38 -58 -43 l-40 -7 28 -29 c23 -24 27 -35
22 -64 -7 -41 -6 -41 33 -21 27 14 33 14 60 0 41 -21 43 -20 35 21 -5 31 -2
41 21 65 l26 28 -36 7 c-29 5 -41 14 -55 43 l-19 36 -17 -36z"/>
<path d="M6026 4383 c-11 -12 -6 -33 8 -33 19 0 28 27 11 33 -7 3 -16 3 -19 0z"/>
<path d="M6448 4369 c-14 -15 -14 -18 -2 -23 8 -3 14 -12 14 -20 0 -11 5 -12
23 -3 31 15 33 62 3 63 -12 0 -29 -7 -38 -17z"/>
<path d="M5730 4350 c-10 -24 -20 -31 -52 -36 l-39 -7 28 -29 c21 -22 27 -37
24 -64 l-3 -34 35 16 c31 15 36 15 67 -1 l33 -17 -7 37 c-6 30 -3 42 14 60 26
28 19 45 -19 45 -22 0 -31 7 -41 30 -16 38 -24 38 -40 0z"/>
<path d="M5926 4322 c-4 -7 -19 -12 -33 -12 -21 0 -23 -2 -13 -15 6 -8 9 -23
5 -34 -5 -16 -3 -20 9 -15 9 4 23 1 31 -6 12 -10 15 -10 15 3 0 9 8 20 18 26
16 9 16 11 1 23 -9 7 -19 20 -21 28 -3 10 -6 11 -12 2z"/>
<path d="M6532 4323 c-10 -4 -10 -8 -1 -19 17 -20 39 -17 39 6 0 20 -12 24
-38 13z"/>
<path d="M6110 4289 c0 -12 -8 -23 -20 -26 -24 -6 -26 -21 -5 -29 8 -4 15 -17
15 -30 0 -27 12 -31 29 -10 6 7 22 11 36 8 24 -4 25 -3 16 21 -7 17 -7 28 -1
32 18 11 10 25 -14 25 -13 0 -26 7 -30 15 -8 22 -26 18 -26 -6z"/>
<path d="M6318 4299 c-21 -12 -13 -45 12 -45 10 0 21 8 23 18 7 23 -14 39 -35
27z"/>
<path d="M2070 7800 l0 -360 485 0 485 0 0 360 0 360 -485 0 -485 0 0 -360z
m290 0 c0 -287 -2 -330 -15 -330 -13 0 -15 43 -15 330 0 287 2 330 15 330 13
0 15 -43 15 -330z m420 0 c0 -287 -2 -330 -15 -330 -13 0 -15 43 -15 330 0
287 2 330 15 330 13 0 15 -43 15 -330z m-537 181 l37 -39 0 -236 0 -236 -80 0
-79 0 -1 237 0 237 37 38 c20 21 40 38 43 38 3 0 23 -18 43 -39z m387 2 l70
-38 0 -237 0 -238 -145 0 -145 0 0 238 0 237 68 37 c37 21 71 38 75 38 4 0 39
-17 77 -37z m323 -2 l37 -39 0 -236 0 -236 -80 0 -79 0 -1 239 c0 187 3 241
14 250 7 6 16 9 19 6 4 -3 5 -2 2 2 -5 7 34 53 45 53 3 0 23 -18 43 -39z"/>
<path d="M2551 7984 c0 -11 3 -14 6 -6 3 7 2 16 -1 19 -3 4 -6 -2 -5 -13z"/>
<path d="M2445 7930 c-3 -5 1 -10 9 -10 9 0 16 5 16 10 0 6 -4 10 -9 10 -6 0
-13 -4 -16 -10z"/>
<path d="M2490 7799 c0 -5 5 -7 10 -4 6 3 10 8 10 11 0 2 -4 4 -10 4 -5 0 -10
-5 -10 -11z"/>
<path d="M8450 7800 l0 -360 485 0 485 0 0 360 0 360 -485 0 -485 0 0 -360z
m290 0 c0 -287 -2 -330 -15 -330 -13 0 -15 43 -15 330 0 287 2 330 15 330 13
0 15 -43 15 -330z m420 0 c0 -287 -2 -330 -15 -330 -13 0 -15 43 -15 330 0
287 2 330 15 330 13 0 15 -43 15 -330z m-522 164 c22 -18 22 -22 22 -256 l0
-238 -85 0 -84 0 -1 239 0 240 43 35 c41 34 42 34 62 17 11 -10 30 -27 43 -37z
m369 17 l68 -39 2 -178 c2 -131 -1 -180 -10 -186 -9 -6 -9 -8 1 -8 8 0 12 -17
12 -50 l0 -50 -150 0 -150 0 2 236 3 237 65 37 c36 21 70 39 77 39 6 1 42 -16
80 -38z m321 5 c17 -19 28 -37 25 -40 -4 -3 -1 -6 5 -6 8 0 11 -68 11 -235 l1
-235 -84 0 -84 0 0 233 -1 232 42 43 c22 23 44 42 47 42 4 0 21 -15 38 -34z"/>
<path d="M8885 7950 c3 -5 8 -10 11 -10 2 0 4 5 4 10 0 6 -5 10 -11 10 -5 0
-7 -4 -4 -10z"/>
<path d="M8910 7939 c0 -5 5 -7 10 -4 6 3 10 8 10 11 0 2 -4 4 -10 4 -5 0 -10
-5 -10 -11z"/>
<path d="M8825 7931 c-6 -11 9 -23 19 -14 9 9 7 23 -3 23 -6 0 -12 -4 -16 -9z"/>
<path d="M8865 7800 c3 -5 8 -10 11 -10 2 0 4 5 4 10 0 6 -5 10 -11 10 -5 0
-7 -4 -4 -10z"/>
<path d="M1377 8123 c-4 -3 -7 -30 -7 -60 l0 -53 40 0 40 0 0 60 0 60 -33 0
c-19 0 -37 -3 -40 -7z"/>
<path d="M1377 7883 c-4 -3 -7 -30 -7 -60 l0 -53 40 0 40 0 0 60 0 60 -33 0
c-19 0 -37 -3 -40 -7z"/>
<path d="M1377 7643 c-4 -3 -7 -30 -7 -60 l0 -53 40 0 40 0 0 60 0 60 -33 0
c-19 0 -37 -3 -40 -7z"/>
<path d="M810 7440 c-18 -25 -28 -30 -61 -30 l-41 0 21 -34 c18 -28 19 -38 10
-65 -14 -40 -10 -44 30 -30 28 10 35 8 66 -15 l35 -27 0 40 c0 35 5 43 37 65
l36 25 -29 11 c-16 6 -35 13 -42 15 -7 3 -15 18 -18 35 -9 43 -19 45 -44 10z"/>
<path d="M2070 7350 l0 -70 485 0 485 0 0 70 0 70 -485 0 -485 0 0 -70z m148
28 c7 -7 12 -27 12 -45 0 -32 -1 -33 -45 -33 l-45 0 0 38 c0 21 3 42 7 45 11
11 58 8 71 -5z m160 -35 l3 -43 -45 0 c-45 0 -46 0 -46 33 0 42 17 59 55 55
28 -3 30 -6 33 -45z m250 25 c7 -7 12 -25 12 -40 l0 -28 -85 0 c-83 0 -85 0
-85 24 0 40 25 56 89 56 31 0 62 -5 69 -12z m190 -30 l3 -38 -45 0 c-45 0 -46
0 -46 33 0 43 6 49 50 45 33 -3 35 -5 38 -40z m150 0 l3 -38 -45 0 c-45 0 -46
0 -46 33 0 43 6 49 50 45 33 -3 35 -5 38 -40z"/>
<path d="M8450 7350 l0 -70 485 0 485 0 0 70 0 70 -485 0 -485 0 0 -70z m148
-7 l3 -43 -45 0 c-45 0 -46 0 -46 33 0 42 17 59 55 55 28 -3 30 -6 33 -45z
m160 0 l3 -43 -45 0 -46 0 0 38 c0 48 6 54 50 50 34 -3 35 -5 38 -45z m246 21
c9 -8 16 -26 16 -40 0 -24 -2 -24 -85 -24 l-85 0 0 28 c0 15 5 33 12 40 18 18
123 15 142 -4z m186 -24 l0 -40 -45 0 c-41 0 -45 2 -45 24 0 45 10 56 51 56
39 0 39 0 39 -40z m158 -2 l3 -38 -45 0 c-45 0 -46 0 -46 33 0 43 6 49 50 45
33 -3 35 -5 38 -40z"/>
<path d="M1377 7403 c-4 -3 -7 -30 -7 -60 l0 -53 40 0 40 0 0 60 0 60 -33 0
c-19 0 -37 -3 -40 -7z"/>
<path d="M2075 7248 c4 -13 18 -34 31 -48 l24 -25 403 -3 c440 -3 467 -1 492
48 8 16 15 34 15 40 0 7 -153 10 -486 10 l-485 0 6 -22z"/>
<path d="M8450 7260 c0 -6 7 -24 15 -40 25 -49 52 -51 493 -48 l404 3 24 28
c13 15 24 37 24 48 0 19 -11 19 -480 19 -328 0 -480 -3 -480 -10z"/>
<path d="M1377 7163 c-4 -3 -7 -30 -7 -60 l0 -53 40 0 40 0 0 60 0 60 -33 0
c-19 0 -37 -3 -40 -7z"/>
<path d="M2186 7113 c48 -85 54 -93 73 -93 17 0 18 -3 8 -29 -26 -71 55 -182
190 -260 l59 -35 23 -220 c13 -122 24 -222 25 -224 2 -1 8 85 15 190 16 268
11 249 80 292 80 49 155 118 176 162 12 25 16 51 12 80 -2 24 -1 44 2 46 7 3
78 98 95 126 6 9 -75 12 -389 12 l-396 0 27 -47z"/>
<path d="M8542 7152 c23 -54 76 -132 89 -132 14 0 16 -8 11 -45 -2 -25 1 -58
8 -75 16 -39 114 -129 183 -169 64 -36 58 -19 83 -268 10 -95 21 -173 26 -173
4 0 8 17 8 38 0 20 5 111 11 202 l12 165 85 55 c130 84 190 172 163 242 -7 20
-7 28 3 31 7 3 34 35 59 71 l46 66 -395 0 c-218 0 -394 -3 -392 -8z"/>
<path d="M1377 6923 c-4 -3 -7 -30 -7 -60 l0 -53 40 0 40 0 0 60 0 60 -33 0
c-19 0 -37 -3 -40 -7z"/>
<path d="M1377 6683 c-4 -3 -7 -30 -7 -60 l0 -53 40 0 40 0 0 60 0 60 -33 0
c-19 0 -37 -3 -40 -7z"/>
<path d="M1377 6443 c-4 -3 -7 -30 -7 -60 l0 -53 40 0 40 0 0 60 0 60 -33 0
c-19 0 -37 -3 -40 -7z"/>
<path d="M1364 6279 c-48 -14 -101 -79 -109 -132 -12 -76 35 -153 110 -181 6
-2 -2 -13 -17 -25 -46 -37 -50 -114 -8 -158 11 -12 20 -35 20 -51 0 -26 -10
-35 -85 -81 -111 -68 -211 -162 -241 -226 -28 -58 -29 -83 -10 -130 l15 -35
-28 0 c-26 0 -34 -10 -80 -90 -28 -49 -51 -92 -51 -95 0 -3 241 -5 535 -5 294
0 535 2 535 5 0 15 -127 179 -141 182 -16 4 -16 8 -2 41 41 98 -56 233 -252
353 -75 46 -85 56 -85 81 0 17 6 31 15 35 23 8 45 57 45 99 0 28 -8 44 -33 69
l-34 34 29 12 c34 14 73 69 83 116 15 73 -41 162 -116 183 -39 12 -53 11 -95
-1z m106 -55 c55 -33 74 -97 45 -154 -40 -78 -160 -78 -200 0 -53 102 57 212
155 154z"/>
<path d="M3026 6221 c-18 -38 -22 -41 -68 -47 l-49 -7 32 -33 c29 -30 31 -37
26 -78 -4 -26 -4 -46 0 -46 3 0 21 9 39 20 l33 21 40 -21 c22 -11 42 -20 44
-20 2 0 1 19 -4 43 -7 38 -5 45 22 72 35 37 36 45 7 45 -46 0 -65 12 -84 52
l-20 40 -18 -41z"/>
<path d="M2181 5636 c-15 -16 -35 -26 -53 -26 -31 0 -34 -7 -14 -35 11 -16 11
-24 0 -51 l-14 -33 32 9 c25 8 36 5 57 -11 l26 -21 5 31 c3 21 15 38 35 51
l30 19 -33 12 c-22 8 -34 19 -38 37 -3 15 -7 31 -8 35 -1 5 -12 -3 -25 -17z"/>
<path d="M786 5019 c-17 -20 -26 -43 -26 -65 l0 -34 655 0 655 0 0 36 c0 26
-8 43 -29 65 l-29 29 -600 0 -600 0 -26 -31z"/>
<path d="M757 4903 c-4 -3 -7 -48 -7 -100 l0 -93 665 0 666 0 -3 98 -3 97
-656 3 c-360 1 -659 -1 -662 -5z m201 -80 l-3 -58 -43 -3 c-58 -4 -72 10 -72
69 l0 49 60 0 61 0 -3 -57z m222 9 c0 -56 -12 -72 -56 -72 -57 0 -64 7 -64 66
l0 54 60 0 60 0 0 -48z m350 13 c0 -58 -26 -75 -115 -75 -89 0 -115 17 -115
75 l0 35 115 0 115 0 0 -35z m238 -17 l-3 -53 -55 0 -55 0 -3 53 -3 52 61 0
61 0 -3 -52z m212 8 c0 -54 -16 -68 -72 -64 l-43 3 -3 53 -3 52 60 0 61 0 0
-44z"/>
<path d="M750 4210 l0 -490 665 0 665 0 0 490 0 490 -665 0 -665 0 0 -490z
m400 0 c0 -443 0 -450 -20 -450 -20 0 -20 7 -20 450 0 443 0 450 20 450 20 0
20 -7 20 -450z m570 0 c0 -443 0 -450 -20 -450 -20 0 -20 7 -20 450 0 443 0
450 20 450 20 0 20 -7 20 -450z m-110 -127 l0 -323 -200 0 -200 0 0 80 c0 57
4 80 13 81 10 0 10 2 0 6 -9 3 -13 31 -13 89 0 60 4 84 13 84 9 0 9 2 -1 8 -9
7 -12 44 -10 153 l3 144 98 56 98 57 100 -56 99 -56 0 -323z m-622 373 l52
-53 0 -321 0 -321 -110 0 -110 0 0 327 0 327 52 47 c29 26 55 48 58 48 3 0 29
-24 58 -54z m969 1 l52 -53 -2 -320 -2 -319 -112 -2 -112 -3 0 323 0 322 52
53 c28 28 56 52 62 52 6 0 34 -24 62 -53z"/>
<path d="M1405 4481 c-3 -5 -1 -12 5 -16 5 -3 10 1 10 9 0 18 -6 21 -15 7z"/>
<path d="M1350 4420 c0 -5 5 -10 10 -10 6 0 10 5 10 10 0 6 -4 10 -10 10 -5 0
-10 -4 -10 -10z"/>
<path d="M1385 4410 c-3 -5 -1 -10 4 -10 6 0 11 5 11 10 0 6 -2 10 -4 10 -3 0
-8 -4 -11 -10z"/>
<path d="M1266 4395 c-5 -15 17 -39 27 -28 12 11 8 31 -7 36 -8 3 -17 0 -20
-8z"/>
<path d="M1430 4359 c0 -5 5 -7 10 -4 6 3 10 8 10 11 0 2 -4 4 -10 4 -5 0 -10
-5 -10 -11z"/>
<path d="M1350 4270 c0 -5 5 -10 10 -10 6 0 10 5 10 10 0 6 -4 10 -10 10 -5 0
-10 -4 -10 -10z"/>
<path d="M1300 4260 c0 -5 5 -10 10 -10 6 0 10 5 10 10 0 6 -4 10 -10 10 -5 0
-10 -4 -10 -10z"/>
<path d="M1465 4250 c-3 -5 1 -10 10 -10 9 0 13 5 10 10 -3 6 -8 10 -10 10 -2
0 -7 -4 -10 -10z"/>
<path d="M1410 4239 c0 -5 5 -7 10 -4 6 3 10 8 10 11 0 2 -4 4 -10 4 -5 0 -10
-5 -10 -11z"/>
<path d="M1325 4220 c-3 -5 -1 -10 4 -10 6 0 11 5 11 10 0 6 -2 10 -4 10 -3 0
-8 -4 -11 -10z"/>
<path d="M1410 4169 c0 -5 5 -7 10 -4 6 3 10 8 10 11 0 2 -4 4 -10 4 -5 0 -10
-5 -10 -11z"/>
<path d="M1260 4119 c0 -5 5 -7 10 -4 6 3 10 8 10 11 0 2 -4 4 -10 4 -5 0 -10
-5 -10 -11z"/>
<path d="M1270 4029 c0 -5 5 -7 10 -4 6 3 10 8 10 11 0 2 -4 4 -10 4 -5 0 -10
-5 -10 -11z"/>
<path d="M1490 4010 c0 -5 5 -10 10 -10 6 0 10 5 10 10 0 6 -4 10 -10 10 -5 0
-10 -4 -10 -10z"/>
<path d="M1560 4010 c0 -5 5 -10 10 -10 6 0 10 5 10 10 0 6 -4 10 -10 10 -5 0
-10 -4 -10 -10z"/>
<path d="M1240 3959 c0 -5 5 -7 10 -4 6 3 10 8 10 11 0 2 -4 4 -10 4 -5 0 -10
-5 -10 -11z"/>
<path d="M1396 3943 c-6 -14 -5 -15 5 -6 7 7 10 15 7 18 -3 3 -9 -2 -12 -12z"/>
<path d="M1560 3949 c0 -5 5 -7 10 -4 6 3 10 8 10 11 0 2 -4 4 -10 4 -5 0 -10
-5 -10 -11z"/>
<path d="M1490 3869 c0 -5 5 -7 10 -4 6 3 10 8 10 11 0 2 -4 4 -10 4 -5 0 -10
-5 -10 -11z"/>
<path d="M1410 3840 c0 -5 5 -10 10 -10 6 0 10 5 10 10 0 6 -4 10 -10 10 -5 0
-10 -4 -10 -10z"/>
<path d="M1290 3830 c0 -5 5 -10 10 -10 6 0 10 5 10 10 0 6 -4 10 -10 10 -5 0
-10 -4 -10 -10z"/>
<path d="M1360 3819 c0 -5 5 -7 10 -4 6 3 10 8 10 11 0 2 -4 4 -10 4 -5 0 -10
-5 -10 -11z"/>
<path d="M928 4423 c7 -3 16 -2 19 1 4 3 -2 6 -13 5 -11 0 -14 -3 -6 -6z"/>
<path d="M1898 4423 c7 -3 16 -2 19 1 4 3 -2 6 -13 5 -11 0 -14 -3 -6 -6z"/>
<path d="M750 3605 l0 -95 665 0 665 0 0 95 0 95 -665 0 -665 0 0 -95z m208
-18 l3 -58 -58 3 -58 3 -3 43 c-4 59 10 74 67 70 l46 -3 3 -58z m220 1 l3 -58
-61 0 -60 0 0 53 c0 30 3 57 7 61 4 4 30 6 58 4 l50 -3 3 -57z m336 30 c9 -12
16 -37 16 -55 l0 -33 -115 0 -115 0 0 33 c0 18 7 43 16 55 14 20 24 22 99 22
75 0 85 -2 99 -22z m254 -35 l3 -53 -60 0 -61 0 0 48 c0 27 3 52 7 56 4 4 30
6 58 4 l50 -3 3 -52z m210 0 l3 -53 -60 0 -61 0 0 48 c0 27 3 52 7 56 4 4 30
6 58 4 l50 -3 3 -52z"/>
<path d="M760 3454 c0 -26 8 -43 29 -65 l29 -29 597 0 597 0 29 29 c21 22 29
39 29 65 l0 36 -655 0 -655 0 0 -36z"/>
<path d="M882 3333 c2 -5 25 -47 51 -95 41 -73 53 -88 73 -88 22 0 24 -3 17
-27 -33 -119 42 -229 247 -359 49 -31 90 -59 90 -62 0 -15 61 -579 64 -592 2
-8 4 -4 5 10 0 14 10 151 21 305 17 241 22 282 37 293 10 7 52 34 93 61 186
119 267 238 226 334 -12 31 -13 37 -1 37 11 0 107 123 139 178 6 9 -103 12
-529 12 -295 0 -535 -3 -533 -7z"/>
</g>
</svg>
