<?xml version="1.0" standalone="no"?>
<!DOCTYPE svg PUBLIC "-//W3C//DTD SVG 20010904//EN"
 "http://www.w3.org/TR/2001/REC-SVG-20010904/DTD/svg10.dtd">
<svg version="1.0" xmlns="http://www.w3.org/2000/svg"
 width="1300.000000pt" height="1300.000000pt" viewBox="0 0 1300.000000 1300.000000"
 preserveAspectRatio="xMidYMid meet">

<g transform="translate(0.000000,1300.000000) scale(0.100000,-0.100000)"
fill="#000000" stroke="none">
<path d="M6120 12581 c-64 -21 -154 -75 -209 -127 -80 -74 -139 -188 -148
-286 l-6 -68 47 14 c149 45 312 204 359 351 9 28 21 64 26 80 7 22 10 24 10
10 1 -11 17 -53 36 -93 48 -102 152 -204 262 -259 74 -37 157 -62 169 -50 2 2
-1 28 -7 58 -30 139 -139 273 -275 336 -65 29 -92 36 -159 39 -44 2 -91 0
-105 -5z"/>
<path d="M7232 12505 c-109 -37 -178 -86 -241 -169 -48 -64 -55 -79 -75 -145
l-16 -54 65 6 c78 7 193 58 273 119 59 46 127 129 159 196 l21 42 7 -47 c25
-169 155 -346 309 -424 66 -32 76 -29 76 28 0 58 -21 137 -57 210 -44 91 -139
184 -235 231 -88 42 -176 44 -286 7z"/>
<path d="M6675 12476 c41 -43 80 -123 97 -193 7 -29 16 -53 19 -53 4 0 12 20
19 45 15 53 53 116 107 176 27 30 32 40 18 35 -11 -4 -52 -10 -90 -13 -65 -5
-127 6 -192 33 -6 3 4 -11 22 -30z"/>
<path d="M5675 12433 c-63 -27 -147 -35 -214 -20 l-34 7 40 -29 c56 -40 108
-107 142 -182 l30 -64 1 47 c0 61 30 154 69 217 17 28 30 51 28 50 -1 0 -29
-12 -62 -26z"/>
<path d="M4990 12411 c-71 -14 -135 -54 -210 -131 -99 -100 -133 -179 -138
-319 -3 -53 0 -97 6 -103 30 -30 183 104 250 218 50 84 75 169 76 252 0 34 1
62 3 62 1 0 10 -17 19 -37 26 -56 149 -174 224 -215 89 -48 246 -86 293 -69
16 6 15 13 -18 78 -61 122 -189 223 -320 251 -74 16 -145 21 -185 13z"/>
<path d="M7870 12327 c34 -58 52 -120 59 -206 l6 -85 29 55 c34 61 110 140
164 169 l37 19 -76 1 c-83 0 -134 14 -197 54 l-41 26 19 -33z"/>
<path d="M8357 12225 c-80 -22 -155 -64 -215 -120 -57 -52 -121 -150 -107
-163 13 -13 170 -4 235 13 116 30 244 114 306 201 l32 44 -1 -82 c-2 -172 92
-361 227 -460 21 -15 42 -28 47 -28 4 0 13 31 20 70 26 146 -31 313 -144 424
-92 89 -140 110 -257 113 -57 1 -114 -3 -143 -12z"/>
<path d="M4525 12164 c-49 -40 -126 -74 -169 -75 -36 0 -97 -17 -70 -18 30 -2
139 -88 178 -141 l43 -59 0 92 c0 76 4 104 26 160 14 37 25 67 24 67 -1 -1
-15 -12 -32 -26z"/>
<path d="M6292 12165 c31 -61 42 -129 30 -186 -6 -30 -14 -63 -18 -74 -7 -17
-5 -17 17 4 52 49 117 86 189 107 l75 22 -45 11 c-98 26 -164 59 -228 115
l-35 31 15 -30z"/>
<path d="M6127 12167 c-14 -37 -206 -154 -258 -158 -8 -1 15 -7 50 -15 66 -15
142 -47 198 -84 l32 -21 -21 58 c-22 62 -21 161 2 204 7 11 10 23 7 25 -2 3
-7 -2 -10 -9z"/>
<path d="M7265 12120 c-14 -23 -126 -70 -208 -87 l-86 -17 52 -16 c61 -19 116
-53 173 -106 l42 -39 -5 76 c-5 68 -3 83 21 134 14 32 24 60 22 62 -2 2 -7 -1
-11 -7z"/>
<path d="M6719 12091 c-36 -37 -38 -79 -5 -118 19 -22 32 -28 66 -28 34 0 47
6 66 28 76 89 -44 200 -127 118z"/>
<path d="M7442 12066 c14 -61 4 -129 -28 -194 l-29 -58 33 22 c54 37 139 64
208 67 72 2 70 7 -21 54 -27 14 -78 54 -111 88 l-61 62 9 -41z"/>
<path d="M5613 12050 c-60 -36 -53 -128 12 -156 30 -12 39 -12 69 0 77 32 77
130 1 162 -43 18 -44 18 -82 -6z"/>
<path d="M5176 11979 c38 -57 54 -124 47 -194 l-5 -50 20 30 c33 51 120 125
180 153 l57 27 -90 7 c-91 6 -154 24 -211 57 l-31 19 33 -49z"/>
<path d="M3862 11999 c-121 -35 -251 -194 -282 -346 -15 -72 -8 -206 13 -257
l17 -39 33 25 c77 59 158 201 184 323 14 67 13 198 -2 236 -3 9 20 -9 52 -40
116 -112 264 -166 436 -159 53 3 100 8 104 11 21 21 -66 123 -151 179 -86 55
-168 78 -280 77 -50 0 -106 -5 -124 -10z"/>
<path d="M4963 11930 c-30 -45 -81 -91 -164 -147 l-32 -22 85 0 c73 1 96 -4
156 -29 l70 -29 -35 53 c-39 58 -57 135 -47 192 4 17 5 32 3 32 -2 0 -19 -23
-36 -50z"/>
<path d="M9016 11935 c22 -54 28 -189 11 -252 l-14 -51 56 59 c53 55 170 128
209 130 9 0 -14 7 -52 15 -86 19 -109 30 -174 89 l-52 46 16 -36z"/>
<path d="M7825 11925 c-36 -35 -34 -88 4 -126 36 -36 75 -38 116 -5 39 31 42
92 6 130 -33 35 -92 36 -126 1z"/>
<path d="M6566 11903 c-144 -44 -273 -190 -310 -351 l-13 -57 -8 35 c-22 100
-119 229 -216 287 -55 33 -151 63 -201 63 -26 0 -28 -3 -22 -27 21 -97 122
-234 223 -302 178 -121 321 -104 481 58 82 83 131 166 149 249 6 29 11 55 11
57 0 9 -46 3 -94 -12z"/>
<path d="M6890 11871 c0 -142 140 -350 284 -423 55 -28 66 -30 136 -25 119 7
232 67 329 173 43 46 111 157 111 179 0 11 -128 4 -173 -10 -119 -36 -234
-134 -286 -245 -31 -66 -34 -64 -46 21 -9 68 -65 176 -124 241 -51 56 -137
108 -203 124 -27 6 -28 5 -28 -35z"/>
<path d="M8378 11849 c-42 -24 -120 -39 -208 -39 l-95 -1 35 -18 c54 -29 124
-95 160 -151 18 -27 33 -50 34 -50 1 0 2 29 3 64 2 68 20 112 69 174 28 34 29
37 2 21z"/>
<path d="M6767 11840 c-3 -8 -13 -42 -23 -75 -10 -33 -38 -89 -61 -124 -24
-35 -42 -65 -40 -67 1 -2 26 4 54 12 55 16 79 13 158 -21 39 -17 40 -17 24 1
-33 38 -78 144 -92 215 -8 41 -17 67 -20 59z"/>
<path d="M5482 11809 c-120 -59 -212 -201 -235 -363 -12 -84 -13 -85 -26 -55
-7 17 -41 60 -73 95 -98 104 -244 163 -365 148 -32 -4 -53 -11 -53 -19 0 -25
80 -129 132 -171 106 -88 264 -144 361 -130 163 25 326 242 344 458 7 81 4 82
-85 37z"/>
<path d="M5677 11722 c-3 -56 -14 -99 -36 -151 -17 -40 -31 -75 -31 -76 0 -2
20 8 45 22 49 27 96 33 159 20 l39 -8 -42 50 c-43 51 -111 172 -111 196 0 8
-4 16 -9 19 -4 3 -11 -30 -14 -72z"/>
<path d="M8540 11744 c0 -69 -29 -135 -82 -191 l-31 -32 44 22 c38 19 61 22
159 22 l115 0 -64 60 c-35 33 -82 87 -103 120 l-38 60 0 -61z"/>
<path d="M4544 11780 c-50 -20 -70 -93 -38 -138 22 -32 55 -43 97 -31 59 16
79 101 34 146 -26 26 -64 35 -93 23z"/>
<path d="M9355 11711 c-33 -10 -80 -28 -104 -40 -46 -24 -151 -122 -151 -141
0 -16 44 -30 132 -42 140 -20 314 29 426 120 28 23 52 39 52 35 0 -5 -7 -30
-15 -57 -44 -145 15 -376 127 -501 l44 -48 17 35 c24 51 47 146 47 196 0 61
-28 178 -57 238 -31 63 -94 138 -144 170 -86 54 -255 70 -374 35z"/>
<path d="M7964 11694 c-4 -14 -4 -58 -1 -98 10 -133 64 -253 157 -348 53 -54
75 -69 119 -82 69 -20 94 -20 184 0 144 33 274 117 345 222 23 35 4 45 -97 50
-100 5 -159 -9 -248 -60 -55 -31 -135 -104 -163 -150 -15 -26 -16 -24 -16 60
0 129 -45 247 -130 338 -28 31 -120 94 -136 94 -4 0 -11 -12 -14 -26z"/>
<path d="M3410 11637 c-57 -62 -73 -73 -157 -102 -37 -13 -58 -24 -45 -24 41
-1 166 -66 219 -115 l52 -47 -19 57 c-22 64 -28 221 -9 256 18 34 6 26 -41
-25z"/>
<path d="M7809 11628 c-19 -38 -58 -89 -98 -129 l-66 -66 45 9 c57 11 94 3
145 -31 22 -15 45 -30 52 -34 7 -5 4 10 -7 36 -23 52 -43 173 -38 233 2 24 2
44 1 44 -2 0 -17 -28 -34 -62z"/>
<path d="M4114 11586 c43 -53 56 -85 71 -168 l7 -38 26 53 c14 28 55 81 91
117 l66 65 -130 0 c-89 0 -137 4 -153 13 -17 10 -10 -2 22 -42z"/>
<path d="M3917 11549 c-12 -47 -60 -121 -121 -187 -34 -36 -52 -62 -41 -58 67
27 231 33 290 11 12 -4 7 3 -13 20 -45 37 -81 103 -96 176 -10 52 -14 59 -19
38z"/>
<path d="M8903 11555 c-57 -25 -71 -93 -29 -142 29 -34 92 -39 125 -9 47 42
34 123 -24 150 -39 19 -32 19 -72 1z"/>
<path d="M4465 11521 c-123 -77 -211 -281 -187 -433 6 -35 14 -72 18 -83 4
-11 -8 -2 -27 21 -98 118 -246 182 -393 171 -75 -6 -146 -23 -146 -35 0 -19
106 -114 164 -146 131 -74 320 -95 414 -47 129 66 233 286 219 465 -5 72 -14
106 -26 106 -3 0 -19 -9 -36 -19z"/>
<path d="M4645 11401 c-1 -82 -6 -129 -17 -160 l-17 -43 32 29 c61 56 87 67
159 68 l66 0 -41 26 c-48 30 -123 107 -158 160 l-24 36 0 -116z"/>
<path d="M2961 11400 c-120 -18 -206 -68 -265 -154 -101 -146 -121 -335 -52
-490 34 -76 48 -84 79 -43 72 94 108 212 109 352 1 96 -6 128 -47 228 -6 14
-1 12 20 -7 65 -60 238 -116 357 -116 64 0 166 23 215 48 l35 19 -38 37 c-100
97 -268 148 -413 126z"/>
<path d="M9158 11339 c58 -57 98 -119 117 -181 l12 -42 22 74 c19 63 30 81 77
125 l54 52 -53 -9 c-64 -12 -178 -4 -237 17 l-45 16 53 -52z"/>
<path d="M10054 11251 c0 -73 -5 -108 -21 -146 -39 -97 -39 -93 -7 -64 65 58
181 107 259 110 26 0 24 3 -21 19 -75 26 -130 66 -172 125 l-37 53 -1 -97z"/>
<path d="M8986 11311 c-12 -19 -36 -138 -36 -179 0 -62 28 -189 54 -247 35
-76 99 -149 153 -176 42 -20 63 -23 163 -23 101 0 124 4 190 28 70 27 180 94
209 130 12 14 7 19 -35 38 -82 36 -178 45 -265 24 -91 -22 -178 -67 -234 -121
l-42 -42 19 56 c17 46 19 74 16 162 -4 96 -8 113 -40 180 -19 41 -47 89 -62
106 -35 42 -83 76 -90 64z m505 -428 c13 -16 12 -17 -3 -4 -10 7 -18 15 -18
17 0 8 8 3 21 -13z"/>
<path d="M8780 11229 c-45 -45 -97 -86 -129 -102 l-55 -27 52 0 c67 0 107 -17
157 -67 l40 -40 -9 78 c-7 59 -6 95 6 156 9 43 15 78 14 78 0 0 -35 -34 -76
-76z"/>
<path d="M3524 11278 c-25 -12 -44 -48 -44 -84 0 -37 51 -84 90 -84 43 0 90
47 90 90 0 65 -75 108 -136 78z"/>
<path d="M9567 11260 c-29 -93 -44 -119 -98 -172 l-59 -56 38 10 c49 14 145 4
218 -22 32 -11 60 -20 61 -20 2 0 -17 25 -42 55 -50 62 -70 97 -96 170 -10 28
-20 43 -22 35z"/>
<path d="M3325 11069 c-61 -22 -99 -29 -160 -29 -66 -1 -77 -3 -60 -13 61 -37
108 -95 129 -158 l22 -66 13 56 c17 72 40 117 96 186 25 30 44 54 43 54 -2 -1
-39 -15 -83 -30z"/>
<path d="M3687 10980 c17 -54 25 -100 26 -161 l1 -86 28 39 c33 45 79 75 128
84 55 10 55 14 -7 43 -56 27 -165 107 -189 140 -7 8 -1 -18 13 -59z"/>
<path d="M3492 11002 c-44 -48 -85 -126 -103 -198 -19 -75 -7 -220 24 -288 27
-59 25 -60 -33 -14 -19 15 -64 40 -100 55 -58 24 -77 27 -175 27 -112 0 -189
-19 -241 -59 -18 -15 -18 -16 11 -41 47 -39 145 -86 171 -81 13 2 21 1 19 -3
-13 -22 152 -36 240 -21 99 17 153 47 197 111 58 83 79 149 85 271 6 112 -5
185 -37 249 l-18 35 -40 -43z"/>
<path d="M10269 11019 c-60 -14 -142 -54 -183 -90 l-38 -34 63 -31 c80 -40
147 -54 252 -54 102 0 196 22 265 61 54 30 62 29 36 -6 -37 -49 -86 -299 -54
-280 9 6 10 3 3 -10 -21 -37 26 -203 78 -276 l21 -31 34 48 c61 85 78 145 78
269 0 94 -4 120 -26 176 -56 148 -146 225 -298 259 -54 11 -181 11 -231 -1z"/>
<path d="M2440 10909 c-36 -63 -77 -102 -145 -136 l-39 -21 74 -12 c72 -12
175 -55 213 -88 24 -21 22 -14 -17 60 -36 69 -63 190 -52 233 4 14 5 25 4 25
-2 0 -19 -28 -38 -61z"/>
<path d="M9829 10941 c-58 -58 -22 -150 59 -151 45 0 92 46 92 90 0 43 -47 90
-90 90 -22 0 -41 -9 -61 -29z"/>
<path d="M2951 10899 c-19 -74 -52 -152 -87 -201 -35 -49 -34 -59 1 -34 42 29
146 56 212 56 l67 0 -45 29 c-61 39 -87 70 -114 137 l-23 57 -11 -44z"/>
<path d="M10070 10715 c46 -67 78 -143 86 -202 l6 -53 28 57 c32 67 55 90 130
134 30 17 47 28 37 25 -38 -12 -172 15 -245 49 l-72 34 30 -44z"/>
<path d="M9759 10724 c-25 -31 -105 -79 -180 -109 l-77 -31 45 -14 c55 -16 96
-49 135 -109 16 -25 27 -38 24 -28 -10 32 15 171 44 240 30 69 32 78 9 51z"/>
<path d="M9881 10676 c-41 -84 -55 -146 -56 -256 0 -122 18 -192 67 -266 18
-27 48 -59 67 -71 103 -69 292 -86 433 -39 71 23 148 63 148 76 0 3 -23 20
-50 38 -73 48 -140 66 -245 66 -102 0 -189 -25 -262 -74 l-43 -29 31 54 c41
73 59 144 59 236 0 114 -41 229 -103 287 l-23 22 -23 -44z"/>
<path d="M2092 10600 c-216 -57 -320 -206 -310 -444 4 -73 11 -117 27 -159 22
-56 93 -156 117 -164 11 -4 45 67 59 122 37 151 14 326 -58 446 l-34 57 52
-24 c153 -70 391 -50 530 46 54 37 53 40 -28 84 -103 56 -229 69 -355 36z"/>
<path d="M2623 10578 c-45 -50 -34 -116 23 -143 29 -13 41 -14 69 -5 41 14 55
35 55 85 0 50 -36 85 -88 85 -27 0 -44 -7 -59 -22z"/>
<path d="M10451 10528 c-17 -50 -75 -112 -137 -146 l-51 -27 54 -2 c70 -2 136
-25 202 -68 29 -19 51 -32 49 -27 -2 4 -17 34 -34 67 -29 55 -38 86 -62 200
l-8 40 -13 -37z"/>
<path d="M10950 10505 c-1 -81 -42 -190 -94 -253 l-26 -30 81 35 c70 31 93 36
165 37 46 0 84 2 84 3 0 1 -17 11 -37 24 -66 39 -105 82 -139 154 l-33 70 -1
-40z"/>
<path d="M2829 10345 c41 -64 69 -142 77 -211 l7 -56 31 58 c30 56 98 114 134
114 42 0 -48 34 -118 45 -7 1 -110 62 -138 82 -22 15 -21 12 7 -32z"/>
<path d="M2519 10361 c-43 -33 -108 -61 -196 -85 -77 -20 -84 -24 -58 -30 58
-15 114 -57 153 -116 l40 -59 4 77 c5 76 25 133 72 205 21 32 18 34 -15 8z"/>
<path d="M2653 10315 c-79 -121 -84 -315 -13 -455 12 -25 32 -58 43 -73 l20
-29 -44 23 c-92 47 -225 62 -329 38 -79 -18 -210 -96 -210 -125 0 -6 21 -21
48 -32 214 -92 515 -25 587 131 56 120 60 287 10 412 -28 69 -72 145 -84 145
-3 0 -16 -16 -28 -35z"/>
<path d="M10654 10185 c-74 -51 -43 -165 45 -165 86 0 125 99 60 154 -34 29
-74 33 -105 11z"/>
<path d="M11015 10156 c-62 -13 -145 -50 -145 -65 0 -13 80 -75 128 -100 81
-41 197 -64 302 -58 52 3 115 12 139 21 l44 16 -27 -32 c-76 -93 -134 -284
-122 -402 8 -73 31 -165 46 -180 18 -18 97 71 143 163 l42 84 0 131 c0 123 -2
135 -29 193 -29 64 -80 119 -152 166 -92 60 -254 88 -369 63z"/>
<path d="M2133 10071 c-1 -70 -20 -147 -58 -236 -6 -15 2 -11 30 14 51 44 154
92 212 99 l46 5 -61 28 c-66 30 -99 59 -141 126 l-26 41 -2 -77z"/>
<path d="M1647 10030 c-13 -60 -51 -122 -110 -175 l-58 -53 48 10 c65 12 156
2 226 -26 l57 -24 -39 47 c-48 58 -80 119 -101 195 -17 59 -17 59 -23 26z"/>
<path d="M10510 9964 c-25 -13 -49 -27 -55 -31 -5 -4 -19 -9 -30 -11 -111 -15
-168 -29 -149 -36 47 -15 103 -66 123 -112 12 -26 21 -54 22 -63 0 -9 11 16
23 54 25 77 47 124 81 170 23 32 38 56 33 54 -2 -1 -23 -12 -48 -25z"/>
<path d="M10852 9893 c28 -60 32 -79 32 -158 l1 -90 38 48 c42 53 82 81 140
99 20 6 37 14 37 17 0 3 -26 14 -59 24 -55 18 -124 55 -190 105 l-30 23 31
-68z"/>
<path d="M10651 9905 c-105 -120 -149 -355 -95 -507 43 -122 214 -211 409
-212 90 0 197 22 211 45 11 19 -69 89 -141 124 -127 61 -243 69 -369 25 l-57
-19 34 42 c49 62 67 93 87 153 26 75 34 158 21 226 -11 62 -49 158 -61 158 -4
0 -22 -16 -39 -35z"/>
<path d="M1930 9753 c-79 -28 -88 -138 -13 -169 92 -39 168 66 101 139 -24 26
-62 39 -88 30z"/>
<path d="M1456 9669 c-105 -25 -235 -115 -283 -196 -107 -182 -45 -465 131
-603 21 -16 42 -30 47 -30 13 0 29 97 29 178 0 137 -55 281 -145 380 -30 34
-42 53 -30 48 77 -31 242 -22 345 17 99 38 127 55 188 113 64 60 63 63 -22 89
-55 17 -197 19 -260 4z"/>
<path d="M11178 9648 c-12 -18 -32 -41 -43 -51 -26 -24 -115 -67 -138 -67 -10
0 -15 -4 -12 -10 3 -5 13 -10 21 -10 32 0 144 -63 191 -108 l50 -48 -20 61
c-15 43 -20 89 -21 162 -1 57 -2 103 -3 103 -1 0 -12 -15 -25 -32z"/>
<path d="M2110 9551 c0 -4 9 -16 21 -27 38 -34 86 -108 111 -172 l25 -63 11
43 c15 58 49 108 96 138 l39 25 -34 2 c-59 4 -194 25 -204 32 -23 16 -65 30
-65 22z"/>
<path d="M11671 9539 c-2 -41 -60 -144 -118 -208 l-53 -59 44 13 c73 22 147
26 212 12 59 -13 61 -12 50 5 -6 10 -14 18 -18 18 -20 0 -79 103 -96 170 -11
41 -21 63 -21 49z"/>
<path d="M1785 9448 c-33 -28 -96 -68 -139 -90 -56 -26 -72 -38 -55 -38 54 0
123 -33 176 -85 l53 -51 -7 35 c-13 64 -7 164 14 224 11 31 19 57 19 57 -1 -1
-28 -24 -61 -52z"/>
<path d="M1970 9479 c-13 -23 -40 -143 -40 -177 0 -13 4 -21 9 -18 4 3 6 -6 3
-19 -12 -65 72 -238 151 -308 18 -16 24 -26 15 -23 -192 60 -414 -3 -520 -148
-34 -48 -31 -51 67 -65 157 -23 339 34 446 139 50 49 58 63 69 115 35 168 -21
362 -143 493 -36 38 -43 39 -57 11z"/>
<path d="M11303 9270 c-25 -10 -53 -58 -53 -90 0 -35 53 -80 93 -80 45 0 87
38 87 79 0 77 -58 119 -127 91z"/>
<path d="M1494 9176 c24 -67 24 -185 1 -281 -7 -28 -3 -25 43 26 37 41 74 67
134 98 78 38 81 41 48 42 -62 1 -128 32 -182 84 -28 28 -48 41 -44 31z"/>
<path d="M11560 9163 c-8 -3 -25 -10 -38 -14 -28 -11 -23 -22 43 -90 60 -62
144 -112 243 -145 65 -22 90 -25 177 -22 l101 3 -30 -20 c-71 -48 -166 -195
-197 -306 -14 -49 -18 -243 -6 -255 22 -23 161 95 210 178 48 82 70 178 65
286 -5 112 -20 148 -92 229 -96 107 -225 163 -371 162 -49 0 -97 -3 -105 -6z"/>
<path d="M11115 9083 c-63 -17 -158 -24 -212 -14 l-43 8 47 -40 c50 -45 67
-78 78 -149 l7 -47 34 68 c21 43 57 90 96 129 35 34 58 61 53 61 -6 -1 -32 -8
-60 -16z"/>
<path d="M11243 8995 c-154 -129 -236 -403 -163 -545 67 -132 279 -236 466
-228 45 1 85 6 89 10 4 4 -10 32 -30 63 -44 65 -133 132 -218 164 -71 26 -186
37 -246 23 l-44 -10 39 31 c131 106 208 276 190 419 -7 53 -25 108 -34 108 -4
0 -26 -16 -49 -35z"/>
<path d="M11434 9003 c30 -78 31 -189 3 -272 l-14 -40 46 41 c57 51 94 67 173
75 l62 6 -37 13 c-53 19 -114 63 -181 133 -32 34 -55 54 -52 44z"/>
<path d="M1035 8963 c-12 -73 -35 -128 -74 -179 l-38 -50 66 18 c51 15 86 18
153 14 l86 -5 -66 67 c-37 37 -79 91 -94 120 l-27 54 -6 -39z"/>
<path d="M1373 8765 c-89 -38 -61 -165 37 -165 96 0 123 129 34 166 -39 16
-31 17 -71 -1z"/>
<path d="M11704 8629 c-51 -41 -86 -55 -157 -64 l-57 -7 39 -20 c55 -27 123
-89 161 -146 l31 -47 -6 85 c-5 67 -2 101 13 158 10 39 18 72 17 72 -1 0 -20
-14 -41 -31z"/>
<path d="M993 8616 c-98 -34 -163 -77 -223 -144 -97 -108 -124 -207 -96 -342
20 -94 62 -180 120 -246 49 -55 124 -108 169 -119 l27 -7 0 69 c0 176 -102
370 -243 461 l-51 32 65 0 c113 0 218 36 331 113 56 37 133 118 157 164 16 31
2 36 -99 40 -71 3 -97 -1 -157 -21z"/>
<path d="M1590 8602 c46 -31 140 -125 169 -169 l29 -43 6 54 c8 57 50 133 89
161 25 18 23 18 -23 4 -44 -13 -214 -13 -260 0 l-35 10 25 -17z"/>
<path d="M1466 8514 c-16 -43 -17 -123 -2 -183 33 -129 102 -229 200 -293 l59
-38 -75 0 c-176 0 -339 -95 -412 -239 -14 -28 -26 -53 -26 -56 0 -9 114 -6
171 5 86 16 216 85 280 149 70 71 90 110 96 193 12 150 -90 355 -221 442 -63
41 -62 41 -70 20z"/>
<path d="M1302 8458 c-38 -54 -93 -112 -145 -149 -38 -28 -39 -29 -14 -29 56
0 130 -23 178 -56 28 -18 48 -28 45 -21 -27 65 -37 125 -34 207 2 50 2 90 1
90 -1 0 -15 -19 -31 -42z"/>
<path d="M12167 8416 c-16 -38 -119 -156 -136 -156 -4 0 -22 -11 -40 -24 l-32
-24 88 0 c87 0 161 -20 219 -57 15 -10 9 5 -22 51 -43 67 -57 120 -56 211 1
24 0 43 -1 43 -1 0 -10 -20 -20 -44z"/>
<path d="M11737 8239 c-11 -6 -25 -26 -33 -45 -12 -30 -12 -39 0 -69 19 -45
54 -61 104 -49 75 18 90 124 21 159 -33 17 -67 19 -92 4z"/>
<path d="M11329 8094 c42 -60 43 -65 43 -134 -1 -70 0 -72 15 -49 32 49 110
121 166 155 31 20 57 36 57 37 0 1 -35 1 -77 -1 -81 -4 -203 18 -232 41 -8 6
5 -16 28 -49z"/>
<path d="M1075 8078 c25 -55 45 -153 45 -223 l0 -40 30 52 c36 62 86 114 149
155 l46 29 -47 -6 c-66 -10 -139 9 -198 51 l-50 36 25 -54z"/>
<path d="M11953 8083 c-28 -5 -28 -3 -1 -60 30 -64 159 -191 233 -230 58 -31
139 -56 219 -68 l39 -7 -44 -21 c-67 -33 -181 -151 -219 -227 -58 -115 -92
-280 -57 -280 33 0 144 66 198 117 101 96 159 228 159 364 0 227 -295 457
-527 412z"/>
<path d="M11638 7982 c-146 -84 -268 -280 -268 -430 0 -76 34 -144 110 -220
98 -98 210 -153 339 -168 l64 -7 -7 29 c-40 164 -210 298 -407 320 l-61 7 45
22 c67 32 111 68 160 133 77 101 103 182 98 305 -1 45 -10 46 -73 9z"/>
<path d="M11841 7909 c-1 -69 -21 -149 -52 -212 l-20 -38 58 33 c53 30 65 33
140 32 75 0 80 1 60 14 -60 40 -151 151 -177 214 -7 18 -9 7 -9 -43z"/>
<path d="M650 7772 c0 -68 -4 -87 -34 -149 l-34 -71 41 27 c56 37 128 61 208
68 l65 6 -70 37 c-51 26 -86 54 -123 98 l-53 62 0 -78z"/>
<path d="M1033 7694 c-83 -42 -52 -166 42 -166 41 0 63 15 80 55 32 77 -46
149 -122 111z"/>
<path d="M1546 7641 c-11 -17 -149 -53 -225 -58 l-74 -6 39 -15 c60 -24 114
-60 177 -120 55 -53 57 -54 46 -23 -19 54 -7 132 29 184 17 26 27 47 22 47 -5
0 -11 -4 -14 -9z"/>
<path d="M12015 7536 c-62 -32 -130 -39 -200 -22 l-30 7 35 -25 c53 -40 117
-125 143 -189 l23 -58 12 88 c8 61 22 109 46 160 19 40 34 72 33 72 -1 -1 -29
-16 -62 -33z"/>
<path d="M831 7520 c-82 -12 -196 -74 -263 -141 -72 -74 -130 -188 -136 -267
-14 -196 144 -419 338 -476 81 -24 83 -23 76 28 -27 178 -173 361 -343 431
l-56 22 57 7 c147 19 326 156 401 309 21 42 36 80 33 83 -10 10 -53 11 -107 4z"/>
<path d="M1163 7419 c14 -146 98 -274 232 -356 28 -17 68 -37 90 -44 l40 -13
-60 -8 c-115 -15 -262 -110 -329 -213 -25 -40 -56 -125 -56 -157 0 -20 28 -18
115 9 119 37 259 151 320 263 26 47 30 66 30 130 0 64 -5 85 -32 143 -36 76
-59 108 -131 180 -49 50 -145 110 -196 123 l-29 7 6 -64z"/>
<path d="M1000 7340 c-23 -49 -54 -95 -91 -133 -31 -32 -49 -55 -40 -51 9 3
48 8 86 11 59 4 78 1 126 -20 l55 -25 -39 75 c-26 50 -43 99 -51 147 l-11 72
-35 -76z"/>
<path d="M12408 7208 c-58 -58 -82 -74 -155 -103 -32 -13 -51 -26 -43 -28 8
-2 46 -11 84 -21 69 -16 186 -78 186 -98 0 -6 2 -9 5 -6 3 3 -3 25 -14 50 -25
59 -33 131 -22 198 5 30 8 55 7 55 0 0 -22 -21 -48 -47z"/>
<path d="M11538 7117 c42 -72 46 -122 15 -222 -4 -15 5 -10 32 17 43 42 130
91 207 117 l52 18 -64 6 c-77 7 -170 38 -224 74 l-40 26 22 -36z"/>
<path d="M11965 7138 c-31 -18 -44 -40 -45 -76 0 -45 46 -92 90 -92 39 0 90
47 90 84 0 74 -73 120 -135 84z"/>
<path d="M869 6957 c36 -54 77 -158 87 -222 l7 -50 22 73 c23 73 50 117 113
184 l35 37 -48 -15 c-68 -20 -117 -18 -185 10 l-60 25 29 -42z"/>
<path d="M12141 6911 c39 -172 226 -361 396 -400 22 -5 32 -10 23 -14 -8 -3
-44 -15 -79 -28 -77 -27 -191 -115 -244 -186 -39 -53 -90 -158 -102 -207 l-6
-29 63 6 c219 22 429 275 403 486 -24 192 -220 392 -402 408 l-61 6 9 -42z"/>
<path d="M11827 6915 c-91 -32 -156 -75 -226 -151 -96 -105 -144 -230 -121
-315 37 -138 148 -267 289 -337 46 -23 96 -42 112 -42 26 0 27 2 23 38 -3 20
-17 68 -31 105 -45 121 -202 255 -320 274 -44 7 -42 19 5 28 105 19 255 142
306 250 28 58 49 154 38 167 -4 4 -38 -4 -75 -17z"/>
<path d="M12012 6810 c-13 -72 -41 -134 -88 -195 l-33 -43 35 14 c61 25 143
28 205 7 l57 -19 -29 29 c-41 40 -79 109 -109 195 l-26 73 -12 -61z"/>
<path d="M505 6616 c19 -62 18 -179 0 -231 -8 -22 -15 -41 -15 -42 0 -2 19 15
41 37 45 44 149 98 204 107 38 6 48 23 15 23 -55 0 -202 83 -247 140 -8 10 -7
-1 2 -34z"/>
<path d="M1390 6599 c-57 -39 -120 -67 -190 -84 -30 -7 -48 -15 -40 -18 8 -2
44 -13 79 -23 34 -10 94 -37 131 -60 l68 -42 -19 42 c-24 53 -24 120 1 174 10
23 18 42 17 42 -1 0 -22 -14 -47 -31z"/>
<path d="M899 6561 c-20 -20 -29 -39 -29 -61 0 -22 9 -41 29 -61 37 -37 79
-38 120 -3 25 21 31 33 31 65 0 83 -92 119 -151 60z"/>
<path d="M11925 6385 c45 -60 74 -123 88 -195 l13 -61 18 58 c24 78 71 165
112 206 l32 34 -60 -18 c-75 -24 -101 -24 -176 0 l-60 18 33 -42z"/>
<path d="M1084 6348 c8 -48 43 -122 82 -173 63 -83 194 -157 307 -173 l52 -7
-60 -23 c-76 -27 -146 -81 -207 -157 -56 -70 -87 -144 -95 -232 l-6 -64 29 7
c106 25 257 161 320 289 34 69 39 86 39 154 0 66 -4 83 -30 131 -39 71 -144
177 -219 220 -49 28 -175 70 -209 70 -6 0 -7 -18 -3 -42z"/>
<path d="M753 6360 c-187 -66 -333 -278 -321 -465 7 -107 80 -232 185 -314 78
-63 154 -93 247 -99 l78 -5 -7 24 c-31 103 -159 257 -260 313 -64 35 -155 66
-197 67 -32 0 -32 0 15 20 155 63 280 199 336 366 12 34 21 74 21 88 0 31 -21
32 -97 5z"/>
<path d="M951 6247 c-13 -67 -55 -166 -92 -218 l-20 -28 58 25 c49 22 68 25
123 21 36 -3 74 -9 85 -13 14 -6 9 4 -17 34 -55 61 -84 112 -105 182 l-19 63
-13 -66z"/>
<path d="M11555 6105 c28 -85 22 -164 -17 -218 -12 -16 -17 -28 -12 -26 5 2
38 18 74 36 36 17 94 37 130 43 97 19 99 20 45 39 -86 31 -171 83 -213 131
-12 13 -13 12 -7 -5z"/>
<path d="M12479 6043 c-7 -18 -95 -71 -144 -88 -27 -9 -72 -20 -100 -24 -37
-6 -45 -10 -30 -15 75 -26 169 -83 209 -126 41 -44 45 -46 39 -22 -15 58 -7
175 16 226 12 27 20 51 17 53 -2 2 -6 0 -7 -4z"/>
<path d="M11965 6018 c-31 -18 -44 -40 -45 -76 0 -45 46 -92 90 -92 43 0 90
47 90 90 0 64 -79 110 -135 78z"/>
<path d="M1075 5853 c-51 -21 -70 -24 -125 -20 -36 3 -72 8 -81 12 -9 3 8 -19
38 -50 34 -35 68 -85 94 -137 36 -75 39 -79 39 -47 1 71 37 178 82 242 11 15
18 27 16 26 -2 0 -30 -12 -63 -26z"/>
<path d="M11748 5824 c-105 -25 -236 -105 -296 -182 -17 -21 -43 -63 -58 -92
-23 -46 -26 -61 -22 -125 6 -98 65 -219 149 -310 56 -60 149 -125 179 -125 9
0 11 24 8 93 -3 81 -7 101 -37 162 -42 84 -133 180 -208 217 l-52 26 57 7
c200 25 366 155 408 319 6 25 4 26 -32 25 -22 0 -65 -7 -96 -15z"/>
<path d="M12110 5763 c1 -153 126 -361 267 -443 l60 -35 -81 -17 c-125 -27
-218 -77 -306 -167 -67 -68 -130 -164 -116 -178 14 -15 104 -14 169 2 154 36
279 136 348 280 23 47 29 74 29 125 0 185 -108 363 -271 444 -94 47 -99 47
-99 -11z"/>
<path d="M11981 5741 c-3 -37 -66 -142 -116 -193 l-55 -57 73 2 c63 2 81 -2
135 -29 34 -17 61 -28 59 -25 -44 82 -69 150 -81 226 -7 50 -14 84 -15 76z"/>
<path d="M1446 5543 c-35 -32 -89 -70 -130 -89 l-70 -34 55 0 c62 0 190 -30
241 -56 l33 -17 -21 24 c-41 47 -57 98 -51 166 2 34 4 63 3 63 0 -1 -28 -26
-60 -57z"/>
<path d="M1038 5469 c-39 -15 -62 -70 -48 -113 31 -95 170 -71 170 28 -1 47
-16 71 -54 86 -32 12 -32 12 -68 -1z"/>
<path d="M612 5384 c34 -69 38 -83 38 -155 l0 -79 53 62 c38 45 72 72 125 100
73 38 73 38 35 38 -85 0 -219 46 -269 91 -15 15 -11 0 18 -57z"/>
<path d="M11780 5318 c33 -53 60 -155 60 -227 l1 -66 18 36 c40 80 121 176
176 208 16 10 9 11 -40 6 -70 -7 -136 10 -196 49 l-39 26 20 -32z"/>
<path d="M1210 5295 c0 -3 11 -28 25 -56 72 -140 241 -239 412 -239 l78 0 -35
-18 c-52 -25 -151 -130 -182 -192 -40 -80 -62 -178 -54 -242 10 -81 17 -87 63
-56 180 122 291 394 222 545 -46 100 -196 212 -335 248 -55 14 -194 21 -194
10z"/>
<path d="M931 5224 c-127 -64 -225 -198 -257 -354 -29 -142 3 -246 111 -357
116 -118 304 -179 438 -142 l37 10 -16 32 c-24 46 -142 157 -202 190 -91 49
-188 77 -271 77 l-75 0 45 28 c51 33 125 111 161 168 53 84 80 174 86 277 2
53 3 97 0 97 -2 0 -28 -12 -57 -26z"/>
<path d="M1116 5176 c10 -27 -15 -186 -39 -246 l-25 -60 47 35 c49 35 108 54
176 55 l40 1 -29 22 c-53 40 -108 101 -138 155 -29 50 -43 68 -32 38z"/>
<path d="M11372 5043 c1 -72 -13 -112 -51 -147 -33 -30 -25 -37 22 -19 29 11
77 16 154 17 62 1 113 2 113 3 0 1 -22 15 -50 32 -62 38 -125 95 -161 144
l-28 39 1 -69z"/>
<path d="M11724 4907 c-43 -38 -34 -116 16 -142 36 -19 54 -19 89 0 40 20 55
66 37 110 -25 59 -93 74 -142 32z"/>
<path d="M12257 4839 c-52 -30 -137 -50 -214 -51 l-82 0 58 -39 c63 -42 122
-107 152 -167 l18 -37 1 74 c0 62 5 83 31 135 17 33 38 69 47 79 17 19 15 21
-11 6z"/>
<path d="M1345 4794 c-49 -42 -113 -66 -177 -68 -32 0 -58 -2 -58 -3 0 -2 18
-14 41 -28 49 -31 122 -106 156 -158 13 -22 26 -37 27 -35 2 1 0 27 -4 56 -9
68 6 175 31 224 11 21 18 38 17 38 -2 -1 -16 -12 -33 -26z"/>
<path d="M11364 4756 c-134 -43 -248 -126 -287 -208 -53 -112 -14 -315 87
-455 31 -44 115 -123 129 -123 9 0 26 61 33 115 17 141 -69 324 -201 424 -20
15 -23 20 -10 16 11 -3 47 -9 80 -12 155 -14 361 91 425 217 l19 38 -22 6
c-52 14 -183 5 -253 -18z"/>
<path d="M11846 4636 c-10 -73 10 -205 41 -281 31 -76 98 -168 156 -215 l43
-35 -99 3 c-88 4 -111 1 -184 -23 -96 -32 -181 -83 -242 -146 -63 -65 -67 -77
-34 -91 15 -6 67 -13 115 -16 75 -4 100 -1 173 22 137 43 262 153 300 265 8
25 15 79 15 121 0 130 -41 245 -121 342 -37 44 -124 108 -146 108 -6 0 -14
-24 -17 -54z"/>
<path d="M11705 4629 c-11 -34 -117 -134 -172 -161 l-52 -25 66 -7 c67 -7 129
-32 153 -61 7 -9 21 -20 31 -25 16 -9 16 -7 1 38 -10 30 -15 85 -15 155 0 59
-2 107 -3 107 -1 0 -6 -9 -9 -21z"/>
<path d="M1773 4589 c-16 -34 -110 -137 -157 -170 -21 -16 -36 -29 -32 -29 4
0 38 5 76 11 66 10 175 2 225 -17 14 -5 10 3 -14 27 -51 51 -64 75 -76 141
-10 56 -12 59 -22 37z"/>
<path d="M1374 4400 c-47 -19 -68 -85 -43 -132 6 -11 26 -26 45 -34 31 -13 39
-13 68 1 32 15 56 50 56 81 0 31 -30 72 -61 83 -37 13 -37 13 -65 1z"/>
<path d="M11436 4275 c29 -71 29 -199 -2 -278 -3 -10 20 10 52 44 66 69 131
116 184 135 l35 13 -30 1 c-75 1 -144 27 -200 74 l-54 47 15 -36z"/>
<path d="M1628 4276 c-32 -7 -60 -15 -63 -18 -3 -2 8 -24 25 -46 83 -115 272
-188 425 -164 39 6 78 14 87 17 8 3 -4 -15 -28 -41 -90 -96 -148 -245 -138
-355 6 -67 30 -156 46 -165 19 -12 94 81 138 169 59 120 75 238 49 359 -10 43
-21 62 -70 111 -71 71 -154 111 -275 132 -101 17 -119 18 -196 1z"/>
<path d="M949 4231 c51 -61 67 -94 81 -168 l12 -62 32 60 c28 55 111 145 161
176 17 10 15 11 -15 5 -68 -14 -193 -7 -252 14 l-57 21 38 -46z"/>
<path d="M1304 4131 c-78 -58 -137 -150 -165 -260 -30 -117 -22 -236 23 -324
31 -62 115 -134 205 -178 73 -36 94 -41 175 -46 103 -6 195 8 229 36 l21 17
-48 48 c-53 51 -151 104 -249 132 -69 20 -209 23 -269 6 l-40 -11 41 42 c88
90 142 220 150 362 5 87 -10 205 -26 205 -4 0 -25 -13 -47 -29z"/>
<path d="M10990 4147 c0 -9 -5 -40 -11 -69 -10 -43 -21 -61 -66 -104 l-54 -52
43 10 c50 11 150 4 226 -16 l53 -14 -64 67 c-35 38 -78 97 -96 131 -17 35 -31
56 -31 47z"/>
<path d="M1494 4105 c24 -92 24 -214 0 -281 -4 -10 15 3 41 29 54 54 74 65
154 82 l53 11 -65 32 c-41 21 -90 57 -128 95 -57 57 -62 60 -55 32z"/>
<path d="M11279 3871 c-32 -33 -36 -58 -14 -100 29 -56 106 -63 145 -14 71 90
-50 195 -131 114z"/>
<path d="M1777 3774 c-41 -46 -107 -81 -171 -93 -38 -7 -39 -8 -15 -14 43 -11
149 -75 206 -123 l52 -45 -13 33 c-28 66 -38 149 -27 217 6 36 9 65 8 66 -1 1
-19 -18 -40 -41z"/>
<path d="M10863 3810 c-131 -24 -259 -101 -294 -178 -61 -132 -45 -327 37
-471 27 -47 72 -101 85 -101 13 0 49 99 61 168 21 124 -26 277 -116 380 -24
28 -27 34 -11 28 143 -58 287 -54 424 14 48 24 131 96 131 114 0 35 -208 65
-317 46z"/>
<path d="M11547 3679 c56 -59 122 -174 124 -217 0 -15 9 6 21 48 19 74 41 112
102 179 24 26 27 32 11 27 -54 -20 -141 -25 -212 -11 -40 8 -79 17 -86 21 -6
4 11 -17 40 -47z"/>
<path d="M2261 3700 c-2 -34 -71 -158 -115 -207 -27 -29 -46 -53 -44 -53 3 0
33 11 67 25 42 18 93 28 154 33 l91 7 -42 27 c-49 33 -69 61 -93 131 -10 29
-18 45 -18 37z"/>
<path d="M11223 3627 c-10 -12 -38 -39 -63 -59 -39 -32 -68 -46 -165 -82 -16
-6 -8 -12 40 -27 60 -18 122 -66 156 -118 15 -23 15 -20 12 60 -4 68 0 100 20
167 13 45 23 82 21 82 -1 0 -11 -10 -21 -23z"/>
<path d="M11371 3632 c-13 -25 -41 -164 -41 -207 0 -57 29 -185 56 -244 13
-29 40 -75 59 -101 l35 -48 -61 19 c-115 36 -304 17 -421 -42 -50 -25 -128
-86 -128 -100 0 -18 104 -58 178 -69 202 -28 415 73 487 232 24 52 30 80 33
159 5 111 -6 174 -44 254 -26 54 -116 165 -135 165 -4 0 -13 -8 -18 -18z"/>
<path d="M1908 3415 c-32 -18 -52 -72 -39 -106 14 -39 46 -61 87 -61 90 0 120
133 38 171 -32 14 -53 13 -86 -4z"/>
<path d="M2257 3369 c-57 -13 -137 -50 -137 -63 0 -15 56 -59 115 -89 121 -61
298 -61 417 -1 l48 24 -33 -52 c-62 -99 -71 -133 -72 -279 0 -102 1 -108 38
-182 21 -42 41 -77 45 -77 14 0 71 98 93 161 31 88 33 254 4 349 -31 103 -125
179 -256 209 -53 13 -209 12 -262 0z"/>
<path d="M10884 3265 c0 -79 -4 -98 -31 -157 l-31 -66 67 48 c38 28 99 60 144
75 l78 28 -49 16 c-67 23 -95 43 -139 99 l-38 47 -1 -90z"/>
<path d="M10421 3285 c-3 -47 -55 -119 -111 -152 l-55 -33 35 0 c56 0 150 -26
213 -59 31 -16 57 -27 57 -24 0 4 -50 73 -60 83 -10 9 -40 84 -59 145 -11 33
-20 51 -20 40z"/>
<path d="M1777 3224 c-52 -28 -163 -45 -231 -36 l-62 8 64 -61 c54 -50 67 -71
86 -126 l22 -66 18 66 c18 68 47 120 104 190 19 23 32 41 30 41 -1 -1 -16 -8
-31 -16z"/>
<path d="M1887 3130 c-72 -79 -107 -181 -107 -310 0 -237 116 -378 350 -426
129 -26 276 2 351 66 l34 30 -25 20 c-131 106 -398 132 -554 53 l-49 -25 20
29 c85 120 118 318 78 471 -17 68 -44 132 -56 132 -4 0 -23 -18 -42 -40z"/>
<path d="M2096 3112 c27 -68 49 -192 40 -234 -4 -23 3 -16 37 34 36 55 52 68
115 99 l73 36 -44 5 c-54 6 -145 47 -197 88 -21 16 -40 30 -43 30 -2 0 6 -26
19 -58z"/>
<path d="M10120 2979 c-50 -10 -60 -13 -143 -54 -50 -24 -62 -36 -92 -89 -64
-115 -81 -258 -46 -391 19 -73 56 -155 69 -155 5 0 17 10 28 23 112 126 127
359 34 517 l-28 47 57 -34 c103 -62 223 -83 338 -59 76 15 144 45 180 79 l23
20 -33 22 c-98 65 -266 97 -387 74z"/>
<path d="M10652 2973 c-23 -9 -44 -64 -38 -98 8 -40 34 -64 78 -71 28 -5 39
-1 66 24 63 59 29 153 -55 151 -21 0 -44 -3 -51 -6z"/>
<path d="M2420 2873 c-35 -56 -84 -95 -147 -117 l-35 -12 79 -18 c73 -17 159
-55 210 -92 18 -13 14 -1 -20 65 -34 67 -42 95 -47 156 l-5 74 -35 -56z"/>
<path d="M2902 2846 c-7 -39 -14 -75 -15 -81 -6 -19 -49 -100 -71 -130 l-20
-30 34 26 c52 39 128 75 190 89 76 17 89 26 55 34 -58 15 -103 55 -142 127
l-19 36 -12 -71z"/>
<path d="M10840 2773 c0 -2 11 -19 25 -37 41 -54 74 -139 83 -212 l8 -69 13
40 c27 79 72 131 162 193 l34 22 -30 -6 c-51 -10 -167 12 -233 43 -34 17 -62
28 -62 26z"/>
<path d="M10555 2740 c-3 -6 -38 -26 -76 -45 -65 -33 -174 -58 -209 -48 -8 2
10 -9 40 -26 67 -35 105 -74 134 -136 l23 -46 17 88 c11 54 30 113 51 152 19
36 33 66 31 69 -2 2 -7 -2 -11 -8z"/>
<path d="M10672 2673 c-48 -92 -66 -165 -66 -278 0 -111 19 -190 61 -265 21
-36 22 -42 7 -29 -121 104 -414 120 -577 31 l-47 -25 22 -24 c13 -14 61 -43
107 -66 l84 -42 121 1 c100 0 131 4 176 22 128 50 194 118 241 247 32 86 33
256 1 334 -21 54 -81 151 -93 151 -3 0 -20 -26 -37 -57z"/>
<path d="M3083 2615 c-68 -16 -161 -60 -208 -99 -29 -24 -30 -25 -10 -40 11
-8 47 -25 80 -38 49 -19 79 -23 160 -22 113 0 185 22 265 78 25 18 50 35 57
39 7 4 1 -18 -14 -49 -30 -67 -42 -199 -25 -281 16 -73 57 -154 104 -205 l40
-43 18 36 c26 49 31 78 37 190 6 111 -6 181 -47 266 -38 82 -95 138 -162 158
-73 23 -218 28 -295 10z"/>
<path d="M2638 2563 c-52 -32 -57 -107 -10 -143 58 -46 142 -8 142 64 0 48 -8
65 -41 81 -36 19 -57 19 -91 -2z"/>
<path d="M9683 2543 c-31 -55 -70 -88 -133 -111 -30 -12 -47 -21 -36 -21 33
-1 182 -78 224 -116 23 -20 42 -35 42 -32 0 2 -13 33 -29 68 -30 64 -56 203
-45 234 11 28 -2 16 -23 -22z"/>
<path d="M10152 2473 c-13 -67 -38 -126 -76 -178 -38 -51 -37 -52 22 -24 76
36 129 49 206 52 l63 2 -51 28 c-70 38 -94 63 -125 128 l-27 56 -12 -64z"/>
<path d="M2500 2323 c-66 -41 -141 -64 -211 -65 l-51 -1 58 -30 c72 -36 108
-68 143 -129 l27 -47 12 82 c8 57 22 103 47 151 19 38 34 70 32 71 -1 1 -27
-14 -57 -32z"/>
<path d="M2847 2324 c31 -39 76 -122 86 -159 3 -11 11 -40 17 -64 l12 -44 23
57 c27 67 53 98 112 136 l43 27 -83 5 c-67 4 -95 11 -152 38 -38 19 -74 36
-80 38 -5 3 5 -13 22 -34z"/>
<path d="M2677 2303 c-28 -32 -65 -134 -72 -203 -13 -128 26 -263 106 -363 78
-97 173 -137 330 -137 97 0 170 18 244 60 58 34 129 100 118 110 -4 4 -35 18
-68 31 -50 19 -80 23 -175 23 -135 1 -224 -23 -319 -84 l-58 -37 25 66 c56
152 15 400 -87 522 -26 30 -27 30 -44 12z"/>
<path d="M9198 2307 c-64 -18 -113 -58 -159 -130 -45 -69 -65 -129 -82 -240
-9 -66 -9 -91 5 -159 10 -45 22 -86 27 -91 18 -18 109 87 149 171 34 71 37 85
40 182 3 87 0 115 -16 163 l-21 58 41 -40 c70 -70 179 -121 293 -137 52 -7
155 11 214 37 l44 19 -24 26 c-38 41 -120 91 -195 120 -84 32 -240 42 -316 21z"/>
<path d="M3713 2185 c-1 -54 -10 -106 -26 -158 l-25 -77 64 59 c38 34 90 70
129 87 70 31 81 44 37 44 -43 0 -114 41 -147 86 l-31 40 -1 -81z"/>
<path d="M9842 2203 c-18 -7 -42 -57 -42 -88 0 -38 50 -85 90 -85 43 0 90 47
90 90 0 44 -47 90 -92 89 -18 0 -39 -3 -46 -6z"/>
<path d="M3237 2137 c-19 -59 -73 -129 -121 -155 l-31 -17 100 -6 c74 -4 116
-12 161 -31 l62 -25 -44 54 c-54 66 -62 82 -89 165 l-21 68 -17 -53z"/>
<path d="M4031 2040 c-40 -11 -102 -35 -136 -55 -59 -33 -165 -125 -165 -143
0 -13 77 -34 145 -39 132 -11 276 47 371 150 32 34 54 53 50 42 -4 -11 -12
-47 -17 -80 -18 -125 28 -277 115 -374 24 -27 95 -81 107 -81 14 0 29 72 29
136 0 65 -29 192 -55 246 -52 102 -131 183 -202 205 -57 17 -159 14 -242 -7z"/>
<path d="M8801 1966 c-45 -46 -92 -66 -157 -66 l-39 -1 50 -26 c28 -14 85 -61
128 -104 44 -43 76 -71 73 -62 -20 51 -29 155 -20 227 5 42 9 76 9 76 0 0 -20
-20 -44 -44z"/>
<path d="M9699 1994 c-36 -19 -137 -44 -179 -44 -19 0 -51 4 -71 9 l-35 8 57
-56 c52 -52 68 -80 96 -171 2 -8 13 9 23 38 25 71 64 136 113 189 41 45 40 51
-4 27z"/>
<path d="M10005 1965 c41 -95 56 -162 53 -231 -2 -39 0 -70 4 -68 4 3 21 25
38 49 37 54 76 82 154 111 51 19 56 23 30 23 -72 2 -166 41 -249 105 -31 25
-37 27 -30 11z"/>
<path d="M9822 1916 c-90 -98 -148 -271 -139 -416 3 -47 13 -103 22 -125 l17
-40 -47 44 c-96 88 -275 148 -410 137 -83 -7 -157 -27 -163 -44 -6 -18 95
-112 154 -144 134 -73 330 -77 460 -10 52 26 118 100 154 172 31 62 60 178 60
240 0 57 -27 170 -49 203 l-18 28 -41 -45z"/>
<path d="M3524 1878 c-12 -5 -27 -21 -33 -34 -44 -98 65 -179 140 -105 75 75
-11 186 -107 139z"/>
<path d="M9280 1862 c0 -36 -61 -136 -117 -194 l-56 -57 44 17 c31 11 78 16
159 17 l116 0 -47 47 c-44 44 -79 114 -79 159 0 10 -4 21 -10 24 -5 3 -10 -3
-10 -13z"/>
<path d="M8255 1841 c-146 -36 -279 -237 -292 -442 -3 -47 -2 -93 3 -102 9
-15 14 -15 54 5 129 64 225 238 224 409 l0 86 26 -36 c99 -135 249 -208 410
-199 96 6 111 15 85 55 -98 149 -354 262 -510 224z"/>
<path d="M4627 1763 c13 -29 17 -67 18 -160 l0 -121 26 40 c37 56 107 127 155
157 l40 26 -60 1 c-67 1 -105 16 -161 65 l-35 31 17 -39z"/>
<path d="M3787 1650 c57 -57 117 -147 129 -195 7 -27 8 -24 20 34 15 73 50
137 96 177 20 17 25 25 13 20 -60 -23 -212 -18 -291 10 -11 4 5 -17 33 -46z"/>
<path d="M5102 1680 c-89 -19 -200 -81 -276 -156 -41 -40 -96 -120 -96 -140 0
-18 90 -27 156 -15 128 24 271 126 332 238 26 47 31 52 26 26 -10 -51 14 -162
52 -241 42 -88 124 -174 198 -208 78 -36 80 -35 73 49 -12 159 -117 341 -241
416 -62 37 -142 48 -224 31z"/>
<path d="M3425 1603 c-52 -47 -177 -113 -217 -114 -13 0 0 -8 32 -18 78 -25
98 -37 159 -95 39 -38 51 -45 46 -29 -14 49 -6 187 14 246 11 31 19 57 18 57
-1 -1 -24 -21 -52 -47z"/>
<path d="M3593 1603 c-21 -49 -28 -184 -14 -254 27 -128 125 -265 232 -323 43
-24 67 -30 144 -34 51 -2 115 1 145 7 79 17 172 65 232 120 55 50 98 114 85
127 -4 4 -51 9 -104 12 -167 7 -313 -43 -425 -146 l-57 -53 5 83 c11 162 -47
326 -160 446 -52 57 -64 59 -83 15z"/>
<path d="M7869 1611 c-63 -49 -145 -66 -213 -45 -12 4 1 -13 32 -41 57 -51
107 -117 134 -177 9 -21 18 -38 20 -38 2 0 1 22 0 50 -4 56 22 199 44 242 17
33 15 34 -17 9z"/>
<path d="M4185 1583 c-18 -101 -44 -152 -106 -202 -24 -19 -24 -19 31 -4 39
10 87 13 167 10 l112 -4 -37 27 c-51 37 -107 103 -136 163 l-25 49 -6 -39z"/>
<path d="M8879 1591 c-38 -38 -39 -85 -4 -124 37 -40 94 -38 129 4 35 41 34
83 -3 120 -20 20 -39 29 -61 29 -22 0 -41 -9 -61 -29z"/>
<path d="M7171 1552 c-63 -31 -147 -111 -197 -186 -43 -66 -84 -177 -84 -234
0 -41 1 -42 28 -36 15 3 51 17 81 30 108 48 230 213 246 333 12 84 14 84 51
13 79 -151 237 -252 395 -252 32 0 59 2 59 5 0 22 -68 133 -111 179 -142 156
-332 216 -468 148z"/>
<path d="M6160 1521 c-130 -42 -273 -165 -328 -281 -16 -36 -33 -77 -36 -92
-8 -34 3 -35 105 -12 149 34 282 164 330 323 l13 44 13 -58 c30 -133 138 -271
255 -324 76 -35 148 -49 148 -29 0 31 -30 120 -56 169 -43 80 -168 203 -240
236 -62 28 -156 40 -204 24z"/>
<path d="M5624 1473 c34 -69 56 -154 56 -223 l1 -55 44 90 c24 50 65 115 92
145 26 30 42 51 35 46 -6 -4 -36 -11 -65 -16 -57 -9 -129 11 -169 47 -18 16
-17 11 6 -34z"/>
<path d="M8467 1435 c54 -65 73 -111 73 -181 l0 -57 38 59 c42 65 74 100 140
156 l44 36 -39 -9 c-83 -19 -239 0 -282 34 -9 7 3 -11 26 -38z"/>
<path d="M6822 1424 c-54 -21 -69 -23 -109 -14 -25 6 -55 15 -65 21 -11 6 -18
7 -15 2 3 -4 25 -38 50 -75 24 -37 52 -94 61 -125 10 -32 20 -65 23 -73 3 -8
12 18 20 59 13 71 59 177 91 214 18 21 21 21 -56 -9z"/>
<path d="M4539 1389 c-42 -16 -63 -84 -39 -130 6 -10 24 -26 40 -34 26 -14 34
-14 65 -1 74 31 79 133 9 162 -38 16 -39 16 -75 3z"/>
<path d="M8262 1348 c-38 -54 -74 -88 -135 -126 l-49 -31 96 0 c67 0 113 -6
153 -20 32 -11 60 -18 62 -15 2 2 -5 14 -16 27 -38 41 -63 100 -63 149 0 26
-4 49 -9 53 -6 3 -23 -14 -39 -37z"/>
<path d="M8796 1309 c-121 -111 -189 -263 -188 -422 l0 -88 -18 28 c-43 67
-121 133 -212 179 -92 47 -275 78 -330 56 -17 -7 -17 -10 2 -47 48 -96 144
-178 265 -225 50 -20 79 -24 170 -24 100 -1 114 2 161 26 69 36 168 138 204
208 16 32 37 95 46 142 16 74 16 94 5 156 -8 45 -18 72 -25 72 -7 0 -43 -27
-80 -61z"/>
<path d="M9027 1325 c13 -62 8 -205 -9 -252 l-15 -42 59 52 c62 55 100 73 180
83 l51 7 -44 17 c-74 28 -137 69 -185 123 l-46 51 9 -39z"/>
<path d="M5020 1272 c-45 -21 -74 -27 -153 -30 l-98 -4 61 -40 c58 -38 149
-131 161 -166 3 -9 6 15 7 54 0 75 17 127 58 181 14 18 24 33 22 32 -2 0 -28
-12 -58 -27z"/>
<path d="M5223 1190 c1 -64 -3 -83 -27 -130 -15 -30 -35 -63 -44 -74 -15 -16
-14 -16 18 2 54 32 149 60 210 63 84 4 87 9 23 40 -58 28 -144 105 -169 151
-11 20 -12 14 -11 -52z"/>
<path d="M7828 1200 c-27 -27 -30 -36 -25 -72 12 -91 120 -109 163 -27 20 39
11 82 -23 109 -38 29 -79 26 -115 -10z"/>
<path d="M7413 1134 c29 -53 32 -67 32 -140 l0 -82 56 53 c32 29 87 69 123 89
36 20 66 38 66 40 0 1 -28 4 -61 5 -82 3 -185 38 -231 79 -10 8 -4 -9 15 -44z"/>
<path d="M4644 1145 c-4 -8 -5 -60 -2 -115 3 -93 6 -104 47 -184 32 -64 60
-101 106 -145 88 -82 153 -111 249 -111 148 0 258 42 358 138 59 56 135 183
122 204 -9 13 -107 3 -182 -18 -151 -44 -275 -140 -357 -278 -7 -13 -10 -2
-11 43 -4 168 -131 374 -283 459 -36 20 -42 21 -47 7z"/>
<path d="M7190 1104 c-45 -46 -166 -113 -205 -115 -11 0 23 -11 75 -23 52 -12
123 -36 157 -54 l62 -32 -26 56 c-23 50 -25 65 -20 135 3 44 4 79 4 79 -1 -1
-22 -21 -47 -46z"/>
<path d="M4488 1103 c-38 -64 -124 -139 -190 -168 l-33 -14 30 -1 c75 -1 151
-26 208 -68 31 -24 57 -41 57 -39 0 3 -10 26 -22 53 -18 38 -24 74 -28 157 -5
107 -5 108 -22 80z"/>
<path d="M5613 1100 c-36 -22 -51 -69 -34 -112 21 -55 104 -67 146 -22 42 45
30 110 -25 139 -38 19 -48 19 -87 -5z"/>
<path d="M6125 1098 c-32 -31 -140 -78 -207 -90 -35 -6 -56 -13 -48 -15 79
-23 170 -74 234 -132 29 -27 36 -30 27 -13 -23 45 -25 143 -3 207 11 33 20 60
19 61 -1 1 -11 -7 -22 -18z"/>
<path d="M6304 1095 c4 -11 13 -43 19 -72 12 -55 1 -123 -30 -188 -14 -29 -14
-30 4 -10 48 51 134 98 229 121 l68 18 -57 12 c-72 17 -147 55 -199 102 -30
26 -39 31 -34 17z"/>
<path d="M6719 1031 c-20 -20 -29 -39 -29 -61 0 -43 47 -90 90 -90 43 0 90 47
90 90 0 22 -9 41 -29 61 -40 39 -82 39 -122 0z"/>
<path d="M7729 970 c-150 -77 -279 -258 -304 -423 l-7 -48 -23 48 c-76 158
-268 295 -434 310 l-61 6 16 -54 c21 -69 28 -82 82 -152 85 -108 218 -176 359
-185 79 -4 86 -3 158 32 146 69 256 208 285 361 13 66 10 127 -5 131 -5 2 -35
-10 -66 -26z"/>
<path d="M7930 897 c0 -73 -21 -154 -57 -215 l-25 -43 43 27 c72 45 107 55
191 55 l81 0 -47 29 c-63 40 -126 107 -155 164 -13 25 -26 46 -28 46 -1 0 -3
-28 -3 -63z"/>
<path d="M5763 834 c14 -152 123 -300 280 -382 68 -34 78 -37 162 -37 77 0
100 5 155 29 161 70 275 208 304 369 7 35 6 37 -19 37 -36 0 -148 -46 -210
-85 -99 -64 -193 -183 -226 -285 -10 -30 -18 -47 -18 -38 -1 28 -40 134 -69
186 -42 77 -158 184 -243 225 -41 20 -85 39 -98 43 l-24 6 6 -68z"/>
<path d="M5602 780 c-31 -64 -114 -162 -157 -186 -15 -9 -7 -9 35 -2 72 13
132 5 203 -26 l57 -26 -25 40 c-39 61 -66 139 -73 206 l-7 61 -33 -67z"/>
<path d="M6787 770 c-2 -8 -12 -42 -22 -75 -19 -68 -66 -149 -104 -182 l-25
-22 64 20 c51 16 81 20 140 15 41 -3 85 -8 97 -12 16 -4 11 5 -23 40 -45 48
-88 123 -110 191 -7 23 -14 34 -17 25z"/>
</g>
</svg>
