<svg xmlns="http://www.w3.org/2000/svg" version="1.1" width="1649px" height="624px" style="shape-rendering:geometricPrecision; text-rendering:geometricPrecision; image-rendering:optimizeQuality; fill-rule:evenodd; clip-rule:evenodd" xmlns:xlink="http://www.w3.org/1999/xlink">
<g><path style="opacity:0.986" fill="#000000" d="M 845.5,-0.5 C 851.167,-0.5 856.833,-0.5 862.5,-0.5C 877.581,2.39786 888.081,11.0645 894,25.5C 924.54,114.289 955.374,202.955 986.5,291.5C 1017.63,202.955 1048.46,114.289 1079,25.5C 1084.92,11.0645 1095.42,2.39786 1110.5,-0.5C 1116.17,-0.5 1121.83,-0.5 1127.5,-0.5C 1157.84,7.34767 1170.01,26.681 1164,57.5C 1118.2,190.575 1072.2,323.575 1026,456.5C 1012.14,484.453 991.304,491.62 963.5,478C 956.183,472.184 950.683,465.018 947,456.5C 900.803,324.242 854.803,191.908 809,59.5C 802.057,27.7004 814.224,7.70044 845.5,-0.5 Z"/></g>
<g><path style="opacity:0.987" fill="#000000" d="M -0.5,263.5 C -0.5,247.5 -0.5,231.5 -0.5,215.5C 9.28204,132.415 50.282,69.9154 122.5,28C 182.783,-2.01178 245.449,-8.01178 310.5,10C 369.493,29.7386 414.993,66.2386 447,119.5C 474.408,170.676 483.408,225.009 474,282.5C 457.78,362.377 413.28,420.544 340.5,457C 274.915,484.509 208.915,485.509 142.5,460C 69.2678,426.099 23.1011,369.933 4,291.5C 2.43558,282.031 0.935578,272.698 -0.5,263.5 Z M 220.5,91.5 C 286.703,86.8458 336.536,112.846 370,169.5C 390.355,212.577 391.688,256.243 374,300.5C 346.102,356.465 300.769,385.465 238,387.5C 170.391,384.532 123.724,351.866 98,289.5C 89.6096,260.851 88.2762,231.851 94,202.5C 107.154,153.344 137.321,119.177 184.5,100C 196.349,95.9349 208.349,93.1015 220.5,91.5 Z"/></g>
<g><path style="opacity:0.988" fill="#000000" d="M 866.5,623.5 C 857.167,623.5 847.833,623.5 838.5,623.5C 777.368,615.167 736.535,581.833 716,523.5C 713.472,514.999 711.805,506.332 711,497.5C 709.79,377.838 709.123,258.171 709,138.5C 701.641,104.903 680.807,89.4026 646.5,92C 625.721,96.7772 611.888,109.277 605,129.5C 603.678,230.465 603.011,331.465 603,432.5C 602.255,455.574 590.755,470.074 568.5,476C 548.399,480.3 531.899,474.467 519,458.5C 517.059,454.952 515.393,451.286 514,447.5C 512.841,346.64 512.008,245.807 511.5,145C 513.527,82.6708 542.527,38.0042 598.5,11C 667.672,-12.9181 726.172,2.58194 774,57.5C 789.556,77.8255 798.222,100.826 800,126.5C 800.021,247.517 800.688,368.517 802,489.5C 810.87,520.048 831.37,534.548 863.5,533C 888.688,537.691 902.021,552.857 903.5,578.5C 902.411,602.909 890.077,617.909 866.5,623.5 Z"/></g>
<g><path style="opacity:0.987" fill="#000000" d="M 1648.5,225.5 C 1648.5,234.833 1648.5,244.167 1648.5,253.5C 1641.94,338.144 1602.61,402.644 1530.5,447C 1479.16,475.289 1424.5,484.622 1366.5,475C 1284.99,458.823 1226.16,413.323 1190,338.5C 1170.48,291.45 1165.14,242.783 1174,192.5C 1190.8,113.718 1235.3,56.551 1307.5,21C 1357.13,-0.0302357 1408.47,-5.36357 1461.5,5C 1534.58,22.4266 1588.75,64.26 1624,130.5C 1638.59,160.63 1646.75,192.297 1648.5,225.5 Z M 1391.5,91.5 C 1457.7,86.8458 1507.54,112.846 1541,169.5C 1561.35,212.577 1562.69,256.243 1545,300.5C 1517.1,356.465 1471.77,385.465 1409,387.5C 1341.39,384.532 1294.72,351.866 1269,289.5C 1260.61,260.851 1259.28,231.851 1265,202.5C 1278.15,153.344 1308.32,119.177 1355.5,100C 1367.35,95.9349 1379.35,93.1015 1391.5,91.5 Z"/></g>
</svg>
