<?xml version="1.0" standalone="no"?>
<!DOCTYPE svg PUBLIC "-//W3C//DTD SVG 20010904//EN"
 "http://www.w3.org/TR/2001/REC-SVG-20010904/DTD/svg10.dtd">
<svg version="1.0" xmlns="http://www.w3.org/2000/svg"
 width="1000.000000pt" height="1000.000000pt" viewBox="0 0 1000.000000 1000.000000"
 preserveAspectRatio="xMidYMid meet">

<g transform="translate(0.000000,1000.000000) scale(0.100000,-0.100000)"
fill="#000000" stroke="none">
<path d="M4414 6458 c-485 -487 -559 -565 -617 -653 -74 -113 -127 -218 -127
-254 0 -28 -13 -14 764 -791 289 -288 535 -528 546 -532 13 -5 34 -2 53 6 18
8 304 287 665 648 585 586 632 636 632 667 0 45 -85 205 -168 317 -43 58 -247
271 -591 617 -521 522 -526 527 -566 527 -40 0 -46 -5 -591 -552z m973 -420
c358 -358 383 -385 383 -418 0 -33 -24 -59 -367 -402 -345 -345 -370 -368
-403 -368 -33 0 -58 23 -403 368 -340 341 -367 370 -367 402 0 32 28 62 382
417 211 211 385 383 388 383 3 0 177 -172 387 -382z"/>
<path d="M3593 4864 c-24 -24 -25 -30 -19 -94 17 -190 129 -454 274 -650 81
-109 1087 -1117 1128 -1130 26 -9 39 -8 61 4 15 8 264 252 553 543 364 366
543 553 583 610 115 162 204 362 242 544 24 113 22 149 -9 176 -31 27 -56 29
-94 9 -15 -8 -308 -296 -652 -640 -589 -590 -627 -626 -660 -626 -33 0 -71 36
-660 626 -344 344 -637 632 -652 640 -39 21 -66 17 -95 -12z"/>
</g>
</svg>
