<?xml version="1.0" standalone="no"?>
<!DOCTYPE svg PUBLIC "-//W3C//DTD SVG 20010904//EN"
 "http://www.w3.org/TR/2001/REC-SVG-20010904/DTD/svg10.dtd">
<svg version="1.0" xmlns="http://www.w3.org/2000/svg"
 width="1200.000000pt" height="900.000000pt" viewBox="0 0 1200.000000 900.000000"
 preserveAspectRatio="xMidYMid meet">

<g transform="translate(0.000000,900.000000) scale(0.100000,-0.100000)"
fill="#000000" stroke="none">
<path d="M4112 5375 c-58 -26 -101 -66 -129 -123 l-28 -57 0 -575 0 -575 24
-45 c54 -104 121 -141 264 -148 l97 -5 -3 -193 c-2 -136 -6 -197 -15 -206 -6
-6 -12 -31 -12 -54 0 -39 -2 -42 -33 -48 -57 -11 -122 -59 -146 -108 -22 -46
-28 -112 -11 -123 6 -4 10 -87 10 -216 0 -133 -4 -209 -10 -209 -15 0 -12 -58
4 -67 7 -4 20 -21 29 -38 72 -140 287 -149 374 -15 12 19 29 42 38 51 17 17
21 69 5 69 -15 0 -13 417 1 426 20 12 4 100 -26 143 -27 40 -110 91 -147 91
-15 0 -18 8 -18 43 0 24 -6 49 -12 55 -9 9 -13 70 -15 206 l-3 194 87 4 c101
5 160 27 212 79 68 68 71 81 71 402 l0 287 -32 0 c-75 0 -182 -87 -206 -168
-7 -23 -12 -104 -12 -191 l0 -151 -130 0 -130 0 0 515 0 515 1541 0 1542 0 -7
41 c-13 81 -65 150 -141 185 l-50 24 -1475 0 c-1250 -1 -1480 -3 -1508 -15z
m258 -1990 c0 -20 -5 -25 -25 -25 -20 0 -25 5 -25 25 0 20 5 25 25 25 20 0 25
-5 25 -25z m198 -237 c3 -17 -13 -18 -222 -18 -182 0 -226 3 -226 13 0 8 3 17
7 21 4 3 104 5 222 4 196 -3 216 -5 219 -20z m-177 -111 c32 -25 39 -56 39
-181 l0 -126 -85 0 -85 0 0 126 c0 156 16 193 85 193 17 0 37 -5 46 -12z
m-201 -178 l0 -129 -25 0 -25 0 0 158 1 157 24 -28 c24 -27 25 -34 25 -158z
m360 26 c0 -148 -1 -155 -20 -155 -19 0 -20 7 -20 137 0 113 3 140 17 155 9
10 18 18 20 18 1 0 3 -70 3 -155z m20 -215 c0 -6 -82 -10 -225 -10 -143 0
-225 4 -225 10 0 6 82 10 225 10 143 0 225 -4 225 -10z m-118 -37 c-62 -2
-161 -2 -220 0 -59 1 -8 3 113 3 121 0 169 -2 107 -3z"/>
<path d="M4400 4988 c-63 -43 -79 -117 -37 -179 26 -39 89 -66 129 -56 40 10
86 54 97 93 31 111 -95 206 -189 142z"/>
<path d="M5940 4988 c-63 -43 -79 -117 -37 -179 26 -39 89 -66 129 -56 42 11
87 55 98 97 29 108 -98 201 -190 138z"/>
<path d="M5155 4867 c-84 -33 -141 -92 -165 -173 -8 -27 -10 -135 -8 -349 3
-297 4 -312 25 -351 12 -22 39 -56 59 -74 64 -56 93 -63 266 -68 l157 -4 3
-60 3 -61 82 1 c60 1 91 6 113 18 27 17 60 67 60 93 0 7 241 11 803 13 l802 3
49 25 c27 14 64 43 83 64 57 68 63 107 63 408 l0 268 -290 0 c-331 0 -346 -3
-418 -86 -53 -60 -62 -98 -62 -273 l0 -151 -130 0 -130 0 0 255 0 255 -417 0
c-466 0 -461 0 -532 -71 -64 -63 -75 -105 -79 -281 l-4 -158 -124 0 -124 0 0
385 0 385 -27 -1 c-16 0 -42 -6 -58 -12z m1030 -511 c69 -29 99 -133 54 -190
-39 -50 -65 -56 -229 -56 -164 0 -206 9 -235 53 -44 68 -22 156 49 188 54 24
306 27 361 5z m1031 -5 c69 -31 94 -114 54 -179 -55 -90 -184 -75 -227 26 -25
59 11 134 77 161 36 14 50 13 96 -8z"/>
<path d="M7800 4240 l0 -640 -1540 0 -1541 0 7 -37 c15 -86 65 -157 138 -196
l41 -22 1485 0 c1449 0 1486 0 1524 19 50 25 97 72 122 122 18 37 19 68 22
608 3 647 4 632 -74 710 -43 43 -112 76 -161 76 l-23 0 0 -640z"/>
</g>
</svg>
