<?xml version="1.0" standalone="no"?>
<!DOCTYPE svg PUBLIC "-//W3C//DTD SVG 20010904//EN"
 "http://www.w3.org/TR/2001/REC-SVG-20010904/DTD/svg10.dtd">
<svg version="1.0" xmlns="http://www.w3.org/2000/svg"
 width="1282.000000pt" height="1282.000000pt" viewBox="0 0 1282.000000 1282.000000"
 preserveAspectRatio="xMidYMid meet">

<g transform="translate(0.000000,1282.000000) scale(0.100000,-0.100000)"
fill="#ffffff" stroke="none">
<path d="M5332 12813 c586 -2 1549 -2 2140 0 590 1 110 2 -1067 2 -1177 0
-1660 -1 -1073 -2z"/>
<path d="M12812 6413 l-2 -6403 -6402 -3 -6403 -2 6403 -3 c5115 -1 6404 1
6407 11 3 6 4 2890 3 6407 l-3 6395 -3 -6402z"/>
<path d="M5 6415 c0 -1177 1 -1657 2 -1067 2 591 2 1554 0 2140 -1 587 -2 104
-2 -1073z"/>
<path d="M4495 7285 c-145 -32 -258 -95 -365 -204 -152 -154 -221 -344 -207
-569 12 -190 77 -332 218 -473 70 -70 104 -95 177 -132 126 -63 212 -80 370
-75 105 4 141 10 211 33 205 70 390 254 458 459 25 74 27 94 28 241 0 154 -1
163 -31 246 -63 177 -203 334 -368 414 -51 25 -125 51 -168 59 -92 19 -240 19
-323 1z m280 -279 c156 -41 276 -158 320 -310 13 -45 16 -84 13 -160 -4 -87
-9 -110 -36 -167 -80 -168 -227 -259 -418 -259 -136 0 -236 42 -331 141 -130
134 -161 357 -72 531 30 58 119 150 178 181 98 54 240 72 346 43z"/>
<path d="M5807 7280 c-121 -38 -231 -141 -280 -260 -22 -54 -22 -63 -25 -567
-3 -557 -3 -562 52 -598 63 -41 164 -25 203 33 17 25 18 66 23 529 5 487 6
502 26 529 39 53 70 69 137 69 75 0 120 -27 148 -89 17 -38 19 -76 19 -592 0
-330 4 -573 10 -605 24 -129 122 -253 247 -312 62 -29 77 -32 166 -32 l98 0
35 37 c20 23 34 49 35 65 5 113 -36 161 -143 171 -64 5 -107 28 -142 75 -21
28 -21 39 -26 635 l-5 607 -32 68 c-56 118 -179 218 -304 246 -68 16 -178 12
-242 -9z"/>
<path d="M6486 7281 c-39 -26 -66 -70 -66 -108 0 -29 413 -1242 439 -1292 23
-42 71 -71 118 -71 40 0 51 5 82 38 33 35 56 97 255 675 241 702 235 675 171
737 -30 29 -43 34 -93 38 -54 4 -62 2 -91 -24 -35 -32 -40 -46 -226 -586 -55
-158 -100 -286 -102 -285 -1 2 -68 192 -147 422 -165 479 -164 475 -259 475
-34 0 -62 -7 -81 -19z"/>
<path d="M8115 7285 c-165 -36 -313 -130 -420 -266 -97 -125 -141 -245 -152
-414 -19 -308 146 -583 429 -715 182 -85 449 -80 636 11 135 66 269 202 336
342 55 114 69 189 63 352 -4 120 -8 151 -32 219 -80 228 -304 425 -537 471
-93 18 -241 18 -323 0z m360 -308 c184 -88 280 -270 254 -481 -19 -147 -115
-279 -254 -347 -68 -33 -73 -34 -195 -34 -120 0 -128 1 -193 32 -187 89 -290
281 -260 487 14 98 51 175 118 245 99 104 200 143 357 138 86 -4 104 -8 173
-40z"/>
</g>
</svg>
