<?xml version="1.0" standalone="no"?>
<!DOCTYPE svg PUBLIC "-//W3C//DTD SVG 20010904//EN"
 "http://www.w3.org/TR/2001/REC-SVG-20010904/DTD/svg10.dtd">
<svg version="1.0" xmlns="http://www.w3.org/2000/svg"
 width="563.000000pt" height="642.000000pt" viewBox="0 0 563.000000 642.000000"
 preserveAspectRatio="xMidYMid meet">

<g transform="translate(0.000000,642.000000) scale(0.100000,-0.100000)"
fill="#000000" stroke="none">
<path d="M2837 5593 c-11 -11 -8 -48 5 -61 13 -13 58 -17 58 -5 0 3 -8 15 -17
25 -15 17 -15 21 -3 29 8 5 35 7 60 4 32 -3 39 -2 25 4 -23 11 -119 14 -128 4z"/>
<path d="M2544 5570 c-43 -19 -54 -35 -54 -76 l0 -24 41 20 c23 12 42 20 44
18 2 -2 -12 -21 -31 -42 -19 -21 -33 -41 -30 -43 5 -5 82 42 91 56 3 6 9 33
12 61 5 45 4 50 -13 49 -10 0 -37 -9 -60 -19z"/>
<path d="M2701 5555 c-41 -47 -50 -84 -26 -102 25 -17 31 -17 55 7 28 28 25
40 -10 34 -38 -8 -39 8 -5 59 32 47 26 48 -14 2z"/>
<path d="M3071 5555 c-13 -22 -26 -61 -29 -86 -4 -42 -2 -48 18 -54 36 -12 70
3 84 37 16 38 11 63 -19 86 -13 10 -24 27 -27 37 -3 16 -8 12 -27 -20z m41
-63 c23 -19 14 -32 -23 -32 -29 0 -35 12 -23 44 6 16 16 14 46 -12z"/>
<path d="M2276 5564 c-11 -30 -6 -92 14 -156 11 -34 20 -65 20 -67 0 -2 -23
20 -51 48 -73 73 -159 94 -159 39 0 -40 15 -51 70 -53 48 -2 54 -5 111 -61 53
-52 59 -56 59 -34 0 13 -12 65 -27 116 -31 110 -28 129 23 119 34 -6 35 -5 29
17 -13 44 -76 67 -89 32z"/>
<path d="M3308 5541 l-33 -29 40 -7 c67 -11 73 -18 25 -28 -74 -15 -78 -21
-16 -25 57 -3 61 -2 98 34 21 21 38 41 38 46 0 4 -19 12 -42 18 -24 6 -51 13
-60 16 -10 3 -31 -8 -50 -25z"/>
<path d="M2786 5543 c-6 -16 9 -317 19 -375 4 -23 0 -29 -23 -35 -86 -23 -139
1 -127 57 7 32 10 34 56 44 24 5 54 47 42 59 -3 3 -15 2 -27 -2 -51 -19 -60
12 -18 61 55 66 60 75 22 47 -19 -14 -48 -47 -64 -73 -25 -39 -27 -50 -18 -71
9 -19 8 -32 -3 -59 -21 -49 -19 -82 6 -107 18 -18 29 -20 68 -16 25 3 56 9 68
12 20 7 21 3 28 -80 4 -47 5 -104 2 -126 -3 -21 -2 -39 3 -39 15 0 30 90 30
184 0 57 4 96 10 96 5 0 28 16 49 36 l40 35 3 -52 c2 -43 8 -55 29 -72 27 -19
27 -19 130 3 75 16 120 20 164 16 33 -4 65 -3 72 1 32 22 14 35 -100 73 -66
21 -121 41 -124 43 -6 6 108 77 124 77 7 0 13 -10 13 -23 0 -13 5 -28 12 -35
19 -19 73 -14 101 8 l26 21 7 -26 c6 -24 30 -45 53 -45 5 0 23 12 40 26 24 20
31 22 31 10 0 -24 37 -56 65 -56 15 0 41 14 62 34 l37 34 31 -23 c48 -37 77
-36 93 0 17 37 15 91 -4 109 -8 9 -18 16 -20 16 -17 0 -64 -34 -94 -67 -44
-49 -101 -65 -132 -37 -11 10 -17 26 -15 36 6 23 -2 23 -27 -1 -32 -29 -61
-34 -81 -15 -9 9 -14 25 -12 35 6 24 -2 24 -33 -1 -28 -22 -98 -27 -104 -7 -3
6 -7 24 -10 39 -7 33 -21 30 -84 -18 -27 -21 -67 -38 -109 -48 -36 -8 -75 -23
-85 -34 -19 -19 -19 -20 61 -48 45 -16 81 -32 81 -35 0 -4 -26 -12 -57 -17
-42 -7 -65 -7 -83 1 -25 12 -25 14 -31 177 -6 162 -13 210 -30 210 -16 0 -21
-47 -10 -106 12 -64 14 -127 5 -161 -6 -20 -72 -73 -93 -73 -5 0 -12 48 -16
108 -3 59 -9 121 -12 137 -4 24 -3 28 8 18 27 -26 27 -11 1 62 -28 77 -35 87
-46 58z m992 -275 c7 -7 12 -18 12 -25 0 -10 -6 -10 -25 3 -14 9 -22 20 -19
25 7 12 18 11 32 -3z"/>
<path d="M3481 5442 c-48 -19 -68 -41 -58 -66 4 -10 18 -16 41 -16 37 0 56 14
31 24 -19 7 -19 17 -1 42 11 14 31 21 78 25 l63 6 -55 1 c-30 0 -75 -7 -99
-16z"/>
<path d="M1889 5413 c-55 -60 -182 -301 -195 -371 l-6 -32 -60 55 c-32 30 -68
59 -78 65 -45 24 -15 -17 98 -133 111 -115 222 -249 222 -269 0 -19 -30 -66
-45 -72 -28 -10 -33 -8 -89 43 -92 84 -122 91 -91 21 21 -47 10 -70 -36 -70
-24 0 -27 -3 -21 -20 4 -11 29 -33 55 -50 26 -16 50 -37 54 -46 8 -22 -32
-159 -63 -212 -22 -38 -68 -71 -81 -58 -2 2 3 26 12 53 19 54 31 202 21 257
-9 45 -81 125 -200 220 -58 47 -82 72 -74 77 15 9 -49 39 -83 39 -20 0 -20 0
-2 -24 10 -14 72 -68 138 -121 65 -52 137 -112 158 -132 l39 -36 -6 -66 c-10
-96 -48 -231 -66 -231 -4 0 -15 17 -24 39 -13 28 -15 44 -8 57 14 28 25 101
15 107 -4 3 -32 -4 -61 -15 -53 -20 -72 -43 -72 -89 0 -19 1 -19 41 1 23 12
43 20 45 17 2 -2 -13 -23 -33 -46 l-36 -43 40 20 40 21 21 -44 c16 -34 18 -46
9 -57 -55 -67 -154 -62 -206 11 -26 36 -26 41 -2 41 32 0 51 36 39 71 -17 49
-72 64 -116 33 -22 -15 -25 -15 -46 5 -26 25 -96 41 -96 22 0 -6 14 -14 30
-17 20 -4 30 -13 30 -24 0 -26 -25 -43 -51 -35 l-22 7 22 -31 c12 -17 26 -33
31 -36 16 -10 11 -72 -6 -90 -11 -10 -25 -14 -40 -11 -30 8 -30 5 2 -50 31
-52 36 -117 11 -141 -11 -12 -43 -17 -117 -21 -55 -3 -103 -9 -106 -13 -11
-18 51 -31 114 -25 37 4 70 2 82 -4 44 -24 7 -99 -42 -85 -21 7 -20 4 10 -27
44 -46 44 -95 1 -141 -17 -17 -35 -43 -40 -56 -17 -43 14 -118 90 -218 109
-143 122 -185 63 -200 -32 -8 -148 49 -157 78 -7 22 -75 80 -86 73 -4 -2 -13
-29 -20 -59 -12 -54 -12 -56 15 -84 l28 -29 -32 -7 c-47 -10 -110 -71 -110
-105 0 -50 66 -83 123 -61 27 10 28 13 26 75 -2 85 3 91 54 59 84 -52 169
-134 155 -149 -5 -5 -385 -84 -405 -84 -13 0 -13 3 -3 15 18 22 7 19 -71 -20
-68 -35 -81 -55 -35 -55 12 0 132 22 267 50 134 27 252 50 262 50 12 0 17 -8
17 -26 0 -60 -35 -86 -130 -95 l-65 -6 73 -1 c114 -3 183 39 185 112 1 33 4
36 31 37 17 1 42 4 56 8 24 7 24 7 -9 14 -18 4 -48 7 -65 8 -23 1 -40 11 -69
44 l-38 44 38 -11 c41 -11 121 -5 153 12 48 26 -2 86 -52 62 -19 -9 -20 -11
-5 -11 27 -1 17 -32 -14 -50 -23 -13 -35 -13 -85 -1 -33 7 -72 23 -89 35 -16
12 -45 30 -62 39 -28 14 -33 22 -33 51 l0 35 38 -24 c86 -54 153 -55 187 -3
23 35 12 62 -56 147 -60 75 -117 170 -101 170 4 0 12 -4 18 -10 5 -5 38 -16
72 -25 58 -15 65 -15 88 -1 13 9 24 25 24 36 0 28 -35 60 -65 60 -28 0 -32
-12 -10 -30 8 -7 15 -21 15 -31 0 -24 -38 -25 -103 -3 -70 24 -72 57 -10 127
39 44 45 93 13 122 -26 23 -25 29 5 43 13 6 28 24 31 39 6 22 2 31 -25 54
l-32 26 30 6 c57 12 71 91 27 157 -14 22 -26 41 -26 42 0 2 12 4 27 5 50 2 70
68 37 119 -16 24 -16 26 5 45 21 20 21 20 50 -2 17 -12 35 -35 42 -51 15 -37
91 -104 134 -118 24 -8 37 -20 45 -43 6 -18 22 -49 35 -69 20 -30 32 -38 55
-38 42 0 61 39 39 78 -18 32 -32 32 -39 0 -9 -36 -37 -34 -60 4 -26 42 -25 55
3 64 12 3 36 16 52 28 23 16 42 20 81 18 46 -3 53 -1 77 27 33 39 67 131 74
199 5 46 2 58 -25 102 -17 27 -27 52 -21 55 12 8 12 61 -1 86 -16 30 1 22 47
-20 85 -79 108 -86 148 -46 18 17 25 35 25 61 l0 37 23 -21 c29 -28 67 -28
101 -1 l27 21 24 -26 c34 -37 73 -34 112 7 45 45 86 141 91 209 l4 56 38 -39
c25 -27 45 -39 64 -39 38 0 92 56 101 103 8 40 16 45 35 22 29 -35 80 -2 80
52 0 31 -36 93 -57 101 -22 7 -14 -28 12 -52 24 -22 24 -25 10 -40 -23 -22
-51 -20 -69 6 l-15 21 -11 -27 c-5 -15 -10 -33 -10 -39 0 -26 -39 -74 -70 -87
l-32 -13 -112 115 c-63 66 -129 125 -153 137 -24 12 -43 19 -43 17 0 -24 34
-64 92 -107 38 -28 80 -68 94 -88 23 -36 24 -38 9 -94 -24 -92 -64 -158 -116
-191 -22 -14 -28 -14 -44 -2 -18 13 -18 15 -2 49 41 87 27 176 -31 198 -26 10
-116 7 -221 -8 -38 -5 -43 -3 -38 10 5 14 0 16 -38 10 l-45 -6 26 64 c35 86
99 212 142 279 58 92 72 92 72 3 0 -38 5 -75 10 -83 7 -10 10 10 10 65 0 122
-31 163 -81 108z m184 -511 c-2 -63 -43 -127 -43 -69 0 12 -5 29 -10 37 -8 13
-12 11 -26 -9 -16 -23 -18 -23 -31 -6 -7 11 -13 31 -13 46 0 25 4 28 43 32 78
7 82 5 80 -31z m-133 -18 c0 -27 7 -50 19 -65 17 -21 22 -22 41 -11 17 11 21
10 27 -4 8 -21 -47 -74 -76 -74 -18 0 -92 73 -157 155 l-32 40 89 0 89 0 0
-41z m-684 -508 c-7 -27 -21 -32 -46 -16 -12 7 -11 13 10 35 28 29 46 20 36
-19z m-331 -1117 c4 -22 5 -42 2 -45 -10 -10 -38 9 -33 23 3 8 6 26 6 39 0 39
18 27 25 -17z m-95 -164 c0 -34 -12 -46 -25 -24 -9 14 3 59 15 59 6 0 10 -16
10 -35z"/>
<path d="M2425 5400 c-10 -22 -16 -42 -13 -45 3 -3 13 13 23 35 10 22 16 42
13 45 -3 3 -13 -13 -23 -35z"/>
<path d="M2023 5404 c-9 -24 6 -107 22 -124 26 -25 75 19 61 55 -6 16 -8 17
-24 1 -37 -32 -47 -18 -42 57 2 30 -7 36 -17 11z"/>
<path d="M3738 5403 c12 -2 32 -2 45 0 12 2 2 4 -23 4 -25 0 -35 -2 -22 -4z"/>
<path d="M3641 5382 c-19 -9 -39 -24 -45 -34 -21 -34 36 -63 74 -38 13 9 13
12 -3 21 -14 8 -15 14 -6 30 5 11 20 24 32 29 21 8 21 9 2 9 -11 1 -35 -7 -54
-17z"/>
<path d="M2557 5335 c-16 -20 -31 -51 -34 -69 -4 -28 -2 -35 15 -41 27 -8 58
9 65 35 4 17 2 20 -11 15 -30 -12 -36 -10 -40 8 -2 10 8 33 23 52 34 46 18 45
-18 0z"/>
<path d="M2400 5305 c-3 -54 -1 -68 16 -85 19 -19 44 -4 57 34 10 30 1 49 -13
26 -7 -12 -12 -11 -29 4 -11 10 -22 28 -24 40 -2 12 -5 4 -7 -19z"/>
<path d="M1660 5279 c-76 -74 -87 -149 -21 -149 26 0 47 15 66 49 6 11 1 12
-29 7 -28 -5 -38 -3 -42 9 -6 15 4 33 52 93 36 44 25 40 -26 -9z"/>
<path d="M2223 5287 c-32 -34 -55 -86 -48 -107 8 -24 47 -27 69 -4 24 23 19
35 -11 32 -38 -4 -41 21 -7 61 30 36 28 52 -3 18z"/>
<path d="M3920 5265 c-13 -14 -20 -25 -15 -25 5 0 -4 -13 -19 -29 -20 -21 -29
-41 -30 -68 -1 -34 2 -38 26 -41 18 -2 31 4 42 19 18 27 12 43 -13 29 -34 -18
-42 20 -13 58 l18 24 18 -27 c17 -26 18 -26 37 -9 24 22 24 56 1 77 -24 22
-24 22 -52 -8z"/>
<path d="M4028 5240 c-35 -22 -15 -70 29 -70 27 0 29 7 7 32 -15 16 -15 18 0
24 9 3 34 4 56 2 24 -2 36 0 30 6 -14 14 -103 18 -122 6z"/>
<path d="M3970 5175 c-9 -11 -11 -41 -7 -110 3 -61 2 -95 -5 -97 -6 -2 -35 -1
-65 2 -53 6 -83 -5 -83 -30 0 -4 28 -35 62 -68 35 -33 59 -64 55 -68 -3 -4
-55 -8 -114 -8 -126 -1 -192 15 -232 55 -56 56 -45 124 32 207 29 30 43 50 32
44 -32 -17 -92 -84 -115 -129 -27 -54 -29 -117 -3 -152 40 -52 78 -66 202 -70
126 -4 174 6 214 43 34 31 34 56 1 95 -18 21 -21 31 -12 31 8 0 25 12 39 26
21 22 24 35 24 100 0 55 3 73 13 69 15 -6 15 0 0 42 -13 37 -20 40 -38 18z"/>
<path d="M1861 5130 c-1 -64 31 -130 62 -130 32 0 57 30 57 68 0 40 -31 72
-70 72 -17 0 -33 7 -39 18 -8 13 -10 7 -10 -28z m90 -59 c-14 -25 -42 -35 -53
-19 -16 26 -8 38 27 38 32 0 35 -2 26 -19z"/>
<path d="M3465 5126 c-61 -40 -80 -74 -59 -105 21 -29 76 -28 104 1 22 24 25
44 10 84 -7 19 -7 30 1 40 19 23 -3 15 -56 -20z m19 -55 c19 -35 13 -42 -25
-29 -33 11 -33 12 -19 39 15 26 27 24 44 -10z"/>
<path d="M4106 5131 c-16 -17 -16 -24 -4 -57 7 -20 19 -39 25 -41 17 -7 16
-43 -3 -115 -25 -97 -18 -93 122 66 22 25 46 46 52 46 7 0 18 -12 24 -27 16
-38 16 -37 33 -23 32 27 15 90 -25 90 -35 0 -65 -24 -120 -95 -46 -59 -57 -65
-40 -20 17 44 14 142 -4 170 -20 30 -37 32 -60 6z"/>
<path d="M2327 5132 c-3 -4 -7 -19 -11 -33 -5 -23 -2 -28 18 -33 13 -3 31 -9
40 -12 13 -5 16 1 16 29 0 30 -4 37 -30 45 -16 6 -31 8 -33 4z"/>
<path d="M3723 5103 c-31 -6 -29 -13 13 -46 19 -16 34 -31 32 -33 -2 -2 -26 3
-53 11 -53 16 -70 14 -35 -5 22 -12 22 -12 -13 -48 -43 -44 -59 -81 -46 -105
18 -31 79 -15 79 20 0 9 -8 11 -24 7 -34 -8 -41 11 -17 50 32 50 46 60 71 46
25 -14 90 -5 117 16 17 13 16 16 -24 54 -41 39 -52 42 -100 33z"/>
<path d="M1480 5067 c-24 -12 -50 -61 -38 -73 4 -3 18 2 32 11 48 32 61 -7 25
-76 -25 -51 -18 -64 11 -18 33 55 45 110 29 138 -18 31 -28 34 -59 18z"/>
<path d="M3197 5062 c-22 -24 -21 -31 6 -65 l22 -28 24 25 25 26 -20 27 c-26
35 -37 38 -57 15z"/>
<path d="M1310 5027 c0 -46 21 -115 41 -133 43 -38 102 29 78 88 -11 27 -55
48 -83 40 -4 -2 -14 5 -22 15 -12 17 -13 16 -14 -10z m100 -54 c0 -12 -33 -43
-45 -43 -12 0 -25 21 -25 41 0 5 16 9 35 9 19 0 35 -3 35 -7z"/>
<path d="M2118 5034 c-12 -11 -10 -66 3 -103 8 -23 17 -31 35 -31 28 0 51 38
40 67 -7 16 -9 16 -26 -7 -24 -32 -38 -19 -42 38 -2 24 -6 40 -10 36z"/>
<path d="M2630 4999 c0 -19 -4 -21 -35 -16 -34 6 -35 5 -35 -27 0 -26 5 -35
23 -40 37 -10 47 -7 47 15 0 19 4 20 35 15 19 -4 35 -3 35 1 0 4 3 18 6 29 5
17 -1 24 -27 33 -44 15 -49 14 -49 -10z"/>
<path d="M3331 4910 c-88 -62 -108 -70 -116 -45 -3 8 -7 22 -10 30 -6 22 -32
8 -43 -24 -25 -72 44 -83 132 -20 32 23 60 39 62 36 3 -3 -1 -18 -9 -34 -21
-42 -29 -97 -17 -127 8 -23 15 -27 42 -24 26 2 35 9 43 32 8 24 6 31 -13 46
-29 24 -28 43 8 118 17 35 30 66 30 68 0 14 -36 -4 -109 -56z"/>
<path d="M2946 4919 c-36 -28 -33 -38 14 -45 58 -9 58 -22 0 -30 -66 -9 -64
-24 4 -24 48 0 59 4 90 34 20 18 36 38 36 44 0 9 -87 42 -110 42 -4 0 -19 -9
-34 -21z"/>
<path d="M4475 4930 c-12 -4 -83 -71 -159 -149 l-139 -141 -124 66 c-67 36
-123 63 -123 60 0 -6 188 -153 203 -159 13 -5 -60 -77 -78 -77 -5 0 -23 9 -40
21 -16 11 -43 27 -60 36 l-30 16 23 -25 22 -24 -55 -23 c-49 -20 -85 -51 -85
-73 0 -32 77 -51 99 -25 13 16 5 27 -20 27 -40 0 -29 43 16 60 51 19 61 19 85
-2 l25 -20 -45 -40 c-37 -32 -40 -38 -20 -33 14 4 39 16 56 26 l32 19 50 -34
c116 -77 264 -117 323 -85 15 7 29 7 51 0 47 -17 111 15 138 69 11 22 25 38
29 35 11 -6 21 18 21 51 0 22 -2 23 -26 12 -17 -8 -36 -34 -55 -75 -29 -63
-46 -74 -78 -54 -10 6 -11 13 -2 29 15 27 14 75 -1 90 -19 19 -92 15 -111 -6
-23 -25 -21 -41 8 -85 45 -65 17 -73 -95 -27 -68 28 -169 81 -198 103 -10 8
-4 20 28 52 l41 42 81 -24 c67 -19 87 -21 114 -13 35 12 78 56 89 89 4 12 12
18 21 14 11 -4 14 4 14 32 0 36 -1 37 -22 23 -12 -8 -38 -43 -56 -77 -39 -70
-39 -70 -150 -29 l-54 20 94 97 c51 53 96 97 100 99 3 2 8 -5 10 -15 3 -12 17
7 42 56 20 40 36 74 34 76 -2 1 -12 -1 -23 -5z m-7 -468 c5 -30 -12 -28 -27 4
-10 22 -9 25 6 22 10 -2 19 -13 21 -26z"/>
<path d="M2676 4885 c-22 -16 -148 -59 -218 -75 -33 -7 -62 -7 -94 0 -26 6
-49 9 -51 6 -3 -3 15 -15 39 -28 36 -19 58 -23 133 -23 81 0 96 3 151 32 l60
31 10 -21 c10 -23 41 -35 54 -20 4 4 11 28 14 53 6 44 6 44 -10 23 -22 -31
-41 -29 -56 6 -12 27 -15 29 -32 16z"/>
<path d="M1604 4873 c-16 -3 -20 -10 -17 -27 4 -19 -1 -25 -21 -30 -28 -7 -32
-17 -16 -46 15 -28 65 -12 65 21 0 16 7 25 20 27 30 6 38 18 26 41 -12 21 -17
22 -57 14z"/>
<path d="M4560 4844 c0 -3 7 -21 15 -41 21 -51 20 -52 -26 -8 l-40 40 14 -33
c21 -52 41 -69 87 -77 23 -4 44 -5 46 -2 6 6 -12 76 -24 95 -8 12 -72 35 -72
26z"/>
<path d="M4122 4797 c-12 -13 -22 -26 -22 -30 0 -3 21 -7 48 -9 l47 -3 -40
-14 c-60 -20 -65 -31 -16 -31 37 0 49 5 77 36 40 41 43 59 12 68 -47 12 -84 6
-106 -17z"/>
<path d="M1078 4799 c-44 -25 -7 -88 102 -171 l35 -27 -35 7 c-19 4 -63 7 -97
7 -51 0 -66 -4 -85 -23 l-22 -22 25 -26 c26 -25 26 -25 62 -8 21 10 37 24 37
32 0 15 45 12 128 -10 23 -6 46 -8 50 -4 4 4 -12 24 -35 44 -137 121 -144 129
-137 145 3 9 14 17 24 17 28 0 35 19 14 35 -22 17 -43 18 -66 4z"/>
<path d="M1255 4705 c26 -89 87 -139 123 -103 24 24 9 98 -20 98 -4 0 -8 -11
-8 -25 0 -30 -24 -43 -45 -25 -8 7 -24 32 -35 56 -25 57 -33 56 -15 -1z"/>
<path d="M3547 4722 c-15 -16 -14 -20 4 -49 20 -31 22 -32 44 -17 21 14 24 13
43 -13 20 -27 20 -27 41 -9 26 23 26 34 2 66 -19 23 -20 24 -39 7 -19 -17 -20
-17 -36 8 -19 29 -37 32 -59 7z"/>
<path d="M1980 4648 c-38 -41 -49 -87 -25 -104 19 -14 44 -9 63 14 19 25 14
32 -18 26 -39 -8 -40 15 -4 63 32 42 22 43 -16 1z"/>
<path d="M4520 4633 c-35 -55 -38 -78 -11 -93 24 -12 48 -4 61 21 15 27 13 29
-20 23 -39 -8 -40 15 -4 63 14 18 20 33 14 33 -6 0 -24 -21 -40 -47z"/>
<path d="M4665 4651 c-2 -3 -6 -23 -10 -44 -7 -36 -6 -37 22 -37 36 0 53 16
53 51 0 22 -5 27 -30 31 -17 3 -33 2 -35 -1z"/>
<path d="M3793 4627 c-43 -16 -77 -51 -70 -71 7 -18 82 -23 92 -6 3 6 -1 10
-9 10 -21 0 -20 34 1 51 9 8 43 17 77 20 l61 6 -60 1 c-33 0 -75 -5 -92 -11z"/>
<path d="M4738 4549 c-40 -21 -49 -47 -24 -69 8 -6 25 -10 37 -8 25 3 39 28
15 28 -22 0 -30 20 -15 35 8 8 30 18 49 23 l35 10 -30 1 c-16 0 -47 -9 -67
-20z"/>
<path d="M1861 4529 c-52 -10 -66 -21 -80 -61 -10 -28 -9 -30 12 -25 12 3 36
9 52 12 l30 6 -23 -20 c-13 -11 -36 -30 -50 -41 -27 -21 -27 -21 -3 -14 66 18
91 35 106 72 20 46 23 74 10 77 -5 2 -30 -1 -54 -6z"/>
<path d="M4277 4490 c7 -38 -5 -39 -66 -3 -41 23 -44 24 -27 5 10 -12 38 -31
62 -42 34 -17 47 -19 63 -10 25 13 26 28 5 58 -23 33 -45 29 -37 -8z"/>
<path d="M864 4502 c-32 -21 -44 -85 -21 -116 12 -16 15 -14 37 21 14 21 33
39 44 41 17 4 18 -1 11 -53 -4 -32 -13 -75 -20 -96 -22 -62 -7 -45 31 35 39
83 39 98 -6 145 -27 30 -54 38 -76 23z"/>
<path d="M4778 4399 c-21 -12 -25 -85 -6 -91 14 -5 -38 -92 -72 -123 -11 -10
-20 -22 -20 -27 0 -16 35 -7 122 33 102 47 122 47 126 1 2 -18 9 -32 16 -32
21 0 46 34 46 62 0 50 -59 51 -159 3 -40 -19 -75 -35 -78 -35 -3 0 9 16 26 35
51 59 65 96 62 163 -1 24 -32 30 -63 11z"/>
<path d="M4036 4315 c3 -27 8 -54 11 -58 10 -16 96 -66 104 -61 5 3 9 32 9 64
0 53 -3 61 -29 79 -40 29 -48 26 -43 -13 7 -59 -4 -63 -32 -11 l-27 50 7 -50z"/>
<path d="M4527 4274 c-81 -25 -147 -111 -147 -193 0 -18 -6 -21 -45 -21 -25 0
-45 3 -45 6 0 3 10 15 23 26 l22 19 -44 -5 c-43 -4 -82 -29 -68 -43 4 -4 34
-9 66 -11 l58 -4 -33 -50 c-39 -57 -42 -78 -15 -78 36 0 51 12 51 40 0 15 8
34 18 43 23 21 32 21 32 2 0 -26 39 -97 81 -147 21 -26 39 -49 39 -52 0 -3
-28 -6 -63 -6 -50 0 -68 -4 -85 -20 -40 -37 -23 -61 41 -59 18 0 26 3 20 6
-16 6 -17 35 -1 51 15 15 67 16 103 2 14 -5 44 -25 67 -42 33 -28 48 -33 92
-33 28 0 66 3 83 7 29 7 33 5 39 -18 13 -50 109 -71 179 -37 19 9 35 20 35 25
0 14 -77 9 -90 -6 -16 -21 -37 -10 -50 27 -9 27 -7 36 10 59 l21 28 -35 0
c-21 0 -50 -10 -71 -24 -20 -14 -52 -30 -71 -36 -31 -11 -37 -9 -73 19 -207
164 -275 407 -141 499 25 17 47 22 91 22 33 0 59 4 59 10 0 15 -98 11 -153 -6z"/>
<path d="M4272 4260 c-18 -11 -35 -27 -38 -35 -13 -34 40 -58 76 -35 11 7 9
11 -14 19 -37 15 -29 32 25 53 41 16 42 17 14 17 -16 1 -45 -8 -63 -19z"/>
<path d="M814 4250 c-12 -5 -25 -13 -29 -19 -3 -6 -16 -11 -28 -11 -19 -1 -16
-6 21 -40 72 -65 132 -63 132 5 0 49 -51 83 -96 65z m54 -52 c-3 -34 -22 -45
-48 -29 -12 8 -11 14 10 35 31 35 42 33 38 -6z"/>
<path d="M4542 4210 c-12 -5 -25 -17 -28 -25 -8 -19 23 -55 47 -55 25 0 32 15
14 30 -32 26 -17 40 43 41 41 0 51 3 37 9 -26 11 -84 11 -113 0z"/>
<path d="M1161 4156 l-22 -24 20 -14 c21 -15 21 -15 1 -33 -26 -23 -25 -41 1
-56 18 -9 25 -7 47 15 26 25 26 26 7 40 -20 14 -20 15 4 40 24 26 24 26 5 41
-27 20 -37 19 -63 -9z"/>
<path d="M675 4137 c-34 -19 -40 -28 -43 -60 l-3 -37 36 21 c48 29 56 17 17
-24 -42 -43 -40 -51 4 -25 44 26 60 51 68 106 6 39 5 42 -16 42 -13 0 -41 -10
-63 -23z"/>
<path d="M1271 4055 c-50 -58 -54 -115 -8 -115 26 0 47 17 47 37 0 9 -8 11
-24 7 -38 -9 -41 14 -6 62 38 53 34 57 -9 9z"/>
<path d="M4910 4070 c-25 -25 -25 -31 1 -64 18 -23 28 -27 63 -24 36 3 43 7
59 41 10 20 26 37 35 38 30 2 -62 27 -100 28 -25 1 -45 -6 -58 -19z m90 -4 c0
-15 -24 -66 -31 -66 -12 0 -31 49 -23 61 5 8 54 13 54 5z"/>
<path d="M4623 4048 c-24 -12 -38 -41 -28 -58 3 -5 25 -10 48 -9 23 0 36 3 30
6 -20 8 -15 41 8 54 20 10 55 9 119 -6 21 -4 21 -3 -5 9 -35 17 -140 20 -172
4z"/>
<path d="M1400 4009 c17 -32 5 -52 -28 -46 l-27 5 0 -146 c0 -152 -7 -182 -53
-234 -24 -29 1 -21 35 11 17 15 44 53 59 82 26 49 29 64 29 156 0 102 0 102
25 105 40 5 39 43 -2 68 -42 25 -52 25 -38 -1z"/>
<path d="M713 3964 l-26 -26 27 -26 26 -27 33 33 32 33 -25 19 c-32 25 -36 25
-67 -6z"/>
<path d="M4774 3945 c3 -42 10 -55 41 -81 54 -48 73 -49 81 -8 10 57 -3 102
-36 119 -16 8 -31 15 -34 15 -3 0 -3 -20 1 -45 3 -25 3 -45 0 -45 -4 0 -18 21
-32 48 l-26 47 5 -50z"/>
<path d="M869 3894 c-21 -23 -22 -25 -6 -41 16 -16 15 -19 -6 -41 l-22 -24 24
-19 25 -20 25 25 c24 24 24 27 8 43 -16 16 -16 18 4 39 22 24 20 38 -10 54
-14 7 -24 4 -42 -16z"/>
<path d="M4676 3891 l-27 -28 25 -17 c33 -21 38 -20 64 7 27 28 27 36 5 53
-26 19 -36 17 -67 -15z"/>
<path d="M4970 3902 c-14 -11 -19 -23 -14 -35 8 -23 38 -39 58 -31 20 8 20 20
1 28 -24 9 -18 33 10 40 14 4 37 3 51 0 19 -5 25 -4 20 5 -11 18 -101 14 -126
-7z"/>
<path d="M596 3888 c26 -86 63 -138 99 -138 41 0 59 46 35 91 -15 27 -28 24
-32 -8 -2 -20 -9 -29 -25 -31 -17 -3 -26 7 -47 52 -27 57 -43 74 -30 34z"/>
<path d="M1141 3803 c-16 -58 -13 -88 12 -111 31 -29 37 -28 37 11 0 54 17 66
29 21 6 -21 11 -45 11 -52 0 -7 4 -11 8 -8 5 3 9 25 11 50 2 39 -3 50 -35 85
-20 23 -42 41 -50 41 -7 0 -18 -17 -23 -37z"/>
<path d="M5041 3780 c-2 -60 19 -99 65 -126 54 -32 64 -25 64 44 0 36 -5 49
-31 73 -17 16 -34 29 -39 29 -4 0 -5 -22 -2 -50 2 -27 1 -50 -2 -50 -4 0 -18
24 -31 53 -19 40 -24 46 -24 27z"/>
<path d="M577 3680 c-14 -11 -32 -17 -41 -14 -9 3 -16 3 -16 -1 0 -8 55 -56
84 -72 72 -42 129 25 71 82 -29 30 -64 32 -98 5z m73 -38 c0 -37 -7 -43 -36
-30 -30 14 -30 23 -2 42 31 22 38 20 38 -12z"/>
<path d="M4715 3658 l-27 -31 24 -13 c35 -20 54 -17 73 13 17 26 17 27 -5 45
-30 24 -34 23 -65 -14z"/>
<path d="M800 3639 c0 -7 18 -32 41 -55 l41 -42 -33 -7 c-50 -10 -99 -28 -99
-36 0 -4 13 -17 28 -27 l28 -20 22 25 c21 23 27 25 75 19 l52 -6 -52 50 c-29
27 -53 53 -53 56 0 3 14 4 30 2 37 -5 38 4 5 26 -36 23 -85 32 -85 15z"/>
<path d="M4446 3600 c8 -61 -3 -61 -31 0 -10 22 -21 40 -25 40 -8 0 5 -85 16
-101 8 -13 81 -59 94 -59 7 0 10 24 8 67 -3 64 -4 68 -36 86 l-33 19 7 -52z"/>
<path d="M4646 3579 c-73 -17 -106 -55 -110 -123 -1 -18 -8 -21 -53 -24 -72
-4 -67 -19 10 -27 56 -6 66 -11 93 -44 l31 -36 -74 3 c-85 5 -127 -13 -121
-51 2 -18 10 -23 48 -25 42 -3 44 -2 25 12 -19 14 -19 15 -1 35 35 39 130 20
229 -44 47 -32 57 -43 57 -66 0 -16 -1 -29 -2 -29 -2 0 -30 14 -62 30 -66 34
-94 37 -136 15 -62 -32 -49 -74 65 -220 57 -72 91 -150 80 -184 -3 -10 -21
-35 -40 -54 -41 -42 -47 -90 -16 -128 18 -23 18 -23 -10 -50 -36 -34 -37 -62
-1 -87 26 -20 26 -21 7 -28 -41 -15 -55 -36 -55 -82 0 -33 7 -54 25 -78 31
-40 31 -44 1 -44 -51 0 -73 -76 -36 -123 l20 -25 -25 -16 c-13 -9 -28 -16 -32
-16 -14 1 -48 35 -63 64 -20 39 -105 113 -138 121 -22 4 -33 18 -53 64 -40 90
-94 115 -121 55 -10 -21 -9 -31 3 -52 19 -35 33 -33 39 4 7 39 29 37 57 -5 29
-43 29 -57 -1 -65 -14 -3 -38 -17 -54 -31 -26 -22 -32 -23 -61 -12 -60 22
-111 -28 -152 -150 -26 -80 -22 -137 15 -193 15 -22 22 -42 16 -45 -13 -8 -13
-51 1 -77 20 -38 0 -29 -60 26 -67 62 -93 68 -135 35 -19 -15 -26 -30 -26 -55
l0 -34 -32 20 c-21 13 -41 17 -58 13 -25 -6 -25 -6 7 30 38 44 50 81 33 102
-17 21 -36 19 -60 -5 -25 -25 -19 -39 15 -32 33 6 33 -18 0 -62 -14 -18 -23
-35 -20 -38 3 -3 -4 -13 -15 -23 -19 -17 -20 -17 -40 8 -28 36 -54 42 -90 20
-60 -35 -120 -158 -120 -245 l0 -42 -38 37 c-39 38 -75 47 -113 27 -23 -13
-59 -80 -59 -111 0 -21 -1 -21 -18 -6 -40 36 -92 10 -92 -45 0 -34 32 -93 55
-102 26 -10 17 31 -12 54 l-28 22 24 19 c29 24 37 24 58 -1 25 -28 29 -26 42
26 13 52 58 104 91 104 23 0 35 -11 129 -117 58 -66 155 -143 179 -143 25 0
-6 45 -57 84 -31 24 -75 64 -99 90 -45 49 -44 44 -21 136 15 60 71 143 111
165 55 29 66 13 39 -59 -29 -79 -27 -118 8 -158 32 -36 46 -38 199 -24 84 7
92 7 86 -8 -7 -17 4 -17 69 1 17 4 17 2 1 -39 -67 -172 -184 -378 -216 -378
-4 0 -8 30 -8 68 0 37 -5 74 -10 82 -16 25 -12 -126 5 -166 19 -47 39 -42 87
20 41 55 150 268 170 332 l12 42 75 -64 c41 -35 76 -62 79 -60 9 10 -25 53
-112 139 -91 91 -192 211 -215 254 -15 30 10 80 44 89 20 5 35 -3 77 -41 83
-75 125 -86 94 -26 -20 38 -20 46 0 66 11 10 25 14 39 11 43 -11 16 33 -43 70
-52 34 -54 37 -49 70 13 79 51 177 82 210 35 37 72 47 60 17 -19 -51 -35 -147
-35 -219 0 -71 3 -85 28 -125 28 -43 119 -129 212 -199 25 -19 47 -35 50 -37
2 -2 -2 -8 -9 -12 -16 -10 70 -46 91 -38 16 6 -27 46 -207 195 l-130 108 2 63
c2 92 41 241 63 241 4 0 15 -16 24 -35 15 -32 16 -39 1 -80 -30 -89 -19 -100
65 -64 39 17 49 26 54 51 9 48 9 48 -39 28 -25 -11 -45 -16 -45 -13 0 4 17 24
37 45 38 39 36 48 -7 23 -36 -20 -37 -20 -61 27 l-21 42 31 28 c25 23 41 28
80 28 53 0 84 -18 122 -72 22 -31 22 -31 2 -26 -55 15 -76 -63 -27 -101 34
-27 62 -27 91 1 l23 22 15 -22 c17 -24 84 -47 98 -33 11 11 -29 34 -44 25 -7
-4 -9 4 -7 22 3 25 7 29 36 29 17 0 32 2 32 4 0 2 -13 19 -30 38 -20 23 -30
44 -30 66 0 40 15 57 52 57 33 0 34 3 7 41 -31 43 -41 88 -28 126 12 36 19 39
152 47 44 2 82 7 85 10 14 14 -17 21 -109 24 -94 4 -99 5 -105 27 -9 37 12 65
49 65 l31 0 -32 29 c-45 41 -44 87 2 138 18 21 37 48 40 61 13 40 -23 120
-100 221 -83 110 -99 143 -84 172 26 47 128 7 207 -81 25 -27 51 -50 58 -50 8
0 18 22 25 56 11 52 10 59 -9 85 l-22 29 41 16 c47 19 90 66 90 99 0 48 -80
82 -131 54 -18 -9 -20 -19 -17 -74 1 -35 -1 -67 -5 -71 -13 -13 -78 28 -147
93 -42 40 -62 65 -55 71 6 5 51 17 100 26 50 10 140 28 200 40 61 13 112 22
114 20 2 -2 -2 -10 -9 -19 -7 -8 -9 -15 -5 -15 13 0 145 74 145 81 0 14 -52
19 -83 9 -30 -10 -470 -100 -489 -100 -21 0 -7 63 21 91 27 26 36 29 98 29 47
0 63 3 53 10 -18 12 -81 11 -134 -1z m279 -220 c9 -14 -3 -59 -15 -59 -6 0
-10 16 -10 35 0 34 12 46 25 24z m-92 -146 c3 -5 2 -26 -3 -48 l-7 -40 -11 28
c-16 38 -15 67 2 67 8 0 17 -3 19 -7z m-318 -1137 c19 -14 19 -15 1 -35 -34
-38 -59 -17 -40 33 8 20 15 20 39 2z m-693 -399 c24 -20 148 -162 148 -169 0
-2 -40 -2 -90 0 l-90 3 0 34 c0 19 -5 46 -10 60 -9 23 -15 27 -41 23 -42 -6
-46 8 -13 43 33 35 60 37 96 6z m-122 -76 c0 -11 3 -27 7 -36 5 -15 8 -15 25
6 18 24 18 24 34 4 8 -11 14 -31 12 -45 -3 -23 -7 -25 -67 -28 l-63 -3 6 36
c13 68 46 115 46 66z"/>
<path d="M557 3513 c-15 -7 -27 -20 -27 -28 0 -42 27 -62 139 -100 l65 -22
-64 -12 c-103 -20 -161 -68 -130 -106 26 -32 85 -5 103 46 5 16 93 39 149 39
15 0 28 4 28 9 0 10 -77 44 -135 60 -47 13 -105 46 -105 61 0 5 11 17 25 26
42 28 -1 52 -48 27z"/>
<path d="M1200 3490 c-26 -26 -35 -66 -21 -96 14 -31 22 -30 43 5 9 16 26 34
37 40 20 11 21 9 21 -26 0 -21 -7 -63 -15 -93 -8 -30 -13 -55 -11 -57 5 -5 66
132 66 147 0 22 -43 78 -68 89 -30 14 -29 14 -52 -9z"/>
<path d="M5086 3441 c-37 -8 -55 -34 -40 -58 12 -20 37 -28 61 -19 12 5 11 9
-8 24 -32 27 -16 42 43 42 28 0 49 2 47 4 -9 8 -76 13 -103 7z"/>
<path d="M5041 3332 c-18 -4 -40 -17 -48 -28 -12 -19 -12 -24 2 -38 18 -17 75
-22 75 -6 0 6 -4 10 -10 10 -20 0 -9 30 16 47 22 14 32 15 70 5 53 -14 75 -15
53 -2 -22 13 -116 20 -158 12z"/>
<path d="M5117 3182 c-15 -15 -27 -33 -27 -39 0 -14 -53 -33 -90 -33 -15 0
-42 -3 -59 -6 -48 -10 -24 -28 84 -64 105 -35 136 -58 111 -83 -9 -8 -21 -18
-28 -20 -18 -7 10 -27 38 -27 24 0 54 29 54 52 0 30 -61 67 -147 89 -60 14
-69 29 -20 29 50 0 103 18 137 46 37 31 38 57 5 72 -33 15 -27 17 -58 -16z"/>
<path d="M666 3166 c15 -12 17 -18 8 -33 -10 -15 -24 -18 -85 -17 -49 1 -65
-1 -49 -6 14 -4 57 -8 96 -9 63 -1 73 2 94 24 31 33 14 55 -43 55 -38 0 -39
-1 -21 -14z"/>
<path d="M4440 3105 c-35 -74 -35 -96 6 -144 32 -38 65 -40 93 -5 25 32 27 62
5 93 l-16 23 -22 -38 c-29 -52 -56 -57 -56 -12 0 18 7 58 15 88 8 30 13 56 11
58 -3 2 -19 -26 -36 -63z"/>
<path d="M610 3062 c0 -4 9 -13 21 -20 29 -19 8 -40 -44 -45 -39 -3 -38 -4 11
-5 29 -1 62 3 73 8 21 12 25 40 7 58 -13 13 -68 17 -68 4z"/>
<path d="M4905 2961 c-7 -23 -44 -31 -91 -21 -19 4 -34 5 -34 1 0 -5 23 -27
50 -50 59 -49 63 -65 18 -56 l-33 6 28 -25 c26 -24 87 -37 87 -19 0 4 -18 28
-41 55 l-40 48 31 0 c17 0 47 7 67 15 l36 15 -23 25 c-28 30 -46 32 -55 6z"/>
<path d="M1220 2885 c0 -61 1 -65 30 -80 41 -21 43 -20 36 30 -5 27 -3 45 3
45 5 0 17 -20 27 -45 20 -55 35 -59 27 -7 -7 48 -26 78 -66 102 -51 32 -57 27
-57 -45z"/>
<path d="M4528 2900 c-42 -26 4 -105 53 -93 18 5 18 7 4 23 -18 20 -20 46 -2
53 6 2 35 -2 62 -9 69 -18 76 -16 32 7 -45 24 -125 34 -149 19z"/>
<path d="M4401 2835 c-16 -14 -43 -52 -58 -83 -25 -51 -28 -67 -27 -159 0 -56
-3 -100 -8 -97 -14 9 -48 -16 -48 -36 0 -11 12 -26 30 -35 39 -20 57 -20 40 0
-18 22 -5 45 27 45 l28 0 0 143 c0 147 7 178 53 230 23 26 -2 20 -37 -8z"/>
<path d="M5045 2840 c-30 -34 -2 -93 52 -106 17 -5 34 0 54 16 17 12 37 19 45
16 27 -10 14 12 -25 43 -35 28 -80 51 -100 51 -4 0 -16 -9 -26 -20z m77 -21
c20 -11 20 -11 -3 -35 -29 -31 -39 -30 -39 4 0 42 9 49 42 31z"/>
<path d="M951 2814 c-27 -35 -27 -41 8 -58 28 -15 30 -15 55 19 l26 34 -29 16
c-38 19 -36 20 -60 -11z"/>
<path d="M567 2793 c-4 -3 -7 -28 -7 -55 0 -39 5 -54 25 -73 35 -36 52 -32 47
9 -7 59 4 63 31 11 27 -51 34 -43 21 25 -10 46 -94 106 -117 83z"/>
<path d="M728 2774 c-16 -8 -28 -19 -28 -24 0 -15 63 -11 84 5 28 21 33 19 52
-16 15 -30 15 -33 -5 -60 -27 -37 -27 -39 12 -39 19 0 50 13 76 30 85 58 107
53 208 -50 85 -86 136 -187 141 -279 3 -56 0 -71 -20 -100 -38 -56 -72 -75
-146 -82 l-67 -6 73 -1 c135 -3 220 61 240 181 4 23 11 41 15 40 4 -2 24 -3
45 -3 l37 -1 -22 -18 c-32 -27 -29 -35 13 -28 38 6 77 34 68 48 -2 4 -32 11
-65 15 l-60 7 24 26 c50 53 59 91 23 91 -42 0 -53 -9 -48 -38 2 -19 -3 -33
-17 -46 -19 -18 -20 -17 -43 36 -12 29 -43 80 -68 113 l-45 60 67 0 c56 0 71
4 89 22 26 26 20 50 -16 59 -27 7 -70 -5 -47 -13 19 -7 14 -41 -9 -54 -32 -17
-96 -3 -138 30 -63 49 -79 54 -158 47 -71 -6 -74 -5 -83 18 -5 14 -18 30 -29
35 -29 16 -121 13 -153 -5z"/>
<path d="M4488 2764 c-5 -4 -8 -27 -8 -51 0 -37 5 -48 41 -83 23 -22 45 -40
50 -40 10 0 29 65 29 101 0 23 -35 69 -53 69 -4 0 -7 -10 -7 -22 0 -13 -3 -34
-7 -48 -6 -22 -9 -19 -22 28 -9 30 -19 50 -23 46z"/>
<path d="M5006 2674 c-22 -22 -20 -67 4 -89 19 -18 20 -17 20 6 0 33 18 51 40
39 10 -5 27 -32 39 -60 24 -55 35 -65 25 -22 -16 65 -70 142 -100 142 -7 0
-20 -7 -28 -16z"/>
<path d="M4819 2654 c-23 -25 -24 -26 -5 -40 19 -14 19 -14 -4 -39 -23 -25
-23 -25 -4 -40 25 -19 38 -19 57 3 21 23 21 38 1 46 -15 6 -15 9 5 29 26 28
26 36 4 53 -24 18 -26 18 -54 -12z"/>
<path d="M836 2594 c-3 -9 -6 -34 -6 -56 0 -32 6 -46 31 -69 17 -16 35 -29 40
-29 4 0 5 23 2 50 -3 28 -3 50 0 50 4 0 18 -21 31 -47 25 -48 25 -48 26 -16 0
52 -16 80 -63 107 -51 31 -53 31 -61 10z"/>
<path d="M707 2593 c-4 -3 0 -14 9 -24 23 -26 9 -39 -44 -40 -40 0 -44 -2 -25
-11 33 -16 111 -1 124 23 8 16 7 25 -7 40 -17 19 -45 25 -57 12z"/>
<path d="M983 2574 c-16 -26 -16 -27 7 -46 28 -23 37 -20 64 16 21 27 21 28 2
42 -29 21 -54 17 -73 -12z"/>
<path d="M4957 2512 c-27 -28 -27 -29 -9 -45 26 -24 45 -21 73 9 l24 25 -25
19 c-32 25 -31 25 -63 -8z"/>
<path d="M4441 2483 c-29 -20 -27 -41 3 -36 34 7 39 -10 13 -48 -38 -56 -41
-63 -28 -55 26 16 71 90 71 116 0 33 -29 45 -59 23z"/>
<path d="M715 2435 c-14 -13 -25 -31 -25 -38 0 -8 -10 -18 -22 -22 -19 -6 -13
-9 32 -21 96 -24 155 3 129 59 -11 25 -47 47 -75 47 -8 0 -26 -11 -39 -25z
m67 -30 c13 -29 10 -34 -23 -37 -19 -2 -23 1 -21 17 8 52 26 60 44 20z"/>
<path d="M1050 2450 c0 -5 5 -10 10 -10 6 0 10 -9 10 -20 0 -31 -44 -44 -103
-29 -26 6 -50 9 -53 6 -11 -11 109 -28 149 -22 68 11 99 52 58 75 -25 13 -71
13 -71 0z"/>
<path d="M5033 2415 c-37 -23 -43 -31 -53 -81 -7 -31 -9 -58 -6 -61 9 -9 89
20 108 39 10 10 18 32 18 48 l0 30 -40 -20 c-52 -27 -59 -25 -29 8 31 34 53
62 48 62 -2 0 -23 -11 -46 -25z"/>
<path d="M4521 2389 c-20 -19 -21 -23 -7 -38 14 -16 14 -19 -5 -40 -20 -21
-20 -23 -3 -42 23 -25 35 -24 57 7 15 20 16 28 6 40 -9 11 -8 18 5 32 21 24
20 39 -3 52 -25 13 -24 13 -50 -11z"/>
<path d="M1140 2290 c0 -5 7 -13 17 -18 32 -18 7 -42 -44 -43 l-48 -1 37 -9
c45 -10 111 8 116 32 2 9 -4 24 -13 33 -18 17 -65 22 -65 6z"/>
<path d="M4827 2293 c-4 -3 -7 -21 -7 -40 0 -64 67 -94 119 -54 13 10 33 16
45 13 15 -3 10 5 -18 29 -22 19 -49 39 -60 46 -23 13 -69 17 -79 6z m83 -33
c12 -7 11 -13 -9 -34 -27 -29 -41 -26 -41 8 0 36 19 46 50 26z"/>
<path d="M1020 2283 c-8 -3 -55 -23 -104 -46 -101 -45 -123 -43 -118 12 4 31
3 32 -20 20 -67 -35 -41 -110 33 -95 16 3 58 19 93 36 36 16 68 30 72 30 3 0
-8 -16 -25 -35 -58 -66 -82 -148 -52 -178 21 -21 65 13 69 52 2 18 -1 38 -7
44 -13 13 5 49 53 106 46 55 47 69 6 54z"/>
<path d="M1426 2247 c-16 -12 -16 -14 9 -25 37 -17 27 -34 -31 -54 -36 -12
-42 -17 -24 -17 37 -1 114 40 119 63 3 19 -22 46 -44 46 -6 0 -19 -6 -29 -13z"/>
<path d="M1577 2233 c-9 -8 -9 -96 -1 -118 5 -12 52 -45 66 -45 2 0 2 24 0 52
l-2 53 30 -55 31 -55 -6 49 c-6 56 -15 69 -67 102 -42 27 -42 27 -51 17z"/>
<path d="M4801 2136 c-12 -18 -28 -52 -36 -76 -13 -38 -13 -46 1 -76 31 -65
79 -81 113 -38 23 29 27 64 11 95 -12 22 -30 25 -30 5 0 -17 -45 -66 -61 -66
-14 0 -6 91 15 150 7 22 12 40 11 40 -2 0 -13 -15 -24 -34z"/>
<path d="M1305 2087 c-20 -10 -36 -11 -49 -5 -22 12 -74 3 -104 -18 -12 -8
-31 -33 -42 -55 -11 -21 -26 -38 -33 -36 -7 1 -13 -12 -15 -35 l-3 -38 28 16
c17 10 37 37 52 70 29 67 43 79 70 65 17 -10 19 -16 11 -37 -14 -35 -12 -78 2
-92 17 -17 79 -15 106 4 29 20 28 43 -3 88 -44 65 -8 74 103 26 58 -24 183
-91 202 -107 2 -2 -14 -22 -37 -44 l-40 -41 -89 23 c-85 21 -91 22 -124 6 -20
-10 -46 -35 -60 -57 -14 -22 -30 -40 -37 -40 -8 0 -13 -14 -13 -35 0 -32 2
-35 19 -26 11 6 36 40 56 76 20 36 42 65 49 65 17 0 117 -30 140 -42 17 -9 8
-21 -80 -109 -77 -78 -100 -95 -105 -82 -4 12 -16 -2 -42 -52 -20 -38 -35 -71
-33 -73 14 -13 59 24 180 149 l137 140 125 -65 c76 -39 119 -57 108 -44 -22
24 -166 133 -186 141 -9 3 0 18 29 47 l41 43 66 -42 c36 -23 66 -37 66 -32 0
6 -9 15 -20 21 -25 13 -26 30 -2 30 29 1 100 37 111 58 25 46 -31 86 -77 56
l-25 -16 31 -14 c50 -21 39 -42 -35 -68 -39 -14 -42 -13 -64 10 l-22 24 28 22
c16 13 36 28 44 35 30 23 -11 15 -57 -12 l-43 -24 -43 33 c-56 43 -184 96
-244 102 -28 2 -59 -1 -77 -9z m-18 -117 c9 -13 9 -21 2 -26 -12 -7 -29 13
-29 34 0 18 14 15 27 -8z"/>
<path d="M3895 2038 c-16 -6 -38 -17 -47 -25 -18 -16 -51 -103 -43 -111 3 -3
31 -1 62 4 54 8 59 12 77 47 20 42 17 53 -11 39 -10 -5 -31 -12 -48 -16 -29
-6 -29 -5 15 34 47 41 46 46 -5 28z"/>
<path d="M1412 1988 c-17 -17 -15 -35 8 -58 28 -28 40 -25 34 10 -8 38 12 40
65 8 l36 -22 -20 24 c-20 23 -73 50 -98 50 -7 0 -18 -5 -25 -12z"/>
<path d="M967 1958 c-23 -12 -21 -25 4 -31 33 -9 17 -30 -37 -49 -37 -13 -43
-17 -23 -18 33 0 91 24 108 44 27 33 -14 76 -52 54z"/>
<path d="M4663 1893 c-18 -9 -33 -20 -33 -25 0 -13 -69 -9 -127 6 -69 19 -71
2 -6 -51 26 -21 67 -57 92 -80 36 -36 41 -45 31 -58 -7 -8 -21 -15 -31 -15
-22 0 -24 -11 -7 -28 26 -26 88 -11 88 22 0 30 -22 59 -91 116 -65 54 -65 55
11 39 60 -13 109 -6 142 20 l23 19 -24 26 c-28 30 -26 30 -68 9z"/>
<path d="M1166 1878 c-18 -26 -11 -42 13 -28 39 21 41 -17 4 -68 l-27 -37 28
25 c51 46 73 112 40 124 -28 11 -42 7 -58 -16z"/>
<path d="M1938 1893 c-19 -5 -25 -23 -7 -23 20 0 4 -44 -21 -58 -24 -13 -24
-13 9 -8 65 12 105 52 81 81 -12 15 -29 17 -62 8z"/>
<path d="M1006 1844 c-3 -9 -6 -27 -6 -40 0 -21 5 -24 35 -24 27 0 35 4 35 18
0 9 3 27 6 40 6 20 3 22 -29 22 -23 0 -37 -6 -41 -16z"/>
<path d="M4356 1834 c-21 -21 -20 -68 2 -90 16 -17 17 -17 20 7 10 65 42 58
77 -17 14 -30 27 -54 29 -54 7 0 -15 73 -30 102 -13 26 -59 68 -75 68 -4 0
-15 -7 -23 -16z"/>
<path d="M2051 1796 c-23 -25 -23 -30 8 -76 8 -12 13 -12 30 4 19 17 20 17 36
-8 21 -31 35 -33 58 -6 17 20 17 22 -3 50 -25 35 -28 35 -50 15 -16 -15 -19
-13 -37 15 l-19 30 -23 -24z"/>
<path d="M1818 1793 c12 -2 32 -2 45 0 12 2 2 4 -23 4 -25 0 -35 -2 -22 -4z"/>
<path d="M2340 1727 c-33 -17 -37 -50 -9 -76 21 -19 21 -23 10 -63 -7 -24 -22
-60 -33 -81 -11 -22 -17 -41 -14 -45 3 -3 47 23 97 57 51 34 99 60 108 59 9
-2 17 -14 19 -26 2 -15 9 -22 20 -20 21 4 41 44 35 69 -11 42 -70 30 -153 -30
-24 -17 -46 -31 -51 -31 -4 0 2 19 14 43 24 50 28 134 6 148 -18 11 -19 11
-49 -4z"/>
<path d="M1070 1707 c0 -7 7 -34 16 -60 13 -37 21 -47 45 -52 17 -4 32 -5 35
-2 2 2 -3 21 -12 43 l-16 39 34 -32 c45 -43 53 -42 29 6 -19 37 -43 52 -103
65 -20 5 -28 2 -28 -7z"/>
<path d="M1511 1685 c-44 -50 -40 -62 21 -70 49 -7 53 -6 77 21 l25 29 -42 3
c-23 2 -42 6 -42 11 0 4 19 14 43 23 l42 17 -46 0 c-42 1 -51 -3 -78 -34z"/>
<path d="M1877 1680 c-57 -10 -117 -52 -117 -82 0 -12 12 -34 27 -50 l26 -27
-26 -10 c-39 -15 -59 -63 -55 -132 2 -45 0 -59 -11 -59 -8 0 -11 -6 -7 -16 3
-9 9 -27 12 -40 3 -13 10 -24 15 -24 21 0 31 47 28 134 l-4 91 69 0 c55 0 71
4 80 18 9 15 2 26 -54 76 -36 33 -61 63 -57 67 5 5 63 9 130 9 110 0 127 -2
172 -25 101 -51 105 -134 11 -238 -40 -44 -44 -51 -19 -34 95 67 147 188 112
264 -31 70 -177 104 -332 78z"/>
<path d="M3192 1669 c-24 -4 -69 -20 -99 -34 -44 -20 -58 -23 -65 -13 -4 7 -8
16 -8 19 0 4 -8 10 -17 13 -23 9 -40 -12 -49 -59 -7 -39 -6 -40 13 -22 23 20
53 23 53 5 1 -33 15 -38 55 -18 22 10 81 31 130 45 88 26 148 29 200 9 18 -7
18 -6 7 9 -30 36 -146 61 -220 46z"/>
<path d="M4131 1673 c-18 -4 -22 -10 -18 -29 4 -21 0 -26 -24 -31 -33 -6 -32
-4 -19 -38 8 -22 14 -24 37 -19 41 10 44 13 33 34 -8 16 -5 19 20 25 17 4 30
11 30 16 0 16 -20 49 -28 48 -4 -1 -18 -4 -31 -6z"/>
<path d="M2682 1584 c-23 -19 -42 -41 -42 -48 0 -14 63 -36 102 -36 25 0 73
41 61 53 -3 4 -18 7 -32 7 -57 0 -54 18 5 31 l59 13 -40 7 c-63 12 -69 11
-113 -27z"/>
<path d="M2891 1546 c-6 -25 -11 -85 -11 -135 l0 -89 -35 -22 c-19 -12 -42
-31 -50 -43 -14 -20 -15 -18 -15 31 0 90 -45 111 -161 75 -35 -10 -86 -16
-146 -15 -80 1 -94 -2 -103 -17 -8 -17 1 -22 92 -51 170 -54 161 -45 92 -90
-32 -22 -64 -40 -71 -40 -6 0 -13 15 -15 32 -2 24 -9 35 -28 41 -23 9 -44 3
-114 -31 -5 -3 -6 0 -3 5 11 17 -23 53 -49 53 -13 0 -33 -9 -44 -20 -23 -23
-30 -25 -30 -7 0 21 -34 47 -62 47 -14 0 -44 -13 -66 -30 l-41 -30 -37 25
c-20 14 -43 25 -50 25 -33 0 -59 -111 -32 -138 25 -25 59 -13 109 39 35 35 59
52 84 56 42 7 76 -17 68 -48 -7 -26 3 -24 39 6 16 14 38 25 48 25 25 0 43 -25
35 -49 -6 -20 -3 -19 45 6 42 22 54 24 75 15 17 -8 25 -20 25 -37 0 -35 26
-42 58 -16 46 36 100 61 154 71 51 10 96 37 81 50 -5 4 -28 14 -53 23 -109 39
-106 38 -89 47 9 5 41 12 71 16 84 10 88 3 88 -167 0 -133 13 -229 30 -229 15
0 20 55 10 109 -11 60 -13 141 -4 166 8 20 91 78 97 68 3 -5 8 -55 12 -113 3
-58 8 -116 11 -129 4 -18 2 -22 -10 -18 -21 8 -20 -7 5 -73 43 -116 54 -82 39
127 -5 87 -11 174 -13 193 -2 34 -1 35 44 44 86 17 119 -7 98 -71 -7 -24 -17
-33 -32 -33 -28 0 -41 -9 -56 -37 -11 -21 -10 -22 26 -20 53 3 54 -22 2 -78
-53 -57 -37 -59 19 -2 47 48 70 100 54 120 -8 9 -7 24 3 52 33 92 9 131 -77
123 -29 -3 -60 -9 -70 -12 -14 -7 -17 5 -23 89 -4 52 -5 109 -1 125 9 47 -10
35 -23 -14z m-915 -367 c19 -21 19 -21 -6 -18 -14 2 -26 12 -28 22 -5 23 11
22 34 -4z"/>
<path d="M1568 1543 c-20 -21 -55 -59 -78 -85 -50 -56 -78 -62 -87 -18 -5 29
-7 30 -24 14 -23 -20 -25 -67 -4 -84 31 -26 78 4 157 100 l37 45 -9 -35 c-19
-77 -16 -150 8 -180 15 -19 22 -21 39 -11 12 6 24 20 28 30 7 22 -18 77 -37
83 -10 4 -10 19 -1 75 7 38 15 77 19 86 11 28 -12 19 -48 -20z"/>
<path d="M2052 1564 c-31 -21 -28 -43 4 -41 37 3 40 -15 9 -51 -30 -36 -33
-52 -4 -26 18 16 59 84 59 98 0 7 -31 36 -38 36 -4 0 -18 -7 -30 -16z"/>
<path d="M4218 1513 c-33 -61 -42 -106 -28 -132 22 -42 100 -11 100 40 0 16
-4 19 -17 14 -47 -20 -63 -18 -63 6 0 13 9 44 20 68 28 60 19 62 -12 4z"/>
<path d="M4315 1530 c-40 -45 -10 -120 48 -120 16 0 36 -8 44 -17 12 -16 13
-11 8 42 -10 95 -58 141 -100 95z m68 -42 c3 -12 4 -25 1 -30 -7 -10 -35 -10
-53 1 -11 7 -9 13 8 30 27 27 37 27 44 -1z"/>
<path d="M3547 1522 c-30 -33 -17 -74 14 -46 26 23 39 9 39 -42 0 -31 4 -43
11 -38 19 11 5 115 -16 130 -24 18 -29 18 -48 -4z"/>
<path d="M3100 1500 c0 -18 -4 -20 -34 -15 -30 6 -34 4 -40 -20 -8 -32 -8 -33
32 -44 34 -10 42 -6 42 20 0 15 6 17 35 12 34 -5 35 -4 35 25 0 30 -14 42 -51
42 -12 0 -19 -7 -19 -20z"/>
<path d="M2481 1436 l-23 -25 22 -31 22 -31 24 22 c30 28 30 31 1 64 l-22 26
-24 -25z"/>
<path d="M1955 1443 c-50 -10 -85 -26 -85 -38 0 -7 19 -30 42 -50 35 -30 47
-35 73 -29 47 10 49 19 10 48 -20 16 -34 30 -32 33 3 2 28 -3 57 -11 38 -11
49 -12 42 -3 -19 22 -86 54 -107 50z"/>
<path d="M2238 1424 c-33 -17 -45 -56 -29 -91 8 -18 9 -29 1 -37 -23 -23 -7
-26 31 -4 89 50 119 117 62 139 -31 11 -32 11 -65 -7z m56 -45 c6 -5 2 -17 -9
-29 -18 -20 -20 -20 -32 -4 -7 10 -13 26 -13 37 0 14 5 17 23 12 12 -4 26 -11
31 -16z"/>
<path d="M3770 1420 c-30 -30 -27 -83 6 -109 15 -12 36 -21 48 -21 12 0 27 -5
34 -12 9 -9 12 -4 12 23 0 53 -19 107 -43 124 -28 19 -33 19 -57 -5z m68 -58
c3 -19 -1 -22 -32 -22 -40 0 -43 5 -19 32 22 24 47 19 51 -10z"/>
<path d="M3340 1346 c0 -30 4 -35 31 -41 35 -8 34 -8 43 27 5 23 2 27 -26 37
-45 16 -48 15 -48 -23z"/>
<path d="M1813 1318 c-27 -35 -26 -40 6 -33 28 6 31 4 31 -18 0 -13 -8 -31
-18 -41 -18 -15 -20 -15 -37 4 -17 19 -19 19 -37 4 -23 -22 -23 -46 1 -75 l19
-24 26 24 c14 14 24 27 21 29 -2 3 7 18 20 34 28 33 40 70 31 93 -7 18 -50 20
-63 3z"/>
<path d="M4043 1288 c-6 -7 -13 -21 -16 -31 -6 -16 -2 -17 27 -12 59 12 56
-26 -7 -92 -17 -18 -26 -33 -20 -33 15 0 92 86 103 116 15 38 -3 64 -44 64
-19 0 -38 -6 -43 -12z"/>
<path d="M3490 1260 c-28 -28 -25 -40 10 -33 38 7 39 -8 4 -62 l-26 -40 36 37
c45 47 56 86 31 105 -25 17 -31 17 -55 -7z"/>
<path d="M1653 1262 c-9 -6 -7 -12 8 -25 31 -27 13 -40 -45 -33 -57 6 -46 -9
14 -19 72 -12 115 29 72 68 -21 19 -31 21 -49 9z"/>
<path d="M3261 1189 c-15 -45 -14 -51 10 -37 17 11 22 10 35 -6 8 -11 15 -29
15 -40 1 -12 5 -3 8 19 9 56 -5 95 -34 95 -17 0 -26 -8 -34 -31z"/>
<path d="M3143 1198 c-28 -36 -27 -41 5 -35 41 8 43 -12 6 -68 l-26 -40 36 37
c55 58 62 118 13 118 -14 0 -29 -6 -34 -12z"/>
<path d="M3390 1153 c0 -16 11 -67 25 -114 24 -79 26 -129 5 -129 -5 0 -21 5
-36 10 -25 10 -26 9 -20 -12 3 -13 6 -26 6 -29 0 -4 14 -12 30 -19 24 -10 33
-10 45 0 21 18 19 95 -5 165 -11 32 -20 61 -20 65 0 4 24 -17 53 -45 73 -74
157 -95 157 -40 0 38 -27 57 -74 53 -39 -4 -44 -2 -103 60 -62 62 -63 63 -63
35z"/>
<path d="M3629 1136 c-6 -13 -9 -33 -5 -43 7 -16 9 -16 26 7 25 33 43 16 42
-39 0 -23 3 -41 9 -41 13 0 11 81 -4 110 -18 35 -54 38 -68 6z"/>
<path d="M2055 1120 c-16 -7 -16 -9 -4 -9 26 -1 31 -29 9 -51 -20 -20 -37 -24
-99 -20 -24 1 -31 -2 -26 -10 8 -14 70 -8 137 12 43 13 74 48 64 73 -6 16 -48
19 -81 5z"/>
<path d="M2238 1073 c-22 -5 -24 -23 -3 -23 24 0 17 -27 -12 -51 l-28 -22 30
7 c61 14 106 67 73 87 -14 9 -31 10 -60 2z"/>
<path d="M3297 1045 c-10 -21 -16 -40 -13 -42 7 -7 38 56 34 68 -2 6 -11 -6
-21 -26z"/>
<path d="M2598 1003 c-30 -34 -29 -74 2 -105 16 -15 30 -36 32 -45 2 -10 13 2
31 35 20 37 27 63 25 89 -3 36 -5 38 -39 41 -24 2 -40 -3 -51 -15z m69 -43 c2
-8 -1 -21 -6 -29 -8 -12 -13 -12 -35 3 -30 19 -33 33 -8 39 28 8 47 3 49 -13z"/>
<path d="M3168 988 c-40 -23 -58 -59 -58 -114 0 -40 5 -41 71 -13 37 16 51 28
55 48 3 14 7 32 10 39 5 17 -6 15 -52 -7 -21 -11 -41 -17 -43 -15 -3 2 13 22
34 44 44 45 38 50 -17 18z"/>
<path d="M2328 965 c-51 -35 -64 -61 -39 -75 11 -6 39 -13 63 -16 35 -5 48 -2
71 16 36 28 34 40 -5 41 -18 0 -42 4 -53 8 -16 7 -7 11 40 21 55 13 58 14 30
21 -53 12 -70 10 -107 -16z"/>
<path d="M2997 972 c-26 -28 -22 -43 8 -32 35 13 44 -12 18 -48 -35 -49 -37
-57 -5 -28 39 36 59 90 42 111 -17 20 -44 19 -63 -3z"/>
<path d="M2123 973 c15 -2 37 -2 50 0 12 2 0 4 -28 4 -27 0 -38 -2 -22 -4z"/>
<path d="M2830 904 c0 -4 7 -16 17 -26 22 -25 11 -33 -45 -31 -34 1 -41 -1
-27 -7 35 -15 102 -11 120 6 14 14 14 19 2 38 -13 20 -67 36 -67 20z"/>
</g>
</svg>
